<svg viewBox="0 0 30 31"  xmlns="http://www.w3.org/2000/svg">
<path d="M15.0171 19.0598L25.12 29.1628C25.6561 29.6989 26.3832 30 27.1414 30C27.8995 30 28.6266 29.6989 29.1627 29.1628C29.6988 28.6267 30 27.8996 30 27.1414C30 26.3833 29.6988 25.6562 29.1627 25.1201L19.056 15.0171L29.1608 4.91418C29.4261 4.64873 29.6366 4.33362 29.7801 3.98685C29.9237 3.64007 29.9975 3.26842 29.9974 2.8931C29.9973 2.51779 29.9233 2.14617 29.7796 1.79947C29.6359 1.45276 29.4253 1.13775 29.1599 0.872428C28.8944 0.607105 28.5793 0.396665 28.2325 0.253121C27.8858 0.109578 27.5141 0.0357422 27.1388 0.0358306C26.7635 0.0359191 26.3919 0.109929 26.0452 0.253636C25.6985 0.397343 25.3834 0.607933 25.1181 0.873381L15.0171 10.9763L4.91414 0.873381C4.65066 0.600319 4.33543 0.382467 3.98685 0.232535C3.63827 0.0826036 3.26332 0.00359478 2.88388 0.00011984C2.50443 -0.0033551 2.1281 0.0687728 1.77683 0.212295C1.42557 0.355817 1.1064 0.56786 0.837955 0.83605C0.569512 1.10424 0.357169 1.42321 0.213316 1.77434C0.069462 2.12547 -0.00302071 2.50174 9.64319e-05 2.88118C0.00321357 3.26063 0.0818679 3.63565 0.231471 3.98437C0.381074 4.33309 0.598628 4.64853 0.871441 4.91227L10.9782 15.0171L0.873347 25.122C0.600534 25.3857 0.382979 25.7011 0.233377 26.0499C0.0837738 26.3986 0.00511857 26.7736 0.00200143 27.1531C-0.00111571 27.5325 0.071367 27.9088 0.215221 28.2599C0.359074 28.611 0.571417 28.93 0.83986 29.1982C1.1083 29.4664 1.42747 29.6784 1.77874 29.8219C2.13001 29.9655 2.50634 30.0376 2.88578 30.0341C3.26522 30.0306 3.64017 29.9516 3.98875 29.8017C4.33733 29.6518 4.65256 29.4339 4.91605 29.1609L15.0171 19.0617V19.0598Z" stroke-width="0"/>
</svg>
