<svg width="20" height="18" viewBox="0 0 20 18" xmlns="http://www.w3.org/2000/svg">
<g id="email_icon">
<path id="Vector" d="M0 5.91361V12.5939C0 13.774 0.395088 14.9058 1.09835 15.7402C1.80161 16.5747 2.75544 17.0435 3.75 17.0435H16.25C17.2446 17.0435 18.1984 16.5747 18.9017 15.7402C19.6049 14.9058 20 13.774 20 12.5939V5.91361L10.5125 10.9802C10.3514 11.0662 10.1767 11.1106 10 11.1106C9.82332 11.1106 9.64865 11.0662 9.4875 10.9802L0 5.91361ZM0.092428 4.42129L5.04618 7.0673L9.99993 9.71332L19.9074 4.42129C19.7192 3.43726 19.2547 2.55836 18.5901 1.9288C17.9255 1.29924 17.1003 0.956407 16.2499 0.956543H3.74993C2.89952 0.956407 2.07433 1.29924 1.40975 1.9288C0.745162 2.55836 0.280651 3.43726 0.092428 4.42129Z"/>
</g>
</svg>
