<svg width="30" height="30" viewBox="0 0 20 20" fill="none" xmlns="http://www.w3.org/2000/svg">
<path d="M17.7787 0H2.22125C1.63267 0.00172018 1.06868 0.236289 0.65249 0.652483C0.236296 1.06868 0.00172018 1.63266 0 2.22125V17.7787C0.00172018 18.3673 0.236296 18.9313 0.65249 19.3475C1.06868 19.7637 1.63267 19.9983 2.22125 20H10V12.2213H7.77874V9.47184H10V7.19408C10 4.79026 11.3475 3.10149 14.1839 3.10149H16.1878V5.99651H14.8576C13.7535 5.99651 13.3362 6.8246 13.3362 7.594V9.47184H16.19L15.5488 12.2213H13.3341V20H17.7787C18.3673 19.9983 18.9313 19.7637 19.3475 19.3475C19.7637 18.9313 19.9983 18.3673 20 17.7787V2.22125C19.9983 1.63266 19.7637 1.06868 19.3475 0.652483C18.9313 0.236289 18.3673 0.00172018 17.7787 0ZM19.348 17.7787C19.3474 18.1947 19.1819 18.5935 18.8877 18.8877C18.5936 19.1819 18.1948 19.3474 17.7787 19.348H13.9861V12.8733H16.0748L16.19 12.3669L16.8224 9.61964L17.0072 8.82199H13.9861V7.59616C13.9861 7.24189 14.0991 6.65072 14.8555 6.65072H16.8376V2.45163H14.1839C11.1563 2.45163 9.34797 4.22516 9.34797 7.19626V8.82199H7.12671V12.8755H9.34797V19.3501H2.22125C1.80525 19.3496 1.40644 19.184 1.11228 18.8899C0.818118 18.5957 0.652607 18.1969 0.652032 17.7809V2.22125C0.652607 1.80524 0.818118 1.40643 1.11228 1.11227C1.40644 0.818108 1.80525 0.652607 2.22125 0.652032H17.7787C18.1948 0.652607 18.5936 0.818108 18.8877 1.11227C19.1819 1.40643 19.3474 1.80524 19.348 2.22125V17.7787Z" fill="#E27023"/>
<path d="M17.7787 0H2.22125C1.63267 0.00172018 1.06868 0.236289 0.65249 0.652483C0.236296 1.06868 0.00172018 1.63266 0 2.22125V17.7787C0.00172018 18.3673 0.236296 18.9313 0.65249 19.3475C1.06868 19.7637 1.63267 19.9983 2.22125 20H10V12.2213H7.77874V9.47184H10V7.19408C10 4.79026 11.3475 3.10149 14.1839 3.10149H16.1878V5.99651H14.8576C13.7535 5.99651 13.3362 6.8246 13.3362 7.594V9.47184H16.19L15.5488 12.2213H13.3341V20H17.7787C18.3673 19.9983 18.9313 19.7637 19.3475 19.3475C19.7637 18.9313 19.9983 18.3673 20 17.7787V2.22125C19.9983 1.63266 19.7637 1.06868 19.3475 0.652483C18.9313 0.236289 18.3673 0.00172018 17.7787 0ZM19.348 17.7787C19.3474 18.1947 19.1819 18.5935 18.8877 18.8877C18.5936 19.1819 18.1948 19.3474 17.7787 19.348H13.9861V12.8733H16.0748L16.19 12.3669L16.8224 9.61964L17.0072 8.82199H13.9861V7.59616C13.9861 7.24189 14.0991 6.65072 14.8555 6.65072H16.8376V2.45163H14.1839C11.1563 2.45163 9.34797 4.22516 9.34797 7.19626V8.82199H7.12671V12.8755H9.34797V19.3501H2.22125C1.80525 19.3496 1.40644 19.184 1.11228 18.8899C0.818118 18.5957 0.652607 18.1969 0.652032 17.7809V2.22125C0.652607 1.80524 0.818118 1.40643 1.11228 1.11227C1.40644 0.818108 1.80525 0.652607 2.22125 0.652032H17.7787C18.1948 0.652607 18.5936 0.818108 18.8877 1.11227C19.1819 1.40643 19.3474 1.80524 19.348 2.22125V17.7787Z" fill="black"/>
<path d="M19.348 2.2212V17.7787C19.3474 18.1947 19.1819 18.5935 18.8877 18.8877C18.5936 19.1818 18.1948 19.3473 17.7788 19.3479H13.9861V12.8732H16.0748L16.19 12.3668L16.8224 9.61958L17.0072 8.82193H13.9861V7.59611C13.9861 7.24184 14.0991 6.65067 14.8555 6.65067H16.8376V2.45158H14.1839C11.1563 2.45158 9.34797 4.22511 9.34797 7.1962V8.82193H7.12672V12.8754H9.34797V19.3501H2.22126C1.80525 19.3495 1.40645 19.184 1.11229 18.8898C0.818124 18.5957 0.652614 18.1969 0.652039 17.7809V2.2212C0.652614 1.80519 0.818124 1.40638 1.11229 1.11222C1.40645 0.818053 1.80525 0.652553 2.22126 0.651978H17.7788C18.1948 0.652553 18.5936 0.818053 18.8877 1.11222C19.1819 1.40638 19.3474 1.80519 19.348 2.2212Z" fill="#E27023"/>
</svg>
