<svg width="30" height="30" viewBox="0 0 20 20" fill="none" xmlns="http://www.w3.org/2000/svg">
<path d="M12.4538 8.9838C12.2522 8.49891 11.9116 8.08454 11.4749 7.79289C11.0383 7.50124 10.5251 7.34535 10 7.34485C9.60686 7.34421 9.21849 7.43085 8.8629 7.59854C8.50732 7.76623 8.19339 8.01078 7.94377 8.31454C7.69416 8.61829 7.51508 8.97368 7.41947 9.35505C7.32385 9.73642 7.31408 10.1343 7.39087 10.5199C7.46765 10.9055 7.62907 11.2692 7.86348 11.5849C8.09789 11.9005 8.39944 12.1602 8.74637 12.3451C9.0933 12.5301 9.47695 12.6357 9.86965 12.6543C10.2623 12.673 10.6543 12.6042 11.0172 12.453C11.3428 12.3215 11.6385 12.1255 11.8865 11.877C12.258 11.5058 12.5109 11.0328 12.6135 10.5178C12.716 10.0028 12.6635 9.46893 12.4625 8.9838H12.4538ZM11.8518 10.7662C11.7508 11.0099 11.6032 11.2314 11.4171 11.4183C11.2306 11.6049 11.009 11.7527 10.7651 11.8531C10.4002 12.0025 9.99936 12.0409 9.61276 11.9636C9.22616 11.8862 8.87095 11.6966 8.59161 11.4183C8.21786 11.0431 8.00802 10.5351 8.00802 10.0054C8.00802 9.4758 8.21786 8.96775 8.59161 8.59254C8.96762 8.22033 9.4753 8.01154 10.0043 8.01154C10.5334 8.01154 11.0411 8.22033 11.4171 8.59254C11.6953 8.87191 11.885 9.22715 11.9623 9.6138C12.0396 10.0004 12.0012 10.4013 11.8518 10.7662ZM12.4538 8.9838C12.2522 8.49891 11.9116 8.08454 11.4749 7.79289C11.0383 7.50124 10.5251 7.34535 10 7.34485C9.60686 7.34421 9.21849 7.43085 8.8629 7.59854C8.50732 7.76623 8.19339 8.01078 7.94377 8.31454C7.69416 8.61829 7.51508 8.97368 7.41947 9.35505C7.32385 9.73642 7.31408 10.1343 7.39087 10.5199C7.46765 10.9055 7.62907 11.2692 7.86348 11.5849C8.09789 11.9005 8.39944 12.1602 8.74637 12.3451C9.0933 12.5301 9.47695 12.6357 9.86965 12.6543C10.2623 12.673 10.6543 12.6042 11.0172 12.453C11.3428 12.3215 11.6385 12.1255 11.8865 11.877C12.258 11.5058 12.5109 11.0328 12.6135 10.5178C12.716 10.0028 12.6635 9.46893 12.4625 8.9838H12.4538ZM11.8518 10.7662C11.7508 11.0099 11.6032 11.2314 11.4171 11.4183C11.2306 11.6049 11.009 11.7527 10.7651 11.8531C10.4002 12.0025 9.99936 12.0409 9.61276 11.9636C9.22616 11.8862 8.87095 11.6966 8.59161 11.4183C8.21786 11.0431 8.00802 10.5351 8.00802 10.0054C8.00802 9.4758 8.21786 8.96775 8.59161 8.59254C8.96762 8.22033 9.4753 8.01154 10.0043 8.01154C10.5334 8.01154 11.0411 8.22033 11.4171 8.59254C11.6953 8.87191 11.885 9.22715 11.9623 9.6138C12.0396 10.0004 12.0012 10.4013 11.8518 10.7662ZM15.89 6.5971C16.2197 6.26733 16.4049 5.82008 16.4049 5.35375C16.4049 4.88742 16.2197 4.44019 15.89 4.11042C15.5603 3.7807 15.1131 3.59547 14.6468 3.59547C14.1805 3.59547 13.7333 3.7807 13.4036 4.11042C13.0747 4.44069 12.8895 4.88758 12.8885 5.35375C12.8886 5.53303 12.9165 5.71121 12.9711 5.88197C12.1075 5.25534 11.067 4.91962 10 4.92337C9.33318 4.92308 8.67283 5.05423 8.05672 5.30931C7.4406 5.56439 6.88078 5.93839 6.40927 6.40996C5.93776 6.88152 5.56378 7.4414 5.30874 8.05758C5.05369 8.67377 4.92256 9.33418 4.92284 10.0011C4.92099 10.6679 5.05143 11.3284 5.30662 11.9444C5.5618 12.5604 5.93666 13.1197 6.40948 13.5898C7.36231 14.5426 8.65262 15.0808 10 15.0875C11.3464 15.0869 12.6374 14.5518 13.5895 13.5996C14.5415 12.6475 15.0766 11.3563 15.0772 10.0098C15.0743 8.94406 14.7385 7.90588 14.1165 7.04053C14.2883 7.09365 14.467 7.12076 14.6468 7.12095C14.8785 7.12087 15.1078 7.07449 15.3213 6.98453C15.5348 6.89457 15.7281 6.76285 15.89 6.5971ZM14.4251 10.0011C14.4266 11.0242 14.0734 12.0162 13.4256 12.8081C12.7779 13.6001 11.8757 14.143 10.8727 14.3443C9.86968 14.5457 8.82789 14.3931 7.92473 13.9126C7.02158 13.432 6.31292 12.6532 5.91945 11.7087C5.52598 10.7643 5.47203 9.71266 5.76679 8.73292C6.06155 7.75317 6.68678 6.90592 7.53602 6.33544C8.38525 5.76496 9.40596 5.50653 10.4243 5.60418C11.4427 5.70183 12.3957 6.14952 13.1211 6.87099C13.5335 7.28137 13.861 7.76907 14.0847 8.30617C14.3085 8.84327 14.4242 9.41922 14.4251 10.0011ZM13.8644 6.13628C13.7096 5.98155 13.6042 5.78437 13.5615 5.5697C13.5187 5.35503 13.5406 5.13252 13.6244 4.93031C13.7082 4.7281 13.85 4.55528 14.032 4.43371C14.214 4.31214 14.428 4.24729 14.6468 4.24736C14.7921 4.24736 14.936 4.27598 15.0702 4.33158C15.2044 4.38718 15.3263 4.46868 15.4291 4.57142C15.5318 4.67416 15.6133 4.79613 15.6689 4.93036C15.7245 5.0646 15.7531 5.20846 15.7531 5.35375C15.7531 5.49905 15.7245 5.64292 15.6689 5.77716C15.6133 5.91139 15.5318 6.03336 15.4291 6.1361C15.3263 6.23884 15.2044 6.32034 15.0702 6.37594C14.936 6.43154 14.7921 6.46016 14.6468 6.46016C14.3535 6.45954 14.0723 6.34315 13.8644 6.13628ZM11.8779 8.13172C11.3796 7.63396 10.7043 7.35411 10 7.35354C9.60686 7.3529 9.21849 7.43955 8.8629 7.60724C8.50732 7.77493 8.19339 8.01947 7.94377 8.32323C7.69416 8.62698 7.51508 8.98238 7.41947 9.36375C7.32385 9.74512 7.31408 10.143 7.39087 10.5286C7.46765 10.9142 7.62907 11.2779 7.86348 11.5936C8.09789 11.9092 8.39944 12.1689 8.74637 12.3538C9.0933 12.5387 9.47695 12.6444 9.86965 12.663C10.2623 12.6817 10.6543 12.6129 11.0172 12.4617C11.3428 12.3302 11.6385 12.1342 11.8865 11.8857C12.1333 11.6393 12.3291 11.3468 12.4627 11.0247C12.5962 10.7026 12.665 10.3574 12.665 10.0087C12.665 9.66001 12.5962 9.31475 12.4627 8.99267C12.3291 8.6706 12.1333 8.37803 11.8865 8.13172H11.8779ZM11.8518 10.7749C11.7508 11.0186 11.6032 11.2401 11.4171 11.427C11.2306 11.6136 11.009 11.7614 10.7651 11.8617C10.4002 12.0111 9.99936 12.0496 9.61276 11.9723C9.22616 11.8949 8.87095 11.7053 8.59161 11.427C8.21786 11.0518 8.00802 10.5437 8.00802 10.0141C8.00802 9.48449 8.21786 8.97644 8.59161 8.60123C8.96762 8.22902 9.4753 8.02025 10.0043 8.02025C10.5334 8.02025 11.0411 8.22902 11.4171 8.60123C11.6953 8.8806 11.885 9.23585 11.9623 9.6225C12.0396 10.0091 12.0012 10.41 11.8518 10.7749ZM15.89 6.60579C16.2197 6.27602 16.4049 5.82879 16.4049 5.36246C16.4049 4.89612 16.2197 4.44888 15.89 4.11911C15.5603 3.78939 15.1131 3.60416 14.6468 3.60416C14.1805 3.60416 13.7333 3.78939 13.4036 4.11911C13.0747 4.44938 12.8895 4.89628 12.8885 5.36246C12.8886 5.54173 12.9165 5.7199 12.9711 5.89066C12.1075 5.26403 11.067 4.92832 10 4.93207C9.33318 4.93179 8.67283 5.06292 8.05672 5.318C7.4406 5.57308 6.88078 5.9471 6.40927 6.41866C5.93776 6.89023 5.56378 7.4501 5.30874 8.06628C5.05369 8.68247 4.92256 9.34288 4.92284 10.0098C4.92099 10.6766 5.05143 11.3371 5.30662 11.9531C5.5618 12.5691 5.93666 13.1284 6.40948 13.5985C7.36373 14.5481 8.65386 15.0831 10 15.0875C11.3464 15.0869 12.6374 14.5518 13.5895 13.5996C14.5415 12.6475 15.0766 11.3563 15.0772 10.0098C15.0743 8.94406 14.7385 7.90588 14.1165 7.04053C14.2883 7.09365 14.467 7.12076 14.6468 7.12095C14.8785 7.12087 15.1078 7.07449 15.3213 6.98453C15.5348 6.89457 15.7281 6.76285 15.89 6.5971V6.60579ZM14.4251 10.0098C14.4266 11.0329 14.0734 12.0249 13.4256 12.8168C12.7779 13.6088 11.8757 14.1516 10.8727 14.353C9.86968 14.5544 8.82789 14.4018 7.92473 13.9212C7.02158 13.4407 6.31292 12.6619 5.91945 11.7174C5.52598 10.773 5.47203 9.72136 5.76679 8.74162C6.06155 7.76187 6.68678 6.91461 7.53602 6.34413C8.38525 5.77365 9.40596 5.51522 10.4243 5.61287C11.4427 5.71052 12.3957 6.15821 13.1211 6.87968C13.9519 7.70638 14.4209 8.82895 14.4251 10.0011V10.0098ZM13.8644 6.14497C13.7096 5.99024 13.6042 5.79307 13.5615 5.5784C13.5187 5.36374 13.5406 5.14121 13.6244 4.939C13.7082 4.73679 13.85 4.56397 14.032 4.4424C14.214 4.32083 14.428 4.25598 14.6468 4.25605C14.9402 4.25605 15.2216 4.37262 15.4291 4.58011C15.6365 4.7876 15.7531 5.06902 15.7531 5.36246C15.7531 5.65589 15.6365 5.93731 15.4291 6.1448C15.2216 6.35229 14.9402 6.46885 14.6468 6.46885C14.3523 6.46593 14.0709 6.34634 13.8644 6.13628V6.14497ZM11.8779 8.13172C11.3796 7.63396 10.7043 7.35411 10 7.35354C9.60686 7.3529 9.21849 7.43955 8.8629 7.60724C8.50732 7.77493 8.19339 8.01947 7.94377 8.32323C7.69416 8.62698 7.51508 8.98238 7.41947 9.36375C7.32385 9.74512 7.31408 10.143 7.39087 10.5286C7.46765 10.9142 7.62907 11.2779 7.86348 11.5936C8.09789 11.9092 8.39944 12.1689 8.74637 12.3538C9.0933 12.5387 9.47695 12.6444 9.86965 12.663C10.2623 12.6817 10.6543 12.6129 11.0172 12.4617C11.3428 12.3302 11.6385 12.1342 11.8865 11.8857C12.1333 11.6393 12.3291 11.3468 12.4627 11.0247C12.5962 10.7026 12.665 10.3574 12.665 10.0087C12.665 9.66001 12.5962 9.31475 12.4627 8.99267C12.3291 8.6706 12.1333 8.37803 11.8865 8.13172H11.8779ZM11.8518 10.7749C11.7508 11.0186 11.6032 11.2401 11.4171 11.427C11.2306 11.6136 11.009 11.7614 10.7651 11.8617C10.4002 12.0111 9.99936 12.0496 9.61276 11.9723C9.22616 11.8949 8.87095 11.7053 8.59161 11.427C8.21786 11.0518 8.00802 10.5437 8.00802 10.0141C8.00802 9.48449 8.21786 8.97644 8.59161 8.60123C8.96762 8.22902 9.4753 8.02025 10.0043 8.02025C10.5334 8.02025 11.0411 8.22902 11.4171 8.60123C11.6953 8.8806 11.885 9.23585 11.9623 9.6225C12.0396 10.0091 12.0012 10.41 11.8518 10.7749ZM15.6792 0.00868993H4.3208C3.17636 0.00868761 2.07866 0.462761 1.2686 1.27128C0.458544 2.07979 0.0023027 3.17669 0 4.32126V15.6809C0.000576243 16.8266 0.456056 17.9252 1.2663 18.7351C2.07654 19.545 3.17523 20 4.3208 20H15.6792C16.8248 20 17.9235 19.545 18.7337 18.7351C19.5439 17.9252 19.9994 16.8266 20 15.6809V4.32126C19.9994 3.17536 19.544 2.07657 18.7338 1.2663C17.9236 0.456032 16.825 0.000575972 15.6792 0V0.00868993ZM19.348 15.6896C19.3462 16.662 18.9591 17.594 18.2714 18.2814C17.5837 18.9688 16.6515 19.3554 15.6792 19.3566H4.3208C3.83854 19.3563 3.36107 19.261 2.91565 19.0761C2.47024 18.8912 2.06562 18.6203 1.72492 18.279C1.38421 17.9376 1.1141 17.5325 0.930008 17.0867C0.745918 16.6409 0.651461 16.1632 0.652032 15.6809V4.32126C0.653183 3.34849 1.04008 2.41589 1.72786 1.72804C2.41564 1.04018 3.34813 0.653253 4.3208 0.652103H15.6792C16.6519 0.653253 17.5844 1.04018 18.2721 1.72804C18.9599 2.41589 19.3468 3.34849 19.348 4.32126V15.6896ZM14.6468 3.60416C14.4158 3.60311 14.1868 3.64791 13.9734 3.73636C13.7599 3.82482 13.5662 3.95493 13.4036 4.11911C13.0747 4.44938 12.8895 4.89628 12.8885 5.36246C12.8886 5.54173 12.9165 5.7199 12.9711 5.89066C12.1075 5.26403 11.067 4.92832 10 4.93207C9.33318 4.93179 8.67283 5.06292 8.05672 5.318C7.4406 5.57308 6.88078 5.9471 6.40927 6.41866C5.93776 6.89023 5.56378 7.4501 5.30874 8.06628C5.05369 8.68247 4.92256 9.34288 4.92284 10.0098C4.92099 10.6766 5.05143 11.3371 5.30662 11.9531C5.5618 12.5691 5.93666 13.1284 6.40948 13.5985C7.36373 14.5481 8.65386 15.0831 10 15.0875C11.3464 15.0869 12.6374 14.5518 13.5895 13.5996C14.5415 12.6475 15.0766 11.3563 15.0772 10.0098C15.0743 8.94406 14.7385 7.90588 14.1165 7.04053C14.2883 7.09365 14.467 7.12076 14.6468 7.12095C14.8779 7.122 15.1068 7.07699 15.3203 6.98853C15.5337 6.90008 15.7274 6.76997 15.89 6.60579C16.2197 6.27602 16.4049 5.82879 16.4049 5.36246C16.4049 4.89612 16.2197 4.44888 15.89 4.11911C15.7281 3.95336 15.5348 3.82164 15.3213 3.73168C15.1078 3.64172 14.8785 3.59555 14.6468 3.59547V3.60416ZM14.4295 10.0098C14.4309 11.0329 14.0777 12.0249 13.43 12.8168C12.7823 13.6088 11.8801 14.1516 10.877 14.353C9.87403 14.5544 8.83223 14.4018 7.92908 13.9212C7.02593 13.4407 6.31727 12.6619 5.9238 11.7174C5.53033 10.773 5.47638 9.72136 5.77114 8.74162C6.06589 7.76187 6.69113 6.91461 7.54037 6.34413C8.3896 5.77365 9.41031 5.51522 10.4287 5.61287C11.447 5.71052 12.4 6.15821 13.1254 6.87968C13.9547 7.70709 14.422 8.82958 14.4251 10.0011L14.4295 10.0098ZM15.4336 6.14497C15.2527 6.32601 15.0146 6.43871 14.7599 6.46386C14.5052 6.48901 14.2496 6.42507 14.0368 6.28291C13.8239 6.14076 13.667 5.92919 13.5926 5.68426C13.5182 5.43934 13.5311 5.17621 13.629 4.9397C13.7269 4.70319 13.9037 4.50793 14.1294 4.38721C14.3551 4.26648 14.6156 4.22775 14.8667 4.27761C15.1177 4.32747 15.3437 4.46284 15.5061 4.66065C15.6685 4.85847 15.7574 5.10649 15.7574 5.36246C15.7539 5.65348 15.636 5.93143 15.4293 6.13628L15.4336 6.14497ZM11.8779 8.13172C11.3796 7.63396 10.7043 7.35411 10 7.35354C9.60686 7.3529 9.21849 7.43955 8.8629 7.60724C8.50732 7.77493 8.19339 8.01947 7.94377 8.32323C7.69416 8.62698 7.51508 8.98238 7.41947 9.36375C7.32385 9.74512 7.31408 10.143 7.39087 10.5286C7.46765 10.9142 7.62907 11.2779 7.86348 11.5936C8.09789 11.9092 8.39944 12.1689 8.74637 12.3538C9.0933 12.5387 9.47695 12.6444 9.86965 12.663C10.2623 12.6817 10.6543 12.6129 11.0172 12.4617C11.3428 12.3302 11.6385 12.1342 11.8865 11.8857C12.1333 11.6393 12.3291 11.3468 12.4627 11.0247C12.5962 10.7026 12.665 10.3574 12.665 10.0087C12.665 9.66001 12.5962 9.31475 12.4627 8.99267C12.3291 8.6706 12.1333 8.37803 11.8865 8.13172H11.8779ZM11.8518 10.7749C11.7508 11.0186 11.6032 11.2401 11.4171 11.427C11.2306 11.6136 11.009 11.7614 10.7651 11.8617C10.4002 12.0111 9.99936 12.0496 9.61276 11.9723C9.22616 11.8949 8.87095 11.7053 8.59161 11.427C8.21786 11.0518 8.00802 10.5437 8.00802 10.0141C8.00802 9.48449 8.21786 8.97644 8.59161 8.60123C8.96762 8.22902 9.4753 8.02025 10.0043 8.02025C10.5334 8.02025 11.0411 8.22902 11.4171 8.60123C11.6953 8.8806 11.885 9.23585 11.9623 9.6225C12.0396 10.0091 12.0012 10.41 11.8518 10.7749ZM12.4538 8.9925C12.2522 8.50761 11.9116 8.09325 11.4749 7.80159C11.0383 7.50994 10.5251 7.35404 10 7.35354C9.60686 7.3529 9.21849 7.43955 8.8629 7.60724C8.50732 7.77493 8.19339 8.01947 7.94377 8.32323C7.69416 8.62698 7.51508 8.98238 7.41947 9.36375C7.32385 9.74512 7.31408 10.143 7.39087 10.5286C7.46765 10.9142 7.62907 11.2779 7.86348 11.5936C8.09789 11.9092 8.39944 12.1689 8.74637 12.3538C9.0933 12.5387 9.47695 12.6444 9.86965 12.663C10.2623 12.6817 10.6543 12.6129 11.0172 12.4617C11.3428 12.3302 11.6385 12.1342 11.8865 11.8857C12.258 11.5145 12.5109 11.0415 12.6135 10.5265C12.716 10.0115 12.6635 9.47763 12.4625 8.9925H12.4538ZM11.8518 10.7749C11.7508 11.0186 11.6032 11.2401 11.4171 11.427C11.2306 11.6136 11.009 11.7614 10.7651 11.8617C10.4002 12.0111 9.99936 12.0496 9.61276 11.9723C9.22616 11.8949 8.87095 11.7053 8.59161 11.427C8.21786 11.0518 8.00802 10.5437 8.00802 10.0141C8.00802 9.48449 8.21786 8.97644 8.59161 8.60123C8.96762 8.22902 9.4753 8.02025 10.0043 8.02025C10.5334 8.02025 11.0411 8.22902 11.4171 8.60123C11.6953 8.8806 11.885 9.23585 11.9623 9.6225C12.0396 10.0091 12.0012 10.41 11.8518 10.7749ZM12.4538 8.9925C12.2522 8.50761 11.9116 8.09325 11.4749 7.80159C11.0383 7.50994 10.5251 7.35404 10 7.35354C9.60686 7.3529 9.21849 7.43955 8.8629 7.60724C8.50732 7.77493 8.19339 8.01947 7.94377 8.32323C7.69416 8.62698 7.51508 8.98238 7.41947 9.36375C7.32385 9.74512 7.31408 10.143 7.39087 10.5286C7.46765 10.9142 7.62907 11.2779 7.86348 11.5936C8.09789 11.9092 8.39944 12.1689 8.74637 12.3538C9.0933 12.5387 9.47695 12.6444 9.86965 12.663C10.2623 12.6817 10.6543 12.6129 11.0172 12.4617C11.3428 12.3302 11.6385 12.1342 11.8865 11.8857C12.258 11.5145 12.5109 11.0415 12.6135 10.5265C12.716 10.0115 12.6635 9.47763 12.4625 8.9925H12.4538ZM11.8518 10.7749C11.7508 11.0186 11.6032 11.2401 11.4171 11.427C11.2306 11.6136 11.009 11.7614 10.7651 11.8617C10.4002 12.0111 9.99936 12.0496 9.61276 11.9723C9.22616 11.8949 8.87095 11.7053 8.59161 11.427C8.21786 11.0518 8.00802 10.5437 8.00802 10.0141C8.00802 9.48449 8.21786 8.97644 8.59161 8.60123C8.96762 8.22902 9.4753 8.02025 10.0043 8.02025C10.5334 8.02025 11.0411 8.22902 11.4171 8.60123C11.6953 8.8806 11.885 9.23585 11.9623 9.6225C12.0396 10.0091 12.0012 10.41 11.8518 10.7749Z" fill="#E27023"/>
<path d="M12.4538 8.9838C12.2522 8.49891 11.9116 8.08454 11.4749 7.79289C11.0383 7.50124 10.5251 7.34535 10 7.34485C9.60686 7.34421 9.21849 7.43085 8.8629 7.59854C8.50732 7.76623 8.19339 8.01078 7.94377 8.31454C7.69416 8.61829 7.51508 8.97368 7.41947 9.35505C7.32385 9.73642 7.31408 10.1343 7.39087 10.5199C7.46765 10.9055 7.62907 11.2692 7.86348 11.5849C8.09789 11.9005 8.39944 12.1602 8.74637 12.3451C9.0933 12.5301 9.47695 12.6357 9.86965 12.6543C10.2623 12.673 10.6543 12.6042 11.0172 12.453C11.3428 12.3215 11.6385 12.1255 11.8865 11.877C12.258 11.5058 12.5109 11.0328 12.6135 10.5178C12.716 10.0028 12.6635 9.46893 12.4625 8.9838H12.4538ZM11.8518 10.7662C11.7508 11.0099 11.6032 11.2314 11.4171 11.4183C11.2306 11.6049 11.009 11.7527 10.7651 11.8531C10.4002 12.0025 9.99936 12.0409 9.61276 11.9636C9.22616 11.8862 8.87095 11.6966 8.59161 11.4183C8.21786 11.0431 8.00802 10.5351 8.00802 10.0054C8.00802 9.4758 8.21786 8.96775 8.59161 8.59254C8.96762 8.22033 9.4753 8.01154 10.0043 8.01154C10.5334 8.01154 11.0411 8.22033 11.4171 8.59254C11.6953 8.87191 11.885 9.22715 11.9623 9.6138C12.0396 10.0004 12.0012 10.4013 11.8518 10.7662ZM12.4538 8.9838C12.2522 8.49891 11.9116 8.08454 11.4749 7.79289C11.0383 7.50124 10.5251 7.34535 10 7.34485C9.60686 7.34421 9.21849 7.43085 8.8629 7.59854C8.50732 7.76623 8.19339 8.01078 7.94377 8.31454C7.69416 8.61829 7.51508 8.97368 7.41947 9.35505C7.32385 9.73642 7.31408 10.1343 7.39087 10.5199C7.46765 10.9055 7.62907 11.2692 7.86348 11.5849C8.09789 11.9005 8.39944 12.1602 8.74637 12.3451C9.0933 12.5301 9.47695 12.6357 9.86965 12.6543C10.2623 12.673 10.6543 12.6042 11.0172 12.453C11.3428 12.3215 11.6385 12.1255 11.8865 11.877C12.258 11.5058 12.5109 11.0328 12.6135 10.5178C12.716 10.0028 12.6635 9.46893 12.4625 8.9838H12.4538ZM11.8518 10.7662C11.7508 11.0099 11.6032 11.2314 11.4171 11.4183C11.2306 11.6049 11.009 11.7527 10.7651 11.8531C10.4002 12.0025 9.99936 12.0409 9.61276 11.9636C9.22616 11.8862 8.87095 11.6966 8.59161 11.4183C8.21786 11.0431 8.00802 10.5351 8.00802 10.0054C8.00802 9.4758 8.21786 8.96775 8.59161 8.59254C8.96762 8.22033 9.4753 8.01154 10.0043 8.01154C10.5334 8.01154 11.0411 8.22033 11.4171 8.59254C11.6953 8.87191 11.885 9.22715 11.9623 9.6138C12.0396 10.0004 12.0012 10.4013 11.8518 10.7662ZM15.89 6.5971C16.2197 6.26733 16.4049 5.82008 16.4049 5.35375C16.4049 4.88742 16.2197 4.44019 15.89 4.11042C15.5603 3.7807 15.1131 3.59547 14.6468 3.59547C14.1805 3.59547 13.7333 3.7807 13.4036 4.11042C13.0747 4.44069 12.8895 4.88758 12.8885 5.35375C12.8886 5.53303 12.9165 5.71121 12.9711 5.88197C12.1075 5.25534 11.067 4.91962 10 4.92337C9.33318 4.92308 8.67283 5.05423 8.05672 5.30931C7.4406 5.56439 6.88078 5.93839 6.40927 6.40996C5.93776 6.88152 5.56378 7.4414 5.30874 8.05758C5.05369 8.67377 4.92256 9.33418 4.92284 10.0011C4.92099 10.6679 5.05143 11.3284 5.30662 11.9444C5.5618 12.5604 5.93666 13.1197 6.40948 13.5898C7.36231 14.5426 8.65262 15.0808 10 15.0875C11.3464 15.0869 12.6374 14.5518 13.5895 13.5996C14.5415 12.6475 15.0766 11.3563 15.0772 10.0098C15.0743 8.94406 14.7385 7.90588 14.1165 7.04053C14.2883 7.09365 14.467 7.12076 14.6468 7.12095C14.8785 7.12087 15.1078 7.07449 15.3213 6.98453C15.5348 6.89457 15.7281 6.76285 15.89 6.5971ZM14.4251 10.0011C14.4266 11.0242 14.0734 12.0162 13.4256 12.8081C12.7779 13.6001 11.8757 14.143 10.8727 14.3443C9.86968 14.5457 8.82789 14.3931 7.92473 13.9126C7.02158 13.432 6.31292 12.6532 5.91945 11.7087C5.52598 10.7643 5.47203 9.71266 5.76679 8.73292C6.06155 7.75317 6.68678 6.90592 7.53602 6.33544C8.38525 5.76496 9.40596 5.50653 10.4243 5.60418C11.4427 5.70183 12.3957 6.14952 13.1211 6.87099C13.5335 7.28137 13.861 7.76907 14.0847 8.30617C14.3085 8.84327 14.4242 9.41922 14.4251 10.0011ZM13.8644 6.13628C13.7096 5.98155 13.6042 5.78437 13.5615 5.5697C13.5187 5.35503 13.5406 5.13252 13.6244 4.93031C13.7082 4.7281 13.85 4.55528 14.032 4.43371C14.214 4.31214 14.428 4.24729 14.6468 4.24736C14.7921 4.24736 14.936 4.27598 15.0702 4.33158C15.2044 4.38718 15.3263 4.46868 15.4291 4.57142C15.5318 4.67416 15.6133 4.79613 15.6689 4.93036C15.7245 5.0646 15.7531 5.20846 15.7531 5.35375C15.7531 5.49905 15.7245 5.64292 15.6689 5.77716C15.6133 5.91139 15.5318 6.03336 15.4291 6.1361C15.3263 6.23884 15.2044 6.32034 15.0702 6.37594C14.936 6.43154 14.7921 6.46016 14.6468 6.46016C14.3535 6.45954 14.0723 6.34315 13.8644 6.13628ZM11.8779 8.13172C11.3796 7.63396 10.7043 7.35411 10 7.35354C9.60686 7.3529 9.21849 7.43955 8.8629 7.60724C8.50732 7.77493 8.19339 8.01947 7.94377 8.32323C7.69416 8.62698 7.51508 8.98238 7.41947 9.36375C7.32385 9.74512 7.31408 10.143 7.39087 10.5286C7.46765 10.9142 7.62907 11.2779 7.86348 11.5936C8.09789 11.9092 8.39944 12.1689 8.74637 12.3538C9.0933 12.5387 9.47695 12.6444 9.86965 12.663C10.2623 12.6817 10.6543 12.6129 11.0172 12.4617C11.3428 12.3302 11.6385 12.1342 11.8865 11.8857C12.1333 11.6393 12.3291 11.3468 12.4627 11.0247C12.5962 10.7026 12.665 10.3574 12.665 10.0087C12.665 9.66001 12.5962 9.31475 12.4627 8.99267C12.3291 8.6706 12.1333 8.37803 11.8865 8.13172H11.8779ZM11.8518 10.7749C11.7508 11.0186 11.6032 11.2401 11.4171 11.427C11.2306 11.6136 11.009 11.7614 10.7651 11.8617C10.4002 12.0111 9.99936 12.0496 9.61276 11.9723C9.22616 11.8949 8.87095 11.7053 8.59161 11.427C8.21786 11.0518 8.00802 10.5437 8.00802 10.0141C8.00802 9.48449 8.21786 8.97644 8.59161 8.60123C8.96762 8.22902 9.4753 8.02025 10.0043 8.02025C10.5334 8.02025 11.0411 8.22902 11.4171 8.60123C11.6953 8.8806 11.885 9.23585 11.9623 9.6225C12.0396 10.0091 12.0012 10.41 11.8518 10.7749ZM12.4538 8.9925C12.2522 8.50761 11.9116 8.09325 11.4749 7.80159C11.0383 7.50994 10.5251 7.35404 10 7.35354C9.60686 7.3529 9.21849 7.43955 8.8629 7.60724C8.50732 7.77493 8.19339 8.01947 7.94377 8.32323C7.69416 8.62698 7.51508 8.98238 7.41947 9.36375C7.32385 9.74512 7.31408 10.143 7.39087 10.5286C7.46765 10.9142 7.62907 11.2779 7.86348 11.5936C8.09789 11.9092 8.39944 12.1689 8.74637 12.3538C9.0933 12.5387 9.47695 12.6444 9.86965 12.663C10.2623 12.6817 10.6543 12.6129 11.0172 12.4617C11.3428 12.3302 11.6385 12.1342 11.8865 11.8857C12.258 11.5145 12.5109 11.0415 12.6135 10.5265C12.716 10.0115 12.6635 9.47763 12.4625 8.9925H12.4538ZM11.8518 10.7749C11.7508 11.0186 11.6032 11.2401 11.4171 11.427C11.2306 11.6136 11.009 11.7614 10.7651 11.8617C10.4002 12.0111 9.99936 12.0496 9.61276 11.9723C9.22616 11.8949 8.87095 11.7053 8.59161 11.427C8.21786 11.0518 8.00802 10.5437 8.00802 10.0141C8.00802 9.48449 8.21786 8.97644 8.59161 8.60123C8.96762 8.22902 9.4753 8.02025 10.0043 8.02025C10.5334 8.02025 11.0411 8.22902 11.4171 8.60123C11.6953 8.8806 11.885 9.23585 11.9623 9.6225C12.0396 10.0091 12.0012 10.41 11.8518 10.7749ZM12.4538 8.9925C12.2522 8.50761 11.9116 8.09325 11.4749 7.80159C11.0383 7.50994 10.5251 7.35404 10 7.35354C9.60686 7.3529 9.21849 7.43955 8.8629 7.60724C8.50732 7.77493 8.19339 8.01947 7.94377 8.32323C7.69416 8.62698 7.51508 8.98238 7.41947 9.36375C7.32385 9.74512 7.31408 10.143 7.39087 10.5286C7.46765 10.9142 7.62907 11.2779 7.86348 11.5936C8.09789 11.9092 8.39944 12.1689 8.74637 12.3538C9.0933 12.5387 9.47695 12.6444 9.86965 12.663C10.2623 12.6817 10.6543 12.6129 11.0172 12.4617C11.3428 12.3302 11.6385 12.1342 11.8865 11.8857C12.258 11.5145 12.5109 11.0415 12.6135 10.5265C12.716 10.0115 12.6635 9.47763 12.4625 8.9925H12.4538ZM11.8518 10.7749C11.7508 11.0186 11.6032 11.2401 11.4171 11.427C11.2306 11.6136 11.009 11.7614 10.7651 11.8617C10.4002 12.0111 9.99936 12.0496 9.61276 11.9723C9.22616 11.8949 8.87095 11.7053 8.59161 11.427C8.21786 11.0518 8.00802 10.5437 8.00802 10.0141C8.00802 9.48449 8.21786 8.97644 8.59161 8.60123C8.96762 8.22902 9.4753 8.02025 10.0043 8.02025C10.5334 8.02025 11.0411 8.22902 11.4171 8.60123C11.6953 8.8806 11.885 9.23585 11.9623 9.6225C12.0396 10.0091 12.0012 10.41 11.8518 10.7749ZM15.89 6.60579C16.2197 6.27602 16.4049 5.82879 16.4049 5.36246C16.4049 4.89612 16.2197 4.44888 15.89 4.11911C15.5603 3.78939 15.1131 3.60416 14.6468 3.60416C14.1805 3.60416 13.7333 3.78939 13.4036 4.11911C13.0747 4.44938 12.8895 4.89628 12.8885 5.36246C12.8886 5.54173 12.9165 5.7199 12.9711 5.89066C12.1075 5.26403 11.067 4.92832 10 4.93207C9.33318 4.93179 8.67283 5.06292 8.05672 5.318C7.4406 5.57308 6.88078 5.9471 6.40927 6.41866C5.93776 6.89023 5.56378 7.4501 5.30874 8.06628C5.05369 8.68247 4.92256 9.34288 4.92284 10.0098C4.92099 10.6766 5.05143 11.3371 5.30662 11.9531C5.5618 12.5691 5.93666 13.1284 6.40948 13.5985C7.36373 14.5481 8.65386 15.0831 10 15.0875C11.3464 15.0869 12.6374 14.5518 13.5895 13.5996C14.5415 12.6475 15.0766 11.3563 15.0772 10.0098C15.0743 8.94406 14.7385 7.90588 14.1165 7.04053C14.2883 7.09365 14.467 7.12076 14.6468 7.12095C14.8785 7.12087 15.1078 7.07449 15.3213 6.98453C15.5348 6.89457 15.7281 6.76285 15.89 6.5971V6.60579ZM14.4251 10.0098C14.4266 11.0329 14.0734 12.0249 13.4256 12.8168C12.7779 13.6088 11.8757 14.1516 10.8727 14.353C9.86968 14.5544 8.82789 14.4018 7.92473 13.9212C7.02158 13.4407 6.31292 12.6619 5.91945 11.7174C5.52598 10.773 5.47203 9.72136 5.76679 8.74162C6.06155 7.76187 6.68678 6.91461 7.53602 6.34413C8.38525 5.77365 9.40596 5.51522 10.4243 5.61287C11.4427 5.71052 12.3957 6.15821 13.1211 6.87968C13.9519 7.70638 14.4209 8.82895 14.4251 10.0011V10.0098ZM13.8644 6.14497C13.7096 5.99024 13.6042 5.79307 13.5615 5.5784C13.5187 5.36374 13.5406 5.14121 13.6244 4.939C13.7082 4.73679 13.85 4.56397 14.032 4.4424C14.214 4.32083 14.428 4.25598 14.6468 4.25605C14.9402 4.25605 15.2216 4.37262 15.4291 4.58011C15.6365 4.7876 15.7531 5.06902 15.7531 5.36246C15.7531 5.65589 15.6365 5.93731 15.4291 6.1448C15.2216 6.35229 14.9402 6.46885 14.6468 6.46885C14.3523 6.46593 14.0709 6.34634 13.8644 6.13628V6.14497ZM11.8779 8.13172C11.3796 7.63396 10.7043 7.35411 10 7.35354C9.60686 7.3529 9.21849 7.43955 8.8629 7.60724C8.50732 7.77493 8.19339 8.01947 7.94377 8.32323C7.69416 8.62698 7.51508 8.98238 7.41947 9.36375C7.32385 9.74512 7.31408 10.143 7.39087 10.5286C7.46765 10.9142 7.62907 11.2779 7.86348 11.5936C8.09789 11.9092 8.39944 12.1689 8.74637 12.3538C9.0933 12.5387 9.47695 12.6444 9.86965 12.663C10.2623 12.6817 10.6543 12.6129 11.0172 12.4617C11.3428 12.3302 11.6385 12.1342 11.8865 11.8857C12.1333 11.6393 12.3291 11.3468 12.4627 11.0247C12.5962 10.7026 12.665 10.3574 12.665 10.0087C12.665 9.66001 12.5962 9.31475 12.4627 8.99267C12.3291 8.6706 12.1333 8.37803 11.8865 8.13172H11.8779ZM11.8518 10.7749C11.7508 11.0186 11.6032 11.2401 11.4171 11.427C11.2306 11.6136 11.009 11.7614 10.7651 11.8617C10.4002 12.0111 9.99936 12.0496 9.61276 11.9723C9.22616 11.8949 8.87095 11.7053 8.59161 11.427C8.21786 11.0518 8.00802 10.5437 8.00802 10.0141C8.00802 9.48449 8.21786 8.97644 8.59161 8.60123C8.96762 8.22902 9.4753 8.02025 10.0043 8.02025C10.5334 8.02025 11.0411 8.22902 11.4171 8.60123C11.6953 8.8806 11.885 9.23585 11.9623 9.6225C12.0396 10.0091 12.0012 10.41 11.8518 10.7749ZM12.4538 8.9925C12.2522 8.50761 11.9116 8.09325 11.4749 7.80159C11.0383 7.50994 10.5251 7.35404 10 7.35354C9.60686 7.3529 9.21849 7.43955 8.8629 7.60724C8.50732 7.77493 8.19339 8.01947 7.94377 8.32323C7.69416 8.62698 7.51508 8.98238 7.41947 9.36375C7.32385 9.74512 7.31408 10.143 7.39087 10.5286C7.46765 10.9142 7.62907 11.2779 7.86348 11.5936C8.09789 11.9092 8.39944 12.1689 8.74637 12.3538C9.0933 12.5387 9.47695 12.6444 9.86965 12.663C10.2623 12.6817 10.6543 12.6129 11.0172 12.4617C11.3428 12.3302 11.6385 12.1342 11.8865 11.8857C12.258 11.5145 12.5109 11.0415 12.6135 10.5265C12.716 10.0115 12.6635 9.47763 12.4625 8.9925H12.4538ZM11.8518 10.7749C11.7508 11.0186 11.6032 11.2401 11.4171 11.427C11.2306 11.6136 11.009 11.7614 10.7651 11.8617C10.4002 12.0111 9.99936 12.0496 9.61276 11.9723C9.22616 11.8949 8.87095 11.7053 8.59161 11.427C8.21786 11.0518 8.00802 10.5437 8.00802 10.0141C8.00802 9.48449 8.21786 8.97644 8.59161 8.60123C8.96762 8.22902 9.4753 8.02025 10.0043 8.02025C10.5334 8.02025 11.0411 8.22902 11.4171 8.60123C11.6953 8.8806 11.885 9.23585 11.9623 9.6225C12.0396 10.0091 12.0012 10.41 11.8518 10.7749ZM12.4538 8.9925C12.2522 8.50761 11.9116 8.09325 11.4749 7.80159C11.0383 7.50994 10.5251 7.35404 10 7.35354C9.60686 7.3529 9.21849 7.43955 8.8629 7.60724C8.50732 7.77493 8.19339 8.01947 7.94377 8.32323C7.69416 8.62698 7.51508 8.98238 7.41947 9.36375C7.32385 9.74512 7.31408 10.143 7.39087 10.5286C7.46765 10.9142 7.62907 11.2779 7.86348 11.5936C8.09789 11.9092 8.39944 12.1689 8.74637 12.3538C9.0933 12.5387 9.47695 12.6444 9.86965 12.663C10.2623 12.6817 10.6543 12.6129 11.0172 12.4617C11.3428 12.3302 11.6385 12.1342 11.8865 11.8857C12.258 11.5145 12.5109 11.0415 12.6135 10.5265C12.716 10.0115 12.6635 9.47763 12.4625 8.9925H12.4538ZM11.8518 10.7749C11.7508 11.0186 11.6032 11.2401 11.4171 11.427C11.2306 11.6136 11.009 11.7614 10.7651 11.8617C10.4002 12.0111 9.99936 12.0496 9.61276 11.9723C9.22616 11.8949 8.87095 11.7053 8.59161 11.427C8.21786 11.0518 8.00802 10.5437 8.00802 10.0141C8.00802 9.48449 8.21786 8.97644 8.59161 8.60123C8.96762 8.22902 9.4753 8.02025 10.0043 8.02025C10.5334 8.02025 11.0411 8.22902 11.4171 8.60123C11.6953 8.8806 11.885 9.23585 11.9623 9.6225C12.0396 10.0091 12.0012 10.41 11.8518 10.7749ZM15.89 6.60579C16.2197 6.27602 16.4049 5.82879 16.4049 5.36246C16.4049 4.89612 16.2197 4.44888 15.89 4.11911C15.5603 3.78939 15.1131 3.60416 14.6468 3.60416C14.1805 3.60416 13.7333 3.78939 13.4036 4.11911C13.0747 4.44938 12.8895 4.89628 12.8885 5.36246C12.8886 5.54173 12.9165 5.7199 12.9711 5.89066C12.1075 5.26403 11.067 4.92832 10 4.93207C9.33318 4.93179 8.67283 5.06292 8.05672 5.318C7.4406 5.57308 6.88078 5.9471 6.40927 6.41866C5.93776 6.89023 5.56378 7.4501 5.30874 8.06628C5.05369 8.68247 4.92256 9.34288 4.92284 10.0098C4.92099 10.6766 5.05143 11.3371 5.30662 11.9531C5.5618 12.5691 5.93666 13.1284 6.40948 13.5985C7.36373 14.5481 8.65386 15.0831 10 15.0875C11.3464 15.0869 12.6374 14.5518 13.5895 13.5996C14.5415 12.6475 15.0766 11.3563 15.0772 10.0098C15.0743 8.94406 14.7385 7.90588 14.1165 7.04053C14.2883 7.09365 14.467 7.12076 14.6468 7.12095C14.8785 7.12087 15.1078 7.07449 15.3213 6.98453C15.5348 6.89457 15.7281 6.76285 15.89 6.5971V6.60579ZM14.4251 10.0098C14.4266 11.0329 14.0734 12.0249 13.4256 12.8168C12.7779 13.6088 11.8757 14.1516 10.8727 14.353C9.86968 14.5544 8.82789 14.4018 7.92473 13.9212C7.02158 13.4407 6.31292 12.6619 5.91945 11.7174C5.52598 10.773 5.47203 9.72136 5.76679 8.74162C6.06155 7.76187 6.68678 6.91461 7.53602 6.34413C8.38525 5.77365 9.40596 5.51522 10.4243 5.61287C11.4427 5.71052 12.3957 6.15821 13.1211 6.87968C13.9519 7.70638 14.4209 8.82895 14.4251 10.0011V10.0098ZM13.8644 6.14497C13.7096 5.99024 13.6042 5.79307 13.5615 5.5784C13.5187 5.36374 13.5406 5.14121 13.6244 4.939C13.7082 4.73679 13.85 4.56397 14.032 4.4424C14.214 4.32083 14.428 4.25598 14.6468 4.25605C14.9402 4.25605 15.2216 4.37262 15.4291 4.58011C15.6365 4.7876 15.7531 5.06902 15.7531 5.36246C15.7531 5.65589 15.6365 5.93731 15.4291 6.1448C15.2216 6.35229 14.9402 6.46885 14.6468 6.46885C14.3523 6.46593 14.0709 6.34634 13.8644 6.13628V6.14497ZM11.8779 8.13172C11.3796 7.63396 10.7043 7.35411 10 7.35354C9.60686 7.3529 9.21849 7.43955 8.8629 7.60724C8.50732 7.77493 8.19339 8.01947 7.94377 8.32323C7.69416 8.62698 7.51508 8.98238 7.41947 9.36375C7.32385 9.74512 7.31408 10.143 7.39087 10.5286C7.46765 10.9142 7.62907 11.2779 7.86348 11.5936C8.09789 11.9092 8.39944 12.1689 8.74637 12.3538C9.0933 12.5387 9.47695 12.6444 9.86965 12.663C10.2623 12.6817 10.6543 12.6129 11.0172 12.4617C11.3428 12.3302 11.6385 12.1342 11.8865 11.8857C12.1333 11.6393 12.3291 11.3468 12.4627 11.0247C12.5962 10.7026 12.665 10.3574 12.665 10.0087C12.665 9.66001 12.5962 9.31475 12.4627 8.99267C12.3291 8.6706 12.1333 8.37803 11.8865 8.13172H11.8779ZM11.8518 10.7749C11.7508 11.0186 11.6032 11.2401 11.4171 11.427C11.2306 11.6136 11.009 11.7614 10.7651 11.8617C10.4002 12.0111 9.99936 12.0496 9.61276 11.9723C9.22616 11.8949 8.87095 11.7053 8.59161 11.427C8.21786 11.0518 8.00802 10.5437 8.00802 10.0141C8.00802 9.48449 8.21786 8.97644 8.59161 8.60123C8.96762 8.22902 9.4753 8.02025 10.0043 8.02025C10.5334 8.02025 11.0411 8.22902 11.4171 8.60123C11.6953 8.8806 11.885 9.23585 11.9623 9.6225C12.0396 10.0091 12.0012 10.41 11.8518 10.7749ZM15.89 6.60579C16.2197 6.27602 16.4049 5.82879 16.4049 5.36246C16.4049 4.89612 16.2197 4.44888 15.89 4.11911C15.5603 3.78939 15.1131 3.60416 14.6468 3.60416C14.1805 3.60416 13.7333 3.78939 13.4036 4.11911C13.0747 4.44938 12.8895 4.89628 12.8885 5.36246C12.8886 5.54173 12.9165 5.7199 12.9711 5.89066C12.1075 5.26403 11.067 4.92832 10 4.93207C9.33318 4.93179 8.67283 5.06292 8.05672 5.318C7.4406 5.57308 6.88078 5.9471 6.40927 6.41866C5.93776 6.89023 5.56378 7.4501 5.30874 8.06628C5.05369 8.68247 4.92256 9.34288 4.92284 10.0098C4.92099 10.6766 5.05143 11.3371 5.30662 11.9531C5.5618 12.5691 5.93666 13.1284 6.40948 13.5985C7.36373 14.5481 8.65386 15.0831 10 15.0875C11.3464 15.0869 12.6374 14.5518 13.5895 13.5996C14.5415 12.6475 15.0766 11.3563 15.0772 10.0098C15.0743 8.94406 14.7385 7.90588 14.1165 7.04053C14.2883 7.09365 14.467 7.12076 14.6468 7.12095C14.8785 7.12087 15.1078 7.07449 15.3213 6.98453C15.5348 6.89457 15.7281 6.76285 15.89 6.5971V6.60579ZM14.4251 10.0098C14.4266 11.0329 14.0734 12.0249 13.4256 12.8168C12.7779 13.6088 11.8757 14.1516 10.8727 14.353C9.86968 14.5544 8.82789 14.4018 7.92473 13.9212C7.02158 13.4407 6.31292 12.6619 5.91945 11.7174C5.52598 10.773 5.47203 9.72136 5.76679 8.74162C6.06155 7.76187 6.68678 6.91461 7.53602 6.34413C8.38525 5.77365 9.40596 5.51522 10.4243 5.61287C11.4427 5.71052 12.3957 6.15821 13.1211 6.87968C13.9519 7.70638 14.4209 8.82895 14.4251 10.0011V10.0098ZM13.8644 6.14497C13.7096 5.99024 13.6042 5.79307 13.5615 5.5784C13.5187 5.36374 13.5406 5.14121 13.6244 4.939C13.7082 4.73679 13.85 4.56397 14.032 4.4424C14.214 4.32083 14.428 4.25598 14.6468 4.25605C14.9402 4.25605 15.2216 4.37262 15.4291 4.58011C15.6365 4.7876 15.7531 5.06902 15.7531 5.36246C15.7531 5.65589 15.6365 5.93731 15.4291 6.1448C15.2216 6.35229 14.9402 6.46885 14.6468 6.46885C14.3523 6.46593 14.0709 6.34634 13.8644 6.13628V6.14497ZM11.8779 8.13172C11.3796 7.63396 10.7043 7.35411 10 7.35354C9.60686 7.3529 9.21849 7.43955 8.8629 7.60724C8.50732 7.77493 8.19339 8.01947 7.94377 8.32323C7.69416 8.62698 7.51508 8.98238 7.41947 9.36375C7.32385 9.74512 7.31408 10.143 7.39087 10.5286C7.46765 10.9142 7.62907 11.2779 7.86348 11.5936C8.09789 11.9092 8.39944 12.1689 8.74637 12.3538C9.0933 12.5387 9.47695 12.6444 9.86965 12.663C10.2623 12.6817 10.6543 12.6129 11.0172 12.4617C11.3428 12.3302 11.6385 12.1342 11.8865 11.8857C12.1333 11.6393 12.3291 11.3468 12.4627 11.0247C12.5962 10.7026 12.665 10.3574 12.665 10.0087C12.665 9.66001 12.5962 9.31475 12.4627 8.99267C12.3291 8.6706 12.1333 8.37803 11.8865 8.13172H11.8779ZM11.8518 10.7749C11.7508 11.0186 11.6032 11.2401 11.4171 11.427C11.2306 11.6136 11.009 11.7614 10.7651 11.8617C10.4002 12.0111 9.99936 12.0496 9.61276 11.9723C9.22616 11.8949 8.87095 11.7053 8.59161 11.427C8.21786 11.0518 8.00802 10.5437 8.00802 10.0141C8.00802 9.48449 8.21786 8.97644 8.59161 8.60123C8.96762 8.22902 9.4753 8.02025 10.0043 8.02025C10.5334 8.02025 11.0411 8.22902 11.4171 8.60123C11.6953 8.8806 11.885 9.23585 11.9623 9.6225C12.0396 10.0091 12.0012 10.41 11.8518 10.7749ZM15.6792 0.00868993H4.3208C3.17636 0.00868761 2.07866 0.462761 1.2686 1.27128C0.458544 2.07979 0.0023027 3.17669 0 4.32126V15.6809C0.000576243 16.8266 0.456056 17.9252 1.2663 18.7351C2.07654 19.545 3.17523 20 4.3208 20H15.6792C16.8248 20 17.9235 19.545 18.7337 18.7351C19.5439 17.9252 19.9994 16.8266 20 15.6809V4.32126C19.9994 3.17536 19.544 2.07657 18.7338 1.2663C17.9236 0.456032 16.825 0.000575972 15.6792 0V0.00868993ZM19.348 15.6896C19.3462 16.662 18.9591 17.594 18.2714 18.2814C17.5837 18.9688 16.6515 19.3554 15.6792 19.3566H4.3208C3.83854 19.3563 3.36107 19.261 2.91565 19.0761C2.47024 18.8912 2.06562 18.6203 1.72492 18.279C1.38421 17.9376 1.1141 17.5325 0.930008 17.0867C0.745918 16.6409 0.651461 16.1632 0.652032 15.6809V4.32126C0.653183 3.34849 1.04008 2.41589 1.72786 1.72804C2.41564 1.04018 3.34813 0.653253 4.3208 0.652103H15.6792C16.6519 0.653253 17.5844 1.04018 18.2721 1.72804C18.9599 2.41589 19.3468 3.34849 19.348 4.32126V15.6896ZM14.6468 3.60416C14.4158 3.60311 14.1868 3.64791 13.9734 3.73636C13.7599 3.82482 13.5662 3.95493 13.4036 4.11911C13.0747 4.44938 12.8895 4.89628 12.8885 5.36246C12.8886 5.54173 12.9165 5.7199 12.9711 5.89066C12.1075 5.26403 11.067 4.92832 10 4.93207C9.33318 4.93179 8.67283 5.06292 8.05672 5.318C7.4406 5.57308 6.88078 5.9471 6.40927 6.41866C5.93776 6.89023 5.56378 7.4501 5.30874 8.06628C5.05369 8.68247 4.92256 9.34288 4.92284 10.0098C4.92099 10.6766 5.05143 11.3371 5.30662 11.9531C5.5618 12.5691 5.93666 13.1284 6.40948 13.5985C7.36373 14.5481 8.65386 15.0831 10 15.0875C11.3464 15.0869 12.6374 14.5518 13.5895 13.5996C14.5415 12.6475 15.0766 11.3563 15.0772 10.0098C15.0743 8.94406 14.7385 7.90588 14.1165 7.04053C14.2883 7.09365 14.467 7.12076 14.6468 7.12095C14.8779 7.122 15.1068 7.07699 15.3203 6.98853C15.5337 6.90008 15.7274 6.76997 15.89 6.60579C16.2197 6.27602 16.4049 5.82879 16.4049 5.36246C16.4049 4.89612 16.2197 4.44888 15.89 4.11911C15.7281 3.95336 15.5348 3.82164 15.3213 3.73168C15.1078 3.64172 14.8785 3.59555 14.6468 3.59547V3.60416ZM14.4295 10.0098C14.4309 11.0329 14.0777 12.0249 13.43 12.8168C12.7823 13.6088 11.8801 14.1516 10.877 14.353C9.87403 14.5544 8.83223 14.4018 7.92908 13.9212C7.02593 13.4407 6.31727 12.6619 5.9238 11.7174C5.53033 10.773 5.47638 9.72136 5.77114 8.74162C6.06589 7.76187 6.69113 6.91461 7.54037 6.34413C8.3896 5.77365 9.41031 5.51522 10.4287 5.61287C11.447 5.71052 12.4 6.15821 13.1254 6.87968C13.9547 7.70709 14.422 8.82958 14.4251 10.0011L14.4295 10.0098ZM15.4336 6.14497C15.2527 6.32601 15.0146 6.43871 14.7599 6.46386C14.5052 6.48901 14.2496 6.42507 14.0368 6.28291C13.8239 6.14076 13.667 5.92919 13.5926 5.68426C13.5182 5.43934 13.5311 5.17621 13.629 4.9397C13.7269 4.70319 13.9037 4.50793 14.1294 4.38721C14.3551 4.26648 14.6156 4.22775 14.8667 4.27761C15.1177 4.32747 15.3437 4.46284 15.5061 4.66065C15.6685 4.85847 15.7574 5.10649 15.7574 5.36246C15.7539 5.65348 15.636 5.93143 15.4293 6.13628L15.4336 6.14497ZM11.8779 8.13172C11.3796 7.63396 10.7043 7.35411 10 7.35354C9.60686 7.3529 9.21849 7.43955 8.8629 7.60724C8.50732 7.77493 8.19339 8.01947 7.94377 8.32323C7.69416 8.62698 7.51508 8.98238 7.41947 9.36375C7.32385 9.74512 7.31408 10.143 7.39087 10.5286C7.46765 10.9142 7.62907 11.2779 7.86348 11.5936C8.09789 11.9092 8.39944 12.1689 8.74637 12.3538C9.0933 12.5387 9.47695 12.6444 9.86965 12.663C10.2623 12.6817 10.6543 12.6129 11.0172 12.4617C11.3428 12.3302 11.6385 12.1342 11.8865 11.8857C12.1333 11.6393 12.3291 11.3468 12.4627 11.0247C12.5962 10.7026 12.665 10.3574 12.665 10.0087C12.665 9.66001 12.5962 9.31475 12.4627 8.99267C12.3291 8.6706 12.1333 8.37803 11.8865 8.13172H11.8779ZM11.8518 10.7749C11.7508 11.0186 11.6032 11.2401 11.4171 11.427C11.2306 11.6136 11.009 11.7614 10.7651 11.8617C10.4002 12.0111 9.99936 12.0496 9.61276 11.9723C9.22616 11.8949 8.87095 11.7053 8.59161 11.427C8.21786 11.0518 8.00802 10.5437 8.00802 10.0141C8.00802 9.48449 8.21786 8.97644 8.59161 8.60123C8.96762 8.22902 9.4753 8.02025 10.0043 8.02025C10.5334 8.02025 11.0411 8.22902 11.4171 8.60123C11.6953 8.8806 11.885 9.23585 11.9623 9.6225C12.0396 10.0091 12.0012 10.41 11.8518 10.7749ZM12.4538 8.9925C12.2522 8.50761 11.9116 8.09325 11.4749 7.80159C11.0383 7.50994 10.5251 7.35404 10 7.35354C9.60686 7.3529 9.21849 7.43955 8.8629 7.60724C8.50732 7.77493 8.19339 8.01947 7.94377 8.32323C7.69416 8.62698 7.51508 8.98238 7.41947 9.36375C7.32385 9.74512 7.31408 10.143 7.39087 10.5286C7.46765 10.9142 7.62907 11.2779 7.86348 11.5936C8.09789 11.9092 8.39944 12.1689 8.74637 12.3538C9.0933 12.5387 9.47695 12.6444 9.86965 12.663C10.2623 12.6817 10.6543 12.6129 11.0172 12.4617C11.3428 12.3302 11.6385 12.1342 11.8865 11.8857C12.258 11.5145 12.5109 11.0415 12.6135 10.5265C12.716 10.0115 12.6635 9.47763 12.4625 8.9925H12.4538ZM11.8518 10.7749C11.7508 11.0186 11.6032 11.2401 11.4171 11.427C11.2306 11.6136 11.009 11.7614 10.7651 11.8617C10.4002 12.0111 9.99936 12.0496 9.61276 11.9723C9.22616 11.8949 8.87095 11.7053 8.59161 11.427C8.21786 11.0518 8.00802 10.5437 8.00802 10.0141C8.00802 9.48449 8.21786 8.97644 8.59161 8.60123C8.96762 8.22902 9.4753 8.02025 10.0043 8.02025C10.5334 8.02025 11.0411 8.22902 11.4171 8.60123C11.6953 8.8806 11.885 9.23585 11.9623 9.6225C12.0396 10.0091 12.0012 10.41 11.8518 10.7749ZM12.4538 8.9925C12.2522 8.50761 11.9116 8.09325 11.4749 7.80159C11.0383 7.50994 10.5251 7.35404 10 7.35354C9.60686 7.3529 9.21849 7.43955 8.8629 7.60724C8.50732 7.77493 8.19339 8.01947 7.94377 8.32323C7.69416 8.62698 7.51508 8.98238 7.41947 9.36375C7.32385 9.74512 7.31408 10.143 7.39087 10.5286C7.46765 10.9142 7.62907 11.2779 7.86348 11.5936C8.09789 11.9092 8.39944 12.1689 8.74637 12.3538C9.0933 12.5387 9.47695 12.6444 9.86965 12.663C10.2623 12.6817 10.6543 12.6129 11.0172 12.4617C11.3428 12.3302 11.6385 12.1342 11.8865 11.8857C12.258 11.5145 12.5109 11.0415 12.6135 10.5265C12.716 10.0115 12.6635 9.47763 12.4625 8.9925H12.4538ZM11.8518 10.7749C11.7508 11.0186 11.6032 11.2401 11.4171 11.427C11.2306 11.6136 11.009 11.7614 10.7651 11.8617C10.4002 12.0111 9.99936 12.0496 9.61276 11.9723C9.22616 11.8949 8.87095 11.7053 8.59161 11.427C8.21786 11.0518 8.00802 10.5437 8.00802 10.0141C8.00802 9.48449 8.21786 8.97644 8.59161 8.60123C8.96762 8.22902 9.4753 8.02025 10.0043 8.02025C10.5334 8.02025 11.0411 8.22902 11.4171 8.60123C11.6953 8.8806 11.885 9.23585 11.9623 9.6225C12.0396 10.0091 12.0012 10.41 11.8518 10.7749Z" fill="black"/>
<path d="M15.6792 0.652069H4.32079C3.34813 0.65322 2.41563 1.04015 1.72785 1.728C1.04007 2.41585 0.653174 3.34845 0.652023 4.32122V15.6809C0.653175 16.6534 1.04014 17.5858 1.72798 18.2733C2.41582 18.9608 3.34833 19.3473 4.32079 19.3478H15.6792C16.6515 19.3467 17.5836 18.9601 18.2714 18.2727C18.9591 17.5853 19.3462 16.6533 19.348 15.6809V4.32122C19.3468 3.34845 18.9599 2.41585 18.2721 1.728C17.5844 1.04015 16.6519 0.65322 15.6792 0.652069ZM15.8965 6.59707C15.7339 6.76124 15.5402 6.89136 15.3268 6.97981C15.1133 7.06826 14.8844 7.11328 14.6533 7.11223C14.4735 7.11203 14.2948 7.08493 14.123 7.0318C14.745 7.89716 15.0809 8.93533 15.0837 10.001C15.0845 10.6691 14.9536 11.3307 14.6985 11.948C14.4433 12.5654 14.0689 13.1264 13.5967 13.5988C13.1245 14.0713 12.5638 14.446 11.9466 14.7014C11.3294 14.9568 10.6679 15.088 9.99999 15.0874C8.65385 15.0831 7.36372 14.5481 6.40947 13.5985C5.93665 13.1284 5.5618 12.5691 5.30661 11.9531C5.05142 11.3371 4.92098 10.6765 4.92283 10.0097C4.92255 9.34285 5.05368 8.68244 5.30873 8.06625C5.56378 7.45007 5.93775 6.89019 6.40926 6.41863C6.88078 5.94706 7.44059 5.57304 8.05671 5.31796C8.67283 5.06289 9.33317 4.93175 9.99999 4.93204C11.067 4.92829 12.1075 5.26399 12.9711 5.89062C12.9165 5.71987 12.8886 5.5417 12.8885 5.36242C12.8895 4.89625 13.0746 4.44935 13.4036 4.11907C13.7333 3.78935 14.1805 3.60412 14.6468 3.60412C15.1131 3.60412 15.5603 3.78935 15.89 4.11907C16.2197 4.44885 16.4049 4.89609 16.4049 5.36242C16.4049 5.82875 16.2197 6.27598 15.89 6.60576L15.8965 6.59707Z" fill="#E27023"/>
<path d="M11.9974 10.001C11.9968 10.397 11.879 10.784 11.659 11.1131C11.4389 11.4423 11.1264 11.699 10.7607 11.8508C10.3958 12.0002 9.99503 12.0387 9.60842 11.9614C9.22182 11.884 8.86661 11.6944 8.58727 11.4161C8.21352 11.0409 8.00368 10.5328 8.00368 10.0032C8.00368 9.47359 8.21352 8.96555 8.58727 8.59033C8.96328 8.21812 9.47096 8.00934 10 8.00934C10.5291 8.00934 11.0367 8.21812 11.4127 8.59033C11.599 8.77631 11.7467 8.99724 11.8474 9.24044C11.9481 9.48365 11.9998 9.74434 11.9996 10.0076L11.9974 10.001Z" fill="#E27023"/>
</svg>
