<svg xmlns="http://www.w3.org/2000/svg" xmlns:xlink="http://www.w3.org/1999/xlink" viewBox="0 0 100 99.85"><defs><style>.cls-1{fill:#332e2b;}.cls-2{fill:url(#linear-gradient);}.cls-3{fill:#fff;}.cls-4{fill:url(#linear-gradient-2);}.cls-5{fill:url(#linear-gradient-3);}.cls-6{fill:url(#linear-gradient-4);}.cls-7{fill:url(#linear-gradient-5);}.cls-8{fill:#e27022;}</style><linearGradient id="linear-gradient" x1="351.39" y1="635.88" x2="357.27" y2="652.02" gradientTransform="matrix(0.64, -0.47, 0.59, 0.81, -564.08, -343.03)" gradientUnits="userSpaceOnUse"><stop offset="0" stop-color="#63b22f"/><stop offset="0.68" stop-color="#046c5b"/><stop offset="1" stop-color="#13302c"/></linearGradient><linearGradient id="linear-gradient-2" x1="-1496.9" y1="-430.16" x2="-1491.02" y2="-414.02" gradientTransform="matrix(-0.64, -0.47, -0.59, 0.81, -1144.08, -343.03)" xlink:href="#linear-gradient"/><linearGradient id="linear-gradient-3" x1="-816.74" y1="-570.47" x2="-808.54" y2="-547.94" gradientTransform="matrix(-0.29, -0.74, -0.93, 0.37, -696.65, -370.43)" xlink:href="#linear-gradient"/><linearGradient id="linear-gradient-4" x1="261.32" y1="830.42" x2="269.52" y2="852.95" gradientTransform="matrix(0.54, -0.58, 0.74, 0.68, -723.58, -393.99)" xlink:href="#linear-gradient"/><linearGradient id="linear-gradient-5" x1="47.32" y1="4.37" x2="55.52" y2="26.9" gradientTransform="matrix(1, 0, 0, 1, 0, 0)" xlink:href="#linear-gradient"/></defs><g id="Layer_2" data-name="Layer 2"><g id="Layer_1-2" data-name="Layer 1"><path class="cls-1" d="M37.61,2l-.26-.06-.45-.18-.2.38a12.47,12.47,0,0,0,1.44,12.7c4.67,6.41,9.65,6,9.87,5.95l.23,0,.11-.2c0-.05,3.13-5.43-1.81-11.94C42.27,3,38.77,2.23,37.61,2Zm9.83,17.55S43,20,38.83,14.3A10.92,10.92,0,0,1,37.58,3.13c.55.23,3.88.22,8.26,6S47.44,19.53,47.44,19.53Z"/><path class="cls-2" d="M45.84,9.12c4.37,5.76,1.6,10.41,1.6,10.41S43,20,38.83,14.3A10.92,10.92,0,0,1,37.58,3.13C38.13,3.36,41.46,3.35,45.84,9.12Z"/><path class="cls-1" d="M40.63,13.56s3,6.26,6.13,6.62l1.9-1.38A20.47,20.47,0,0,1,40.63,13.56Z"/><path class="cls-3" d="M37.58,3.13s4.17.44,8.26,6C40.38,4.3,38,4.21,38,4.21s-1.09,4.47.34,8a14.53,14.53,0,0,0,4.52,6c-5.14-3.89-6-7.25-6.24-9.58A14.46,14.46,0,0,1,37.58,3.13Z"/><path class="cls-1" d="M57,10.91c-4.94,6.51-1.85,11.88-1.82,11.94l.12.2.23,0c.21,0,5.19.46,9.87-5.94A12.48,12.48,0,0,0,66.85,4.42L66.65,4l-.44.19-.27.06C64.79,4.54,61.28,5.29,57,10.91Zm.7.51c4.37-5.76,7.71-5.76,8.25-6A10.9,10.9,0,0,1,64.72,16.6c-4.16,5.71-8.61,5.24-8.61,5.24S53.35,17.19,57.72,11.42Z"/><path class="cls-4" d="M57.72,11.42c-4.37,5.77-1.61,10.42-1.61,10.42s4.45.47,8.61-5.24A10.9,10.9,0,0,0,66,5.44C65.43,5.66,62.09,5.66,57.72,11.42Z"/><path class="cls-1" d="M62.93,15.87s-3,6.26-6.14,6.62L54.9,21.11A20.47,20.47,0,0,0,62.93,15.87Z"/><path class="cls-3" d="M66,5.44s-4.17.43-8.25,6c5.46-4.81,7.82-4.91,7.82-4.91s1.1,4.48-.33,8a14.59,14.59,0,0,1-4.52,6c5.13-3.9,6-7.25,6.23-9.58A14.46,14.46,0,0,0,66,5.44Z"/><path class="cls-1" d="M57.82,15.62c-10.69,4-11,12.66-11,12.74l0,.32.26.21c.23.18,5.78,4.41,16.07.33A17.41,17.41,0,0,0,74.25,15.3l0-.6-.66-.12a3,3,0,0,1-.36-.12C71.73,13.89,67,12.17,57.82,15.62Zm.44,1.13c9.45-3.54,13.38-1.05,14.2-.91a15.21,15.21,0,0,1-9.8,12.24c-9.16,3.64-14.06-.23-14.06-.23S48.8,20.3,58.26,16.75Z"/><path class="cls-5" d="M58.26,16.75c-9.46,3.55-9.66,11.1-9.66,11.1s4.9,3.87,14.06.23a15.21,15.21,0,0,0,9.8-12.24C71.64,15.7,67.71,13.21,58.26,16.75Z"/><path class="cls-1" d="M61.09,25.88s-8.15,5.18-12.17,3.25l-1.21-3.05S54.83,27.83,61.09,25.88Z"/><path class="cls-3" d="M72.46,15.84s-5.25-2.59-14.2.91c10-1.61,12.89,0,12.89,0S69.1,22.89,64.81,26A20.2,20.2,0,0,1,55,29.64c9-.77,12.46-4.09,14.49-6.66S72.46,15.84,72.46,15.84Z"/><path class="cls-1" d="M30.18,7.24H29.8l-.66-.12L29,7.68a17.42,17.42,0,0,0,5.47,17c8.17,7.47,14.86,5.49,15.14,5.4l.31-.1.11-.3c0-.08,2.77-8.29-5.79-15.83C36.83,7.32,31.82,7.26,30.18,7.24Zm18.29,21.3s-5.95,1.87-13.22-4.79a15.21,15.21,0,0,1-4.8-14.92c.81.15,5.38-.77,13,5.91S48.47,28.54,48.47,28.54Z"/><path class="cls-6" d="M43.4,14.74c7.57,6.68,5.07,13.8,5.07,13.8s-5.95,1.87-13.22-4.79a15.21,15.21,0,0,1-4.8-14.92C31.26,9,35.83,8.06,43.4,14.74Z"/><path class="cls-1" d="M37.5,22.26S43.28,30,47.72,29.62l2.21-2.42S42.66,26.31,37.5,22.26Z"/><path class="cls-3" d="M30.45,8.83s5.83-.56,13,5.91c-8.8-5.09-12.06-4.56-12.06-4.56S31.08,16.61,34,21a20.47,20.47,0,0,0,7.83,6.94C33.73,24,31.64,19.66,30.66,16.54S30.45,8.83,30.45,8.83Z"/><path class="cls-1" d="M54.71.86a3.64,3.64,0,0,1-.32-.29L53.94,0l-.67.26c-.11,0-11.15,4.4-11.15,15.51S49.67,30.44,50,30.59l.36.16.37-.13a15.43,15.43,0,0,0,9.81-14.95C60.3,5.82,56.09,2.09,54.71.86ZM50.46,28.74s-6.8-3.13-6.8-13S53.47,2.13,53.47,2.13C54,2.84,58.76,5.58,59,15.67A13.38,13.38,0,0,1,50.46,28.74Z"/><path class="cls-7" d="M59,15.67a13.38,13.38,0,0,1-8.54,13.07s-6.8-3.13-6.8-13S53.47,2.13,53.47,2.13C54,2.84,58.76,5.58,59,15.67Z"/><path class="cls-1" d="M47,16.4s-2.28,9.49,1.85,12.51H53S47.6,22.94,47,16.4Z"/><path class="cls-3" d="M53.47,2.13S59,6.06,59,15.67c-2.77-9.92-6-12-6-12S46.76,7.85,45.17,13a16.27,16.27,0,0,0,.21,10.46c-3.26-8.61-1-13.09,1.08-15.92S53.47,2.13,53.47,2.13Z"/><path class="cls-8" d="M70.83,39.3A15.64,15.64,0,0,1,63.5,52.17H37.89A15.63,15.63,0,0,1,30.57,39.3Z"/><path class="cls-8" d="M73.68,30.94V35.3a2.27,2.27,0,0,1-1.11,2,2.29,2.29,0,0,1-1.16.32H30a2.3,2.3,0,0,1-1.17-.32,2.27,2.27,0,0,1-1.11-2V30.94A2.27,2.27,0,0,1,30,28.68H71.41A2.27,2.27,0,0,1,73.68,30.94Z"/><path class="cls-1" d="M72.56,39.12A4,4,0,0,0,75.4,35.3V30.94a4,4,0,0,0-4-4H30a4,4,0,0,0-4,4V35.3a4,4,0,0,0,2.84,3.83,17.38,17.38,0,0,0,6.16,13H30c-1.76,0-3.14,1.88-3.14,4.27v.87H74.54v-.87c0-2.39-1.38-4.27-3.14-4.27h-5A17.35,17.35,0,0,0,72.56,39.12ZM28.83,37.25a2.27,2.27,0,0,1-1.11-2V30.94A2.27,2.27,0,0,1,30,28.68H71.41a2.27,2.27,0,0,1,2.27,2.26V35.3a2.27,2.27,0,0,1-1.11,2,2.29,2.29,0,0,1-1.16.32H30A2.3,2.3,0,0,1,28.83,37.25ZM71.4,53.89c.53,0,1.12.66,1.33,1.69H28.67c.22-1,.8-1.69,1.33-1.69Zm-7.9-1.72H37.89A15.63,15.63,0,0,1,30.57,39.3H70.83A15.64,15.64,0,0,1,63.5,52.17Z"/><path class="cls-8" d="M72.73,55.58H28.67c.22-1,.8-1.69,1.33-1.69H71.4C71.93,53.89,72.52,54.55,72.73,55.58Z"/><path class="cls-1" d="M7.9,81.78a8.54,8.54,0,0,1-3.16-.57,7.44,7.44,0,0,1-2.5-1.58A6.93,6.93,0,0,1,.59,77.25a7.92,7.92,0,0,1,0-6,7,7,0,0,1,1.65-2.38,7.58,7.58,0,0,1,2.5-1.57,8.47,8.47,0,0,1,3.14-.57A8.39,8.39,0,0,1,11,67.3a7.55,7.55,0,0,1,2.5,1.56,7.07,7.07,0,0,1,1.65,2.38,8.1,8.1,0,0,1,0,6,7,7,0,0,1-1.65,2.38A7.58,7.58,0,0,1,11,81.21,8.33,8.33,0,0,1,7.9,81.78Zm0-2.39a5.4,5.4,0,0,0,2-.37,4.65,4.65,0,0,0,1.63-1.08,5.09,5.09,0,0,0,1.08-1.64,5.31,5.31,0,0,0,.39-2,5.17,5.17,0,0,0-1.47-3.69,4.76,4.76,0,0,0-1.63-1.07,5.41,5.41,0,0,0-2-.38,5.5,5.5,0,0,0-2,.38A4.76,4.76,0,0,0,4.2,70.56,5.2,5.2,0,0,0,3.12,72.2a5.39,5.39,0,0,0-.38,2,5.5,5.5,0,0,0,.38,2A5.09,5.09,0,0,0,4.2,77.94,4.65,4.65,0,0,0,5.83,79,5.49,5.49,0,0,0,7.88,79.39Zm4.78,5.37a6.67,6.67,0,0,1-1.49-.17A5.42,5.42,0,0,1,9.75,84,9.1,9.1,0,0,1,8.3,82.93a20.16,20.16,0,0,1-1.66-1.61l2.89-.76a8.42,8.42,0,0,0,1.12,1.25,3.89,3.89,0,0,0,1,.68,2.66,2.66,0,0,0,1.05.21,3.29,3.29,0,0,0,2.5-1.18L16.49,83A4.79,4.79,0,0,1,12.66,84.76Z"/><path class="cls-1" d="M23.11,81.71a5.58,5.58,0,0,1-2.51-.53,3.85,3.85,0,0,1-1.69-1.63,5.71,5.71,0,0,1-.61-2.77V70.41h2.61v6a3.23,3.23,0,0,0,.68,2.24,2.49,2.49,0,0,0,1.94.74,3.29,3.29,0,0,0,1.6-.37,2.64,2.64,0,0,0,1.06-1.13,4,4,0,0,0,.39-1.86V70.41h2.61V81.57H26.7v-3l.44.92a3.83,3.83,0,0,1-1.65,1.66A5,5,0,0,1,23.11,81.71Z"/><path class="cls-1" d="M33.93,68.57a1.62,1.62,0,0,1-1.2-.46,1.56,1.56,0,0,1,0-2.23,1.69,1.69,0,0,1,1.2-.44,1.72,1.72,0,0,1,1.2.42,1.39,1.39,0,0,1,.47,1.08,1.58,1.58,0,0,1-.46,1.16A1.62,1.62,0,0,1,33.93,68.57Zm-1.31,13V70.41h2.61V81.57Z"/><path class="cls-1" d="M37.17,72.58V70.49h7.44v2.09Zm5.68,9.13A4,4,0,0,1,40,80.76,3.68,3.68,0,0,1,39,78v-10h2.61v10A1.74,1.74,0,0,0,42,79.12a1.48,1.48,0,0,0,1.14.44,2.28,2.28,0,0,0,1.46-.46L45.36,81a2.92,2.92,0,0,1-1.13.56A4.84,4.84,0,0,1,42.85,81.71Z"/><path class="cls-1" d="M57.13,81.57V75.78l.6,1.67L51.38,66.94h2.9l5.1,8.46H57.75l5.14-8.46h2.68L59.21,77.45l.63-1.67v5.79Z"/><path class="cls-1" d="M70.85,81.71a6.12,6.12,0,0,1-3-.74,5.51,5.51,0,0,1-2.11-2,6,6,0,0,1,0-5.9,5.53,5.53,0,0,1,2.11-2,6.8,6.8,0,0,1,6.13,0A5.38,5.38,0,0,1,76,73a6.06,6.06,0,0,1,0,5.91,5.31,5.31,0,0,1-2.11,2A6.19,6.19,0,0,1,70.85,81.71Zm0-2.23a3.51,3.51,0,0,0,1.72-.42,3,3,0,0,0,1.18-1.21A3.93,3.93,0,0,0,74.17,76a3.88,3.88,0,0,0-.42-1.87,3,3,0,0,0-1.18-1.2,3.46,3.46,0,0,0-1.7-.42,3.4,3.4,0,0,0-1.7.42A3.09,3.09,0,0,0,68,74.12,3.77,3.77,0,0,0,67.55,76,3.82,3.82,0,0,0,68,77.85a3.06,3.06,0,0,0,1.18,1.21A3.38,3.38,0,0,0,70.85,79.48Z"/><path class="cls-1" d="M84,81.71a5.55,5.55,0,0,1-2.51-.53,3.8,3.8,0,0,1-1.69-1.63,5.6,5.6,0,0,1-.61-2.77V70.41h2.61v6a3.23,3.23,0,0,0,.68,2.24,2.47,2.47,0,0,0,1.93.74,3.23,3.23,0,0,0,1.6-.37,2.6,2.6,0,0,0,1.07-1.13,4,4,0,0,0,.38-1.86V70.41h2.62V81.57H87.63v-3l.44.92a3.89,3.89,0,0,1-1.65,1.66A5.07,5.07,0,0,1,84,81.71Z"/><path class="cls-1" d="M93.54,81.57V70.41H96v3.07l-.29-.9a3.5,3.5,0,0,1,1.58-1.71,5.53,5.53,0,0,1,2.68-.59v2.49a1.24,1.24,0,0,0-.31,0h-.3a3.26,3.26,0,0,0-2.36.86,3.5,3.5,0,0,0-.87,2.58v5.42Z"/><path class="cls-1" d="M7.62,99.73l5.32-11.81h2.15l5.33,11.81H18.13L13.56,89.08h.88L9.88,99.73ZM10.07,97l.59-1.72H17L17.62,97Z"/><path class="cls-1" d="M25.45,99.85a4.73,4.73,0,0,1-2.34-.59,4.11,4.11,0,0,1-1.62-1.61,5.28,5.28,0,0,1,0-4.85,4.18,4.18,0,0,1,1.62-1.61,4.82,4.82,0,0,1,2.34-.57,4.09,4.09,0,0,1,2,.5,3.47,3.47,0,0,1,1.42,1.51,5.6,5.6,0,0,1,.52,2.59,5.78,5.78,0,0,1-.5,2.59,3.54,3.54,0,0,1-1.4,1.53A4.09,4.09,0,0,1,25.45,99.85ZM25.7,98a2.67,2.67,0,0,0,1.36-.34,2.49,2.49,0,0,0,1-1,2.94,2.94,0,0,0,.37-1.51,2.88,2.88,0,0,0-.37-1.5,2.51,2.51,0,0,0-1-1,2.95,2.95,0,0,0-2.71,0,2.61,2.61,0,0,0-1,1,3,3,0,0,0-.36,1.5,3,3,0,0,0,.36,1.51,2.58,2.58,0,0,0,1,1A2.66,2.66,0,0,0,25.7,98Zm2.74,1.69V97.6l.08-2.39-.17-2.4v-5.6h2.09V99.73Z"/><path class="cls-1" d="M37,99.85a4.67,4.67,0,0,1-2.34-.59,4.2,4.2,0,0,1-1.63-1.61,5.28,5.28,0,0,1,0-4.85,4.27,4.27,0,0,1,1.63-1.61A4.77,4.77,0,0,1,37,90.62a4.09,4.09,0,0,1,2,.5,3.47,3.47,0,0,1,1.42,1.51A5.6,5.6,0,0,1,41,95.22a5.92,5.92,0,0,1-.5,2.59,3.54,3.54,0,0,1-1.4,1.53A4.11,4.11,0,0,1,37,99.85ZM37.29,98a2.67,2.67,0,0,0,1.36-.34,2.49,2.49,0,0,0,1-1A3,3,0,0,0,40,95.22a3,3,0,0,0-.36-1.5,2.51,2.51,0,0,0-1-1,3,3,0,0,0-2.72,0,2.51,2.51,0,0,0-1,1,3,3,0,0,0-.36,1.5A3,3,0,0,0,35,96.73a2.49,2.49,0,0,0,1,1A2.69,2.69,0,0,0,37.29,98ZM40,99.73V97.6l.09-2.39-.17-2.4v-5.6H42V99.73Z"/><path class="cls-1" d="M45.88,89.24a1.34,1.34,0,0,1-1-.37,1.19,1.19,0,0,1-.38-.9,1.17,1.17,0,0,1,.38-.9,1.34,1.34,0,0,1,1-.36,1.4,1.4,0,0,1,1,.34,1.14,1.14,0,0,1,.38.87,1.3,1.3,0,0,1-1.35,1.32ZM44.81,99.73v-9h2.11v9Z"/><path class="cls-1" d="M53.82,99.85a5.16,5.16,0,0,1-2.52-.6,4.43,4.43,0,0,1-1.73-1.65,4.88,4.88,0,0,1,0-4.76,4.38,4.38,0,0,1,1.73-1.63,5.27,5.27,0,0,1,2.52-.59,4.93,4.93,0,0,1,2.32.53,3.6,3.6,0,0,1,1.53,1.56l-1.62,1a2.56,2.56,0,0,0-1-1,2.72,2.72,0,0,0-1.26-.3,3,3,0,0,0-1.4.33,2.5,2.5,0,0,0-1,1,3.41,3.41,0,0,0,0,3,2.41,2.41,0,0,0,1,1,2.87,2.87,0,0,0,1.4.34,2.72,2.72,0,0,0,1.26-.3,2.56,2.56,0,0,0,1-.95l1.62.95a3.71,3.71,0,0,1-1.53,1.56A4.82,4.82,0,0,1,53.82,99.85Z"/><path class="cls-1" d="M58.41,92.48V90.79h6v1.69ZM63,99.85a3.23,3.23,0,0,1-2.3-.77,3,3,0,0,1-.81-2.27V88.73H62v8a1.38,1.38,0,0,0,.33,1,1.18,1.18,0,0,0,.92.36,1.85,1.85,0,0,0,1.18-.37l.59,1.5a2.5,2.5,0,0,1-.91.45A3.77,3.77,0,0,1,63,99.85Z"/><path class="cls-1" d="M67.82,89.24a1.36,1.36,0,0,1-1-.37,1.23,1.23,0,0,1-.38-.9,1.2,1.2,0,0,1,.38-.9,1.35,1.35,0,0,1,1-.36,1.38,1.38,0,0,1,1,.34,1.14,1.14,0,0,1,.38.87,1.28,1.28,0,0,1-1.35,1.32ZM66.76,99.73v-9h2.11v9Z"/><path class="cls-1" d="M75.68,99.85a5,5,0,0,1-2.46-.6,4.52,4.52,0,0,1-1.71-1.65,4.88,4.88,0,0,1,0-4.76,4.47,4.47,0,0,1,1.71-1.63,5.08,5.08,0,0,1,2.46-.59,5.2,5.2,0,0,1,2.49.59,4.35,4.35,0,0,1,1.7,1.62,4.9,4.9,0,0,1,0,4.77,4.42,4.42,0,0,1-1.7,1.65A5.1,5.1,0,0,1,75.68,99.85Zm0-1.81a2.72,2.72,0,0,0,1.38-.34,2.34,2.34,0,0,0,1-1,3.15,3.15,0,0,0,.35-1.51,3.08,3.08,0,0,0-.35-1.5,2.36,2.36,0,0,0-1-1,3,3,0,0,0-2.74,0,2.43,2.43,0,0,0-.95,1,3,3,0,0,0-.36,1.5,3,3,0,0,0,.36,1.51,2.4,2.4,0,0,0,.95,1A2.67,2.67,0,0,0,75.68,98Z"/><path class="cls-1" d="M87.62,90.62a4.31,4.31,0,0,1,1.93.42,3,3,0,0,1,1.34,1.29,4.51,4.51,0,0,1,.49,2.24v5.16H89.27V94.84a2.53,2.53,0,0,0-.56-1.79,2.1,2.1,0,0,0-1.58-.59,2.85,2.85,0,0,0-1.32.3,2.12,2.12,0,0,0-.88.9,3.25,3.25,0,0,0-.31,1.51v4.56H82.51v-9h2v2.43l-.36-.74a3.17,3.17,0,0,1,1.38-1.33A4.46,4.46,0,0,1,87.62,90.62Z"/></g></g></svg>