<svg width="36" height="31" viewBox="0 0 36 31" fill="none" xmlns="http://www.w3.org/2000/svg">
    <g id="open">
        <path d="M3 6H8.625M33 6H16.125M33 24H27.375M3 24H19.875M3 15H33" stroke="#332E2B"
            stroke-width="5" stroke-linecap="round" />
    </g>
    <g id="close">
        <path  fill-rule="evenodd" clip-rule="evenodd"
            d="M18.0171 19.0598L28.12 29.1628C28.6561 29.6989 29.3832 30 30.1414 30C30.8995 30 31.6266 29.6989 32.1627 29.1628C32.6988 28.6267 33 27.8996 33 27.1414C33 26.3833 32.6988 25.6562 32.1627 25.1201L22.056 15.0171L32.1608 4.91418C32.4261 4.64873 32.6366 4.33362 32.7801 3.98685C32.9237 3.64007 32.9975 3.26842 32.9974 2.8931C32.9973 2.51779 32.9233 2.14617 32.7796 1.79947C32.6359 1.45276 32.4253 1.13775 32.1599 0.872428C31.8944 0.607105 31.5793 0.396665 31.2325 0.253121C30.8858 0.109578 30.5141 0.0357422 30.1388 0.0358306C29.7635 0.0359191 29.3919 0.109929 29.0452 0.253636C28.6985 0.397343 28.3834 0.607933 28.1181 0.873381L18.0171 10.9763L7.91414 0.873381C7.65066 0.600319 7.33543 0.382467 6.98685 0.232535C6.63827 0.0826036 6.26332 0.00359478 5.88388 0.00011984C5.50443 -0.0033551 5.1281 0.0687728 4.77683 0.212295C4.42557 0.355817 4.1064 0.56786 3.83796 0.83605C3.56951 1.10424 3.35717 1.42321 3.21332 1.77434C3.06946 2.12547 2.99698 2.50174 3.0001 2.88118C3.00321 3.26063 3.08187 3.63565 3.23147 3.98437C3.38107 4.33309 3.59863 4.64853 3.87144 4.91227L13.9782 15.0171L3.87335 25.122C3.60053 25.3857 3.38298 25.7011 3.23338 26.0499C3.08377 26.3986 3.00512 26.7736 3.002 27.1531C2.99888 27.5325 3.07137 27.9088 3.21522 28.2599C3.35907 28.611 3.57142 28.93 3.83986 29.1982C4.1083 29.4664 4.42747 29.6784 4.77874 29.8219C5.13001 29.9655 5.50634 30.0376 5.88578 30.0341C6.26522 30.0306 6.64017 29.9516 6.98875 29.8017C7.33733 29.6518 7.65256 29.4339 7.91605 29.1609L18.0171 19.0617V19.0598Z"
            fill="#332E2B" />
    </g>
</svg>