<svg width="100" height="102" viewBox="0 0 100 102" fill="none" xmlns="http://www.w3.org/2000/svg">
<path d="M37.61 3.58L37.35 3.52L36.9 3.34L36.7 3.72C35.81 5.66535 35.4446 7.8097 35.64 9.94C35.96 10.06 36.3 10.2 36.64 10.36C36.64 10.3 36.64 10.25 36.64 10.19C36.64 10.13 36.64 9.91001 36.64 9.76001C36.635 9.70011 36.635 9.6399 36.64 9.58V9.50999C36.6195 9.12026 36.6195 8.72973 36.64 8.34C36.64 8.05 36.7 7.78 36.74 7.52C36.78 7.26 36.74 7.26999 36.81 7.14999C36.88 7.02999 36.91 6.68 36.96 6.47L37.05 6.16C37.0877 6.01064 37.1345 5.8637 37.19 5.72C37.2139 5.63461 37.244 5.55106 37.28 5.47C37.2744 5.4369 37.2744 5.40309 37.28 5.37C37.2965 5.31866 37.3165 5.26855 37.34 5.22L37.4 5.07001L37.46 4.93001V4.85001H37.51C37.6939 4.90433 37.8809 4.94773 38.07 4.98L38.35 5.05L38.55 5.11L38.77 5.18001H38.84C39.6221 5.43856 40.3655 5.80185 41.05 6.25999L41.38 6.48C41.68 6.68 41.99 6.91 42.31 7.17C42.54 7.36 42.77 7.56 43.01 7.78C43.25 8 43.5 8.24 43.75 8.5C44 8.76 44.18 8.95 44.4 9.2C44.55 8.95 44.72 8.7 44.89 8.47C41.51 4.41 38.62 3.8 37.61 3.58ZM46.07 9.58L45.97 9.73001C45.9343 9.77276 45.9041 9.81977 45.88 9.87C45.77 10.02 45.68 10.18 45.58 10.33C45.7 10.13 45.82 9.93 45.94 9.75L46.06 9.58H46.07Z" fill="white" stroke="white" stroke-miterlimit="10"/>
<path d="M36.63 8.34C36.6095 8.72973 36.6095 9.12026 36.63 9.50999C36.6046 9.12041 36.6046 8.72958 36.63 8.34Z" fill="white" stroke="white" stroke-miterlimit="10"/>
<path d="M37.57 4.77V4.85001C37.5668 4.82344 37.5668 4.79657 37.57 4.77Z" fill="white" stroke="white" stroke-miterlimit="10"/>
<path d="M43.13 7.72C41.8944 6.58728 40.4558 5.69835 38.89 5.10001H38.96C39.742 5.35855 40.4855 5.72186 41.17 6.18001L41.5 6.39999C41.8 6.59999 42.11 6.83 42.43 7.09C42.66 7.28 42.89 7.48 43.13 7.72Z" fill="white" stroke="white" stroke-miterlimit="10"/>
<path d="M39.07 13.09C38.68 12.85 38.3 12.64 37.93 12.45C38.29 12.61 38.67 12.84 39.07 13.09Z" fill="white" stroke="white" stroke-miterlimit="10"/>
<path d="M42.24 15.34C41.3514 14.6219 40.4233 13.9542 39.46 13.34C40.4304 13.9437 41.3591 14.6119 42.24 15.34Z" fill="white" stroke="white" stroke-miterlimit="10"/>
<path d="M43.89 20.31C43.8851 20.2735 43.8851 20.2365 43.89 20.2" stroke="white" stroke-miterlimit="10"/>
<path d="M45.24 11C45.12 11.24 45 11.48 44.89 11.73C44.78 11.98 44.66 12.24 44.56 12.51V12.6C44.51 12.76 44.43 12.91 44.38 13.07C44.6015 12.3547 44.8894 11.6617 45.24 11Z" fill="white" stroke="white" stroke-miterlimit="10"/>
<path d="M45.59 10.4C45.5867 10.4232 45.5867 10.4468 45.59 10.47C45.48 10.64 45.38 10.82 45.28 11V10.93L45.55 10.45V10.39L45.59 10.4Z" fill="white" stroke="white" stroke-miterlimit="10"/>
<path d="M38.19 4.88C38.0009 4.84774 37.8139 4.80432 37.63 4.75C37.8201 4.77706 38.0074 4.82056 38.19 4.88Z" fill="white" stroke="white" stroke-miterlimit="10"/>
<path d="M44.51 9.11C44.29 8.86 44.07 8.63 43.86 8.41C44.0867 8.61667 44.3033 8.85 44.51 9.11Z" fill="white" stroke="white" stroke-miterlimit="10"/>
<path d="M45.6 10.39C45.5967 10.4132 45.5967 10.4368 45.6 10.46V10.4V10.39Z" fill="white" stroke="white" stroke-miterlimit="10"/>
<path d="M65.75 16.53C65.75 16.53 65.75 16.53 65.75 16.58C66.1 16.58 66.43 16.53 66.75 16.53C66.7543 16.5102 66.7543 16.4898 66.75 16.47L65.75 16.53ZM65.08 7.25C65.28 7.2 65.45 7.16 65.59 7.14L65.92 7.05C65.6343 7.08971 65.353 7.15668 65.08 7.25ZM64.71 7.36H64.87C64.9027 7.35107 64.9373 7.35107 64.97 7.36H64.88H64.71ZM58.51 12.01L58.85 11.6L58.38 12.15C58.4286 12.1085 58.4722 12.0615 58.51 12.01Z" fill="white" stroke="white" stroke-miterlimit="10"/>
<path d="M67.31 15.14L66.31 15.19V15.14C66.38 14.93 66.45 14.72 66.51 14.51C66.57 14.3 66.62 14.09 66.67 13.89C66.7304 13.6259 66.7771 13.3589 66.81 13.09C66.81 12.94 66.81 12.79 66.81 12.64C66.81 12.49 66.81 12.54 66.81 12.49C66.8153 12.4334 66.8153 12.3765 66.81 12.32C66.8152 12.2334 66.8152 12.1466 66.81 12.06C66.815 11.9767 66.815 11.8933 66.81 11.81C66.81 11.68 66.81 11.55 66.81 11.42C66.8201 11.2635 66.8201 11.1065 66.81 10.95C66.8108 10.7187 66.7907 10.4877 66.75 10.26C66.75 10.12 66.75 9.98001 66.75 9.85001C66.75 9.72001 66.75 9.59 66.68 9.47C66.6438 9.23722 66.5937 9.00681 66.53 8.78C66.47 8.57 66.42 8.37 66.36 8.19C66.2437 7.80402 66.0931 7.4292 65.91 7.07001C65.6243 7.10971 65.343 7.17668 65.07 7.27H64.98H64.89H64.72C64.6943 7.28004 64.6657 7.28004 64.64 7.27L64.49 7.33L64.33 7.38C63.5111 7.72403 62.7411 8.17458 62.04 8.72L61.72 8.95C61.6086 9.02351 61.5018 9.10366 61.4 9.19L61.06 9.47C60.8166 9.66146 60.583 9.86504 60.36 10.08L60 10.43C59.89 10.53 59.77 10.64 59.66 10.76C59.4 11.02 59.13 11.31 58.87 11.61L58.4 12.16L58.13 12.49C57.99 12.66 57.85 12.84 57.72 13.02C57.6934 13.0509 57.6699 13.0844 57.65 13.12C57.48 13.34 57.33 13.56 57.19 13.78C57.0202 14.016 56.8665 14.2632 56.73 14.52C56.6051 14.7236 56.4916 14.9339 56.39 15.15C56.2637 15.3787 56.1534 15.616 56.06 15.86C55.97 16.08 55.88 16.3 55.81 16.51C55.74 16.72 55.68 16.88 55.63 17.06V17.18C55.57 17.37 55.53 17.56 55.49 17.74C55.45 17.92 55.41 18.13 55.38 18.32C55.01 18.5 54.66 18.7 54.32 18.9C54.6316 16.5582 55.5754 14.3457 57.05 12.5C57.14 12.39 57.22 12.27 57.31 12.17C57.59 11.8 57.87 11.46 58.15 11.17C58.57 10.68 58.98 10.24 59.39 9.82999C62.55 6.66999 65.02 6.14 65.95 5.94L66.22 5.88L66.66 5.7L66.86 6.08C68.1499 8.93454 68.3107 12.1717 67.31 15.14Z" fill="white" stroke="white" stroke-miterlimit="10"/>
<path d="M64.43 7.47C62.773 8.15104 61.2673 9.15369 60 10.42L60.36 10.07C60.583 9.85506 60.8166 9.65147 61.06 9.46001L61.4 9.18001C61.5018 9.09367 61.6086 9.01352 61.72 8.94L62.04 8.71001C62.7306 8.22152 63.4798 7.82172 64.27 7.52L64.43 7.47Z" fill="white" stroke="white" stroke-miterlimit="10"/>
<path d="M64.97 7.29001C64.9373 7.28108 64.9027 7.28108 64.87 7.29001H64.97Z" fill="white" stroke="white" stroke-miterlimit="10"/>
<path d="M61.64 17.27C61.28 17.37 60.91 17.47 60.53 17.59C60.15 17.71 59.53 17.91 58.98 18.1L58.26 18.36L58.98 18.09C59.51 17.9 59.98 17.72 60.53 17.58C61.08 17.44 61.28 17.35 61.64 17.27Z" fill="white" stroke="white" stroke-miterlimit="10"/>
<path d="M65.75 16.53C65.75 16.53 65.75 16.53 65.75 16.58L65.02 16.65C64.2405 16.7358 63.4661 16.8626 62.7 17.03C63.54 16.84 64.31 16.7 65.03 16.61L65.77 16.53H65.75Z" fill="white" stroke="white" stroke-miterlimit="10"/>
<path d="M66.9 12.64C66.9 12.79 66.9 12.94 66.9 13.09C66.8671 13.3589 66.8203 13.6259 66.76 13.89C66.76 14.09 66.66 14.3 66.6 14.51C66.54 14.72 66.47 14.93 66.4 15.14V15.19C66.6683 14.3631 66.8362 13.507 66.9 12.64Z" fill="white" stroke="white" stroke-miterlimit="10"/>
<path d="M58.87 11.6L58.53 12.01C58.4922 12.0615 58.4486 12.1085 58.4 12.15L58.87 11.6Z" fill="white" stroke="white" stroke-miterlimit="10"/>
<path d="M64.97 7.29001C64.9373 7.28108 64.9027 7.28108 64.87 7.29001H64.71H64.88H64.97Z" fill="white" stroke="white" stroke-miterlimit="10"/>
<path d="M65.92 7.05L65.59 7.14C65.45 7.14 65.28 7.2 65.08 7.25C65.353 7.15668 65.6343 7.08971 65.92 7.05Z" fill="white" stroke="white" stroke-miterlimit="10"/>
<path d="M65.72 16.53V16.58L64.99 16.65L65.72 16.53Z" fill="white" stroke="white" stroke-miterlimit="10"/>
<path d="M60.51 17.58C60.01 17.72 59.51 17.9 58.96 18.09L58.24 18.36L58.96 18.1C59.5 17.91 59.96 17.74 60.51 17.59C61.06 17.44 61.26 17.37 61.62 17.27C61.28 17.35 60.91 17.46 60.51 17.58ZM70.96 16.95C71.72 17.17 72.19 17.4 72.42 17.44C71.955 17.2355 71.4732 17.0715 70.98 16.95H70.96Z" fill="white" stroke="white" stroke-miterlimit="10"/>
<path d="M74.3 16.31L74.25 16.9C73.9326 19.2159 73.1485 21.4434 71.9453 23.4476C70.7421 25.4518 69.1448 27.191 67.25 28.56H64.99C66.9338 27.4502 68.6047 25.9195 69.88 24.08L70.18 23.61C71.3824 21.7688 72.1548 19.6805 72.44 17.5C71.9686 17.2944 71.48 17.1304 70.98 17.01C69.6109 16.6282 68.1899 16.4662 66.77 16.53L65.77 16.59L65.03 16.67C64.31 16.76 63.54 16.9 62.7 17.09L62.31 17.18L61.7 17.33C61.34 17.41 60.97 17.52 60.59 17.64C60.21 17.76 59.59 17.96 59.04 18.15L58.32 18.42C57.2814 18.811 56.2778 19.2894 55.32 19.85C54.96 20.0567 54.6267 20.2767 54.32 20.51C52.6301 21.6434 51.2182 23.1441 50.19 24.9C50.02 25.21 49.86 25.51 49.72 25.8C49.3888 26.4957 49.1275 27.2226 48.94 27.97C48.94 28.19 48.94 28.4 48.94 28.59H47.13C47.13 28.49 47.13 28.38 47.2 28.27C47.27 28.16 47.2 28.21 47.2 28.18C47.2 28.04 47.28 27.9 47.33 27.75C47.6525 26.645 48.1092 25.5838 48.69 24.59L48.93 24.2C49.16 23.84 49.42 23.46 49.71 23.09C50.9954 21.4202 52.5913 20.0144 54.41 18.95C54.75 18.75 55.1 18.55 55.47 18.37C56.2643 17.9484 57.0862 17.5809 57.93 17.27C58.29 17.13 58.64 17.01 58.99 16.89H59.09C59.61 16.71 60.09 16.55 60.61 16.4C62.2434 15.9069 63.9162 15.5556 65.61 15.35L66.43 15.27L67.43 15.22C69.472 15.1106 71.5146 15.4238 73.43 16.14C73.5475 16.19 73.6677 16.2334 73.79 16.27L74.3 16.31Z" fill="white" stroke="white" stroke-miterlimit="10"/>
<path d="M66.76 16.47C66.7643 16.4898 66.7643 16.5102 66.76 16.53C66.43 16.53 66.1 16.53 65.76 16.58L65.03 16.65C64.2505 16.7358 63.4761 16.8626 62.71 17.03C63.55 16.84 64.32 16.7 65.04 16.61L65.78 16.53L66.76 16.47Z" fill="white" stroke="white" stroke-miterlimit="10"/>
<path d="M69.89 24.08C68.6147 25.9195 66.9438 27.4502 65 28.56H64.9C66.6982 27.5578 68.2708 26.1962 69.52 24.56C69.65 24.42 69.77 24.25 69.89 24.08Z" fill="white" stroke="white" stroke-miterlimit="10"/>
<path d="M61.64 17.27C61.28 17.37 60.91 17.47 60.53 17.59C60.15 17.71 59.53 17.91 58.98 18.1L58.26 18.36L58.98 18.09C59.51 17.9 59.98 17.72 60.53 17.58C61.08 17.44 61.28 17.35 61.64 17.27Z" fill="white" stroke="white" stroke-miterlimit="10"/>
<path d="M72.44 17.44C72.21 17.44 71.74 17.17 70.98 16.95C71.48 17.0704 71.9686 17.2344 72.44 17.44Z" fill="white" stroke="white" stroke-miterlimit="10"/>
<path d="M39.51 13.33C40.4733 13.9442 41.4014 14.6119 42.29 15.33C41.4091 14.6019 40.4804 13.9337 39.51 13.33Z" fill="white" stroke="white" stroke-miterlimit="10"/>
<path d="M30.45 10.43C30.0997 12.6764 30.0997 14.9636 30.45 17.21C30.5087 17.5284 30.5889 17.8424 30.69 18.15C30.69 18.26 30.76 18.38 30.8 18.5C31.74 21.32 33.69 25.06 39.99 28.56H37.32C36.3198 27.8614 35.3676 27.0963 34.47 26.27C32.1081 24.1944 30.3524 21.518 29.3893 18.5248C28.4262 15.5316 28.2917 12.3335 29 9.27L29.16 8.7L29.83 8.83H30.21C32.0837 8.83365 33.9385 9.20395 35.67 9.92001C35.99 10.04 36.33 10.18 36.67 10.34C37.01 10.5 37.34 10.65 37.67 10.83C39.3719 11.7211 40.9829 12.7761 42.48 13.98C42.39 14.41 42.31 14.86 42.24 15.32C41.3591 14.5919 40.4304 13.9237 39.46 13.32L39.07 13.08C38.67 12.83 38.29 12.6 37.92 12.41C37.55 12.22 37.25 12.05 36.92 11.9C36.55 11.72 36.2 11.57 35.86 11.43C34.656 10.9361 33.3856 10.6227 32.09 10.5H32.01C31.4933 10.4279 30.971 10.4044 30.45 10.43Z" fill="white" stroke="white" stroke-miterlimit="10"/>
<path d="M37.92 12.42C38.29 12.61 38.67 12.82 39.06 13.06C38.67 12.84 38.29 12.61 37.92 12.42ZM43.92 20.2C43.9151 20.2365 43.9151 20.2735 43.92 20.31C43.8983 20.2759 43.8814 20.2388 43.87 20.2H43.92Z" fill="white" stroke="white" stroke-miterlimit="10"/>
<path d="M42.24 15.34C41.3514 14.6219 40.4233 13.9542 39.46 13.34C40.4304 13.9437 41.3591 14.6119 42.24 15.34Z" fill="white" stroke="white" stroke-miterlimit="10"/>
<path d="M58.98 18.09C59.52 17.9 59.98 17.73 60.53 17.58C60.03 17.72 59.51 17.9 58.98 18.09ZM45.88 9.92001C45.9041 9.88157 45.9309 9.84481 45.96 9.81C45.9297 9.84386 45.9029 9.88073 45.88 9.92001ZM53.51 3.72C53.6841 3.90637 53.8713 4.08014 54.07 4.24001L54.27 4.41C54.0339 4.16171 53.7799 3.93109 53.51 3.72ZM58.43 12.11C58.4786 12.0685 58.5222 12.0215 58.56 11.97L58.9 11.56L58.43 12.11ZM43.9 20.16C43.8951 20.1965 43.8951 20.2335 43.9 20.27C43.8879 20.2476 43.8779 20.2242 43.87 20.2L43.9 20.16Z" fill="white" stroke="white" stroke-miterlimit="10"/>
<path d="M59.38 9.78C58.97 10.19 58.56 10.63 58.14 11.12L57.96 10.53C57.78 9.96 57.58 9.43 57.37 8.94L57.16 8.47L56.94 8.03C56.8748 7.8859 56.8013 7.74567 56.72 7.61C56.57 7.34 56.42 7.1 56.27 6.86L56.04 6.52L55.81 6.2C55.73 6.1 55.66 6 55.58 5.91C55.3197 5.55773 55.0358 5.22362 54.73 4.91L54.63 4.8L54.43 4.60001L54.25 4.42C54.0207 4.169 53.7733 3.93505 53.51 3.72L53.39 3.78C53.3537 3.77322 53.3164 3.77322 53.28 3.78C53.11 3.85 52.85 3.97 52.52 4.14L52.17 4.32001C51.3966 4.73141 50.6546 5.19934 49.95 5.72L49.44 6.10001C49.2733 6.22667 49.1033 6.36667 48.93 6.52C48.7567 6.67334 48.5867 6.82333 48.42 6.97L47.9 7.46001C47.73 7.63001 47.57 7.81001 47.4 7.99001C47.0847 8.30627 46.7876 8.64014 46.51 8.99001L46.2 9.42L46.12 9.52L46.02 9.67C45.9843 9.71274 45.9541 9.75977 45.93 9.81C45.82 9.96 45.73 10.12 45.63 10.27V10.33L45.36 10.81V10.88C44.9956 11.5402 44.6943 12.2333 44.46 12.95C44.38 13.18 44.31 13.42 44.25 13.66C44.19 13.9 44.18 13.92 44.15 14.05C44.07 14.36 44.01 14.68 43.96 15C43.9074 15.3079 43.8707 15.6183 43.85 15.93C43.85 16.11 43.85 16.29 43.85 16.48C43.85 16.67 43.85 16.98 43.85 17.24C43.85 17.5 43.85 17.56 43.85 17.72C43.85 17.88 43.85 18.05 43.85 18.2C43.85 18.35 43.85 18.58 43.85 18.76C43.85 19.15 43.91 19.52 43.97 19.88C43.9603 19.9463 43.9603 20.0137 43.97 20.08C43.9651 20.1165 43.9651 20.1535 43.97 20.19L44.06 20.74C44.06 20.98 44.15 21.2 44.2 21.42C44.25 21.64 44.37 22.11 44.47 22.42C44.57 22.73 44.64 22.97 44.74 23.23C44.84 23.49 44.94 23.76 45.05 24.01C45.16 24.26 45.3 24.56 45.43 24.81C45.53 25.02 45.64 25.21 45.75 25.41L46.08 25.96C46.19 26.14 46.31 26.31 46.43 26.47C46.55 26.63 46.68 26.83 46.81 26.99C46.96 27.18 47.1 27.35 47.25 27.51C47.25 27.66 47.16 27.8 47.12 27.94C47.12 27.94 47.12 28 47.12 28.03C47.12 28.06 47.12 28.25 47.05 28.35H45.73C45.51 28.07 45.29 27.76 45.08 27.44C43.6586 25.3207 42.748 22.9006 42.42 20.37C42.35 19.96 42.3 19.54 42.26 19.11C42.2649 19.0836 42.2649 19.0564 42.26 19.03C42.26 18.58 42.2 18.12 42.2 17.63C42.2 17.5 42.2 17.36 42.2 17.22C42.2 17.08 42.2 16.75 42.2 16.52C42.2 16.29 42.2 15.85 42.27 15.52V15.21C42.34 14.75 42.42 14.3 42.51 13.87C42.8644 12.2579 43.4864 10.7166 44.35 9.31C44.4108 9.19976 44.4776 9.09294 44.55 8.99001C44.7 8.74001 44.87 8.48999 45.04 8.25999C47.1806 5.41291 50.0232 3.16985 53.29 1.75L53.96 1.48L54.41 2.06C54.5115 2.15908 54.6183 2.25255 54.73 2.34C56.9695 4.31591 58.5853 6.90112 59.38 9.78Z" fill="white" stroke="white" stroke-miterlimit="10"/>
<path d="M43.89 20.31C43.8851 20.2735 43.8851 20.2365 43.89 20.2" stroke="white" stroke-miterlimit="10"/>
<path d="M46.15 9.53L46.08 9.64L45.96 9.81C45.84 9.99 45.72 10.19 45.6 10.39C45.5967 10.4132 45.5967 10.4368 45.6 10.46C45.49 10.63 45.39 10.81 45.29 10.99V10.92L45.56 10.44V10.38C45.66 10.23 45.75 10.07 45.86 9.92001C45.8841 9.86979 45.9143 9.82274 45.95 9.78L46.05 9.63L46.15 9.53Z" fill="white" stroke="white" stroke-miterlimit="10"/>
<path d="M58.14 11.12C57.48 8.82906 56.3225 6.71204 54.75 4.92C55.0557 5.23361 55.3397 5.56772 55.6 5.92C55.68 6.01 55.75 6.11001 55.83 6.21001L56.06 6.53L56.29 6.87C56.44 7.11 56.59 7.35 56.74 7.62C56.8213 7.75567 56.8948 7.89591 56.96 8.04001L57.18 8.48L57.39 8.95C57.6 9.44 57.8 9.95001 57.98 10.54L58.14 11.12Z" fill="white" stroke="white" stroke-miterlimit="10"/>
<path d="M58.98 18.09L58.26 18.35" stroke="white" stroke-miterlimit="10"/>
<path d="M54.24 4.45L54.04 4.28C53.8502 4.10622 53.6731 3.91908 53.51 3.72C53.771 3.94503 54.015 4.18903 54.24 4.45Z" fill="white" stroke="white" stroke-miterlimit="10"/>
<path d="M72.56 40.72C73.3818 40.471 74.1016 39.9641 74.613 39.2744C75.1245 38.5847 75.4004 37.7487 75.4 36.89V32.54C75.4 31.4791 74.9786 30.4617 74.2284 29.7116C73.4783 28.9614 72.4609 28.54 71.4 28.54H29.98C28.9191 28.54 27.9017 28.9614 27.1516 29.7116C26.4014 30.4617 25.98 31.4791 25.98 32.54V36.89C25.9774 37.7504 26.2524 38.5886 26.764 39.2804C27.2756 39.9721 27.9966 40.4805 28.82 40.73C28.8573 43.2114 29.4265 45.6559 30.4892 47.8985C31.5518 50.1412 33.0832 52.1297 34.98 53.73H29.98C28.23 53.73 26.85 55.61 26.85 58.01V58.87H74.51V58.01C74.51 55.61 73.13 53.73 71.37 53.73H66.37C68.2745 52.1323 69.813 50.1435 70.8811 47.8987C71.9491 45.6539 72.5217 43.2056 72.56 40.72ZM28.83 38.85C28.4866 38.6424 28.2035 38.3486 28.0087 37.9978C27.814 37.6469 27.7145 37.2512 27.72 36.85V32.5C27.72 31.898 27.9592 31.3206 28.3849 30.8949C28.8106 30.4692 29.388 30.23 29.99 30.23H71.41C72.0103 30.2327 72.5851 30.473 73.0087 30.8984C73.4322 31.3238 73.67 31.8997 73.67 32.5V36.85C73.6776 37.2505 73.58 37.6459 73.3869 37.9968C73.1939 38.3478 72.9122 38.6419 72.57 38.85C72.2188 39.0582 71.8183 39.1687 71.41 39.17H29.99C29.5826 39.1717 29.1822 39.0647 28.83 38.86V38.85ZM71.4 55.49C71.93 55.49 72.51 56.15 72.73 57.18H28.67C28.89 56.18 29.47 55.49 29.99 55.49H71.4ZM63.5 53.76H37.89C35.7005 52.3876 33.8857 50.4935 32.6082 48.2474C31.3307 46.0013 30.6304 43.4733 30.57 40.89H70.83C70.7704 43.4748 70.0704 46.0045 68.7929 48.2523C67.5154 50.5002 65.7002 52.396 63.51 53.77L63.5 53.76Z" fill="white" stroke="white" stroke-miterlimit="10"/>
<path d="M7.90003 83.38C6.82108 83.3909 5.74952 83.201 4.74002 82.82C3.81012 82.4585 2.95809 81.9221 2.23003 81.24C1.52387 80.5671 0.962425 79.7573 0.580034 78.86C0.185599 77.9096 -0.0117239 76.889 3.2559e-05 75.86C-0.0134067 74.8309 0.183981 73.8099 0.580034 72.86C0.959919 71.9613 1.5217 71.151 2.23003 70.48C2.95561 69.7946 3.8083 69.2579 4.74002 68.9C5.74178 68.5162 6.80734 68.3261 7.88002 68.34C8.95287 68.3242 10.0188 68.5143 11.02 68.9C11.9451 69.2605 12.7935 69.7933 13.52 70.47C14.2299 71.1396 14.7919 71.9503 15.17 72.85C15.5639 73.8006 15.7612 74.8211 15.75 75.85C15.7604 76.8788 15.5631 77.8992 15.17 78.85C14.7919 79.7497 14.2299 80.5604 13.52 81.23C12.7935 81.9067 11.9451 82.4395 11.02 82.8C10.0255 83.1868 8.96715 83.3835 7.90003 83.38ZM7.90003 81C8.58467 81.0003 9.26321 80.8714 9.90003 80.62C10.5114 80.3796 11.0664 80.0153 11.53 79.55C11.9909 79.0769 12.3575 78.5203 12.61 77.91C12.8743 77.2592 13.0069 76.5624 13 75.86C13.0088 75.1542 12.8762 74.4538 12.61 73.8C12.3574 73.1927 11.9908 72.6394 11.53 72.17C11.0694 71.6986 10.5138 71.3304 9.90003 71.09C9.26255 70.842 8.58403 70.7165 7.90003 70.72C7.19934 70.7114 6.50348 70.837 5.85002 71.09C5.23629 71.3304 4.68068 71.6986 4.22003 72.17C3.75925 72.6394 3.39264 73.1927 3.14003 73.8C2.87732 74.4545 2.74811 75.1549 2.76003 75.86C2.74971 76.5618 2.87888 77.2586 3.14003 77.91C3.39261 78.5203 3.75915 79.0769 4.22003 79.55C4.68371 80.0153 5.23868 80.3796 5.85002 80.62C6.49662 80.8737 7.18543 81.0027 7.88002 81H7.90003ZM12.68 86.37C12.1779 86.3711 11.6775 86.3107 11.19 86.19C10.6914 86.0655 10.2132 85.8702 9.77002 85.61C9.25304 85.2967 8.76451 84.9386 8.31003 84.54C7.81003 84.1 7.26002 83.56 6.66002 82.92L9.55002 82.17C9.88039 82.6172 10.252 83.0323 10.66 83.41C10.9563 83.6869 11.2936 83.9163 11.66 84.09C11.9766 84.2242 12.3162 84.2955 12.66 84.3C13.1382 84.2985 13.6103 84.193 14.0437 83.991C14.4771 83.789 14.8614 83.4952 15.17 83.13L16.42 84.63C15.9664 85.1863 15.3921 85.6321 14.7407 85.9336C14.0892 86.2351 13.3777 86.3843 12.66 86.37H12.68Z" fill="white"/>
<path d="M23.11 83.32C22.2427 83.3376 21.3833 83.1526 20.6 82.78C19.8767 82.4316 19.2843 81.8602 18.91 81.15C18.4731 80.2976 18.2631 79.3471 18.3 78.39V72.01H20.91V78.01C20.8499 78.8184 21.0923 79.6202 21.59 80.26C21.8422 80.5141 22.1457 80.7115 22.4802 80.8391C22.8147 80.9667 23.1726 81.0215 23.53 81C24.0838 81.0122 24.6315 80.8813 25.12 80.62C25.5857 80.364 25.9598 79.9689 26.19 79.49C26.4659 78.9133 26.5997 78.279 26.58 77.64V71.99H29.19V83.15H26.7V80.15L27.14 81.07C26.7802 81.7753 26.2108 82.3517 25.51 82.72C24.774 83.1207 23.948 83.3272 23.11 83.32Z" fill="white"/>
<path d="M33.93 70.17C33.7092 70.1792 33.4888 70.1432 33.2824 70.0641C33.0761 69.985 32.8881 69.8645 32.73 69.71C32.5794 69.5694 32.4598 69.399 32.3789 69.2096C32.298 69.0202 32.2575 68.816 32.26 68.61C32.2553 68.4008 32.2947 68.1929 32.3757 67.9999C32.4567 67.807 32.5774 67.6332 32.73 67.49C32.8899 67.3387 33.0784 67.221 33.2845 67.1437C33.4906 67.0665 33.7101 67.0312 33.93 67.04C34.3709 67.0201 34.802 67.1746 35.13 67.47C35.2835 67.6017 35.4054 67.7663 35.4868 67.9515C35.5681 68.1367 35.6068 68.3378 35.6 68.54C35.6061 68.7545 35.5684 68.9679 35.4894 69.1673C35.4103 69.3668 35.2914 69.548 35.14 69.7C34.9831 69.8596 34.7941 69.984 34.5855 70.065C34.3769 70.146 34.1535 70.1818 33.93 70.17ZM32.62 83.17V72.01H35.23V83.17H32.62Z" fill="white"/>
<path d="M37.17 74.19V72.1H44.61V74.19H37.17ZM42.85 83.32C41.8092 83.3693 40.7903 83.0105 40.01 82.32C39.6569 81.947 39.3856 81.5044 39.2134 81.0205C39.0413 80.5367 38.972 80.0222 39.01 79.51V69.51H41.62V79.45C41.5946 79.9004 41.7412 80.3435 42.03 80.69C42.1786 80.8385 42.3572 80.9536 42.5537 81.0277C42.7503 81.1019 42.9604 81.1333 43.17 81.12C43.6934 81.1383 44.2078 80.9798 44.63 80.67L45.36 82.53C45.0249 82.7909 44.6406 82.9814 44.23 83.09C43.7824 83.2282 43.3182 83.3056 42.85 83.32Z" fill="white"/>
<path d="M57.12 83.17V77.38L57.73 79.05L51.38 68.54H54.28L59.38 77.01H57.75L62.89 68.54H65.57L59.21 79.05L59.84 77.38V83.17H57.12Z" fill="white"/>
<path d="M70.85 83.32C69.8037 83.3292 68.772 83.0747 67.85 82.58C66.9845 82.1084 66.2572 81.419 65.74 80.58C65.2212 79.6844 64.9551 78.6649 64.97 77.63C64.951 76.5946 65.2174 75.574 65.74 74.68C66.2524 73.8371 66.9809 73.1465 67.85 72.68C68.7729 72.1888 69.8046 71.9378 70.85 71.95C71.9221 71.9268 72.9824 72.1781 73.93 72.68C74.8045 73.1391 75.5348 73.8314 76.04 74.68C76.5706 75.589 76.8373 76.6279 76.81 77.68C76.825 78.7149 76.5588 79.7345 76.04 80.63C75.5307 81.4754 74.8015 82.1667 73.93 82.63C72.9787 83.1181 71.9186 83.3555 70.85 83.32ZM70.85 81.08C71.4498 81.0893 72.042 80.9447 72.57 80.66C73.0737 80.3813 73.4841 79.9605 73.75 79.45C74.0406 78.8739 74.1848 78.2351 74.17 77.59C74.1873 76.9415 74.043 76.2988 73.75 75.72C73.4792 75.2156 73.0698 74.7992 72.57 74.52C72.0487 74.2365 71.4633 74.0919 70.87 74.1C70.2762 74.0878 69.6898 74.2326 69.17 74.52C68.6732 74.8031 68.2647 75.2185 67.99 75.72C67.6856 76.2954 67.5341 76.9393 67.55 77.59C67.5367 78.2373 67.6881 78.8773 67.99 79.45C68.2593 79.9581 68.6688 80.3781 69.17 80.66C69.6832 80.9457 70.2628 81.0906 70.85 81.08Z" fill="white"/>
<path d="M84.04 83.32C83.1726 83.3387 82.313 83.1537 81.53 82.78C80.8046 82.4346 80.2114 81.8624 79.84 81.15C79.4032 80.2976 79.1931 79.3471 79.23 78.39V72.01H81.84V78.01C81.78 78.8184 82.0223 79.6202 82.52 80.26C82.7703 80.5138 83.0721 80.7112 83.4049 80.8388C83.7378 80.9664 84.0941 81.0214 84.45 81C85.0071 81.013 85.5582 80.8822 86.05 80.62C86.5133 80.3609 86.8865 79.9667 87.12 79.49C87.3882 78.9111 87.5183 78.2778 87.5 77.64V71.99H90.12V83.15H87.63V80.15L88.07 81.07C87.705 81.7782 87.1282 82.355 86.42 82.72C85.6888 83.1146 84.8709 83.3209 84.04 83.32Z" fill="white"/>
<path d="M93.51 83.17V72.01H96V75.09L95.71 74.19C96.0224 73.4547 96.5762 72.848 97.28 72.47C98.1146 72.0564 99.0391 71.857 99.97 71.89V74.37H99.66H99.36C98.9283 74.3487 98.4968 74.4148 98.0912 74.5643C97.6857 74.7137 97.3146 74.9436 97 75.24C96.6882 75.5893 96.4497 75.9976 96.2985 76.4408C96.1474 76.884 96.0867 77.353 96.12 77.82V83.23L93.51 83.17Z" fill="white"/>
<path d="M7.62 101.33L12.93 89.53H15.09L20.42 101.33H18.13L13.56 90.72H14.44L9.87999 101.36L7.62 101.33ZM10.07 98.6L10.66 96.88H17.03L17.62 98.6H10.07Z" fill="white"/>
<path d="M25.45 101.45C24.6328 101.463 23.8263 101.263 23.11 100.87C22.4332 100.491 21.873 99.9344 21.49 99.26C21.0803 98.5171 20.8766 97.6781 20.9 96.83C20.8766 95.9819 21.0803 95.1429 21.49 94.4C21.8677 93.7241 22.4294 93.1692 23.11 92.8C23.828 92.4107 24.6334 92.2111 25.45 92.22C26.1484 92.2132 26.837 92.3853 27.45 92.72C28.0638 93.0699 28.5584 93.5959 28.87 94.23C29.2471 95.0432 29.4254 95.9343 29.39 96.83C29.4202 97.7199 29.2493 98.6053 28.89 99.42C28.5891 100.057 28.1006 100.588 27.49 100.94C26.8661 101.285 26.1628 101.461 25.45 101.45ZM25.7 99.65C26.175 99.6551 26.6433 99.5381 27.06 99.31C27.4823 99.0794 27.8294 98.7323 28.06 98.31C28.3087 97.8499 28.4328 97.3328 28.42 96.81C28.4346 96.2838 28.3104 95.763 28.06 95.3C27.8303 94.877 27.483 94.5297 27.06 94.3C26.6451 94.0675 26.1755 93.9502 25.7 93.96C25.2246 93.9511 24.7553 94.0684 24.34 94.3C23.9216 94.5358 23.5758 94.8816 23.34 95.3C23.0896 95.763 22.9655 96.2838 22.98 96.81C22.9672 97.3328 23.0913 97.8499 23.34 98.31C23.577 98.7275 23.9225 99.073 24.34 99.31C24.7572 99.5368 25.2252 99.6538 25.7 99.65ZM28.43 101.33V99.21L28.52 96.81L28.35 94.42V88.82H30.44V101.33H28.43Z" fill="white"/>
<path d="M37.04 101.45C36.2227 101.465 35.4158 101.265 34.7 100.87C34.0223 100.489 33.4593 99.933 33.07 99.26C32.6647 98.5153 32.4613 97.6776 32.48 96.83C32.4613 95.9824 32.6647 95.1447 33.07 94.4C33.4543 93.7257 34.0187 93.1717 34.7 92.8C35.4175 92.4095 36.2232 92.2098 37.04 92.22C37.7383 92.2145 38.4265 92.3865 39.04 92.72C39.6538 93.0699 40.1484 93.5959 40.46 94.23C40.8371 95.0432 41.0154 95.9343 40.98 96.83C41.0124 97.7211 40.8378 98.6077 40.47 99.42C40.1752 100.062 39.6852 100.594 39.07 100.94C38.4506 101.287 37.7499 101.463 37.04 101.45ZM37.29 99.65C37.765 99.6551 38.2333 99.5381 38.65 99.31C39.0723 99.0794 39.4194 98.7323 39.65 98.31C39.8987 97.8499 40.0228 97.3328 40.01 96.81C40.0246 96.2838 39.9004 95.763 39.65 95.3C39.4203 94.877 39.073 94.5297 38.65 94.3C38.235 94.0675 37.7655 93.9502 37.29 93.96C36.8145 93.9502 36.345 94.0675 35.93 94.3C35.507 94.5297 35.1597 94.877 34.93 95.3C34.6796 95.763 34.5554 96.2838 34.57 96.81C34.5572 97.3328 34.6813 97.8499 34.93 98.31C35.1606 98.7323 35.5077 99.0794 35.93 99.31C36.3467 99.5381 36.815 99.6551 37.29 99.65ZM40.02 101.33V99.21L40.11 96.81L39.94 94.42V88.82H42.03V101.33H40.02Z" fill="white"/>
<path d="M45.87 90.84C45.6866 90.8525 45.5027 90.826 45.3303 90.7622C45.1579 90.6985 45.0011 90.5989 44.87 90.47C44.7478 90.3566 44.6509 90.2187 44.5854 90.0654C44.52 89.9121 44.4875 89.7467 44.49 89.58C44.4853 89.4101 44.5167 89.2411 44.5822 89.0842C44.6477 88.9273 44.7458 88.7861 44.87 88.67C45.003 88.5445 45.1604 88.4477 45.3325 88.3858C45.5045 88.3238 45.6875 88.298 45.87 88.31C46.0516 88.299 46.2335 88.3243 46.4052 88.3844C46.5769 88.4445 46.7349 88.5382 46.87 88.66C46.9943 88.7675 47.0929 88.9014 47.1587 89.0519C47.2244 89.2025 47.2556 89.3658 47.25 89.53C47.2551 89.7021 47.2249 89.8734 47.1613 90.0333C47.0977 90.1933 47.0019 90.3385 46.88 90.46C46.7487 90.592 46.5905 90.6942 46.4163 90.7597C46.242 90.8253 46.0557 90.8527 45.87 90.84ZM44.81 101.33V92.33H46.92V101.33H44.81Z" fill="white"/>
<path d="M53.82 101.45C52.9426 101.468 52.0753 101.261 51.3 100.85C50.5837 100.473 49.9852 99.9051 49.57 99.21C49.1443 98.49 48.9263 97.6663 48.94 96.83C48.9233 95.9902 49.1415 95.1625 49.57 94.44C49.9858 93.7479 50.5844 93.1839 51.3 92.81C52.0779 92.4069 52.944 92.2041 53.82 92.22C54.6263 92.2031 55.424 92.3887 56.14 92.76C56.8027 93.1011 57.3363 93.6487 57.66 94.32L56.04 95.26C55.803 94.8578 55.4561 94.5317 55.04 94.32C54.6528 94.1122 54.2194 94.0056 53.78 94.01C53.2919 94.0011 52.8097 94.1182 52.38 94.35C51.9563 94.5787 51.6088 94.9263 51.38 95.35C51.1369 95.8154 51.0165 96.3351 51.03 96.86C51.0178 97.3848 51.1382 97.9041 51.38 98.37C51.612 98.7913 51.9587 99.138 52.38 99.37C52.8121 99.5954 53.2926 99.7121 53.78 99.71C54.2188 99.7094 54.651 99.6031 55.04 99.4C55.4561 99.1883 55.803 98.8622 56.04 98.46L57.66 99.4C57.3304 100.067 56.7984 100.613 56.14 100.96C55.4211 101.318 54.6225 101.487 53.82 101.45Z" fill="white"/>
<path d="M58.41 94.08V92.39H64.41V94.08H58.41ZM62.99 101.45C62.1554 101.502 61.3334 101.226 60.7 100.68C60.4154 100.378 60.1964 100.021 60.057 99.6299C59.9176 99.2392 59.8607 98.8238 59.89 98.41V90.34H62V98.34C61.9778 98.7033 62.0959 99.0613 62.33 99.34C62.4487 99.4617 62.5925 99.556 62.7514 99.6165C62.9103 99.6769 63.0804 99.702 63.25 99.69C63.6741 99.7057 64.0908 99.575 64.43 99.32L65.02 100.82C64.7536 101.038 64.4431 101.195 64.11 101.28C63.7462 101.388 63.3694 101.445 62.99 101.45Z" fill="white"/>
<path d="M67.82 90.84C67.6366 90.8525 67.4527 90.826 67.2803 90.7622C67.1079 90.6985 66.951 90.5989 66.82 90.47C66.6998 90.3551 66.6041 90.2169 66.5388 90.0639C66.4735 89.911 66.4399 89.7463 66.44 89.58C66.4377 89.4104 66.4703 89.2421 66.5356 89.0856C66.601 88.9291 66.6978 88.7876 66.82 88.67C66.9533 88.545 67.1108 88.4485 67.2828 88.3866C67.4547 88.3247 67.6376 88.2986 67.82 88.31C68.1861 88.2922 68.5448 88.4178 68.82 88.66C68.9421 88.7692 69.0393 88.9034 69.1049 89.0536C69.1704 89.2037 69.2029 89.3662 69.2 89.53C69.2028 89.7018 69.1716 89.8724 69.1081 90.032C69.0446 90.1917 68.9501 90.3371 68.83 90.46C68.6975 90.5904 68.5392 90.6916 68.3653 90.757C68.1913 90.8225 68.0055 90.8507 67.82 90.84ZM66.76 101.33V92.33H68.86V101.33H66.76Z" fill="white"/>
<path d="M75.68 101.45C74.8187 101.466 73.9679 101.259 73.21 100.85C72.5105 100.46 71.9246 99.895 71.51 99.21C71.0921 98.4873 70.8778 97.6648 70.89 96.83C70.875 95.9917 71.0894 95.1653 71.51 94.44C71.9252 93.7581 72.5112 93.1962 73.21 92.81C73.9707 92.409 74.8202 92.2061 75.68 92.22C76.5431 92.2053 77.396 92.4082 78.16 92.81C78.8652 93.1866 79.4559 93.7462 79.87 94.43C80.2884 95.1594 80.4993 95.9893 80.48 96.83C80.4957 97.6639 80.2849 98.4865 79.87 99.21C79.4599 99.9021 78.8686 100.469 78.16 100.85C77.3991 101.261 76.5446 101.468 75.68 101.45ZM75.68 99.65C76.1613 99.655 76.6361 99.5381 77.06 99.31C77.4877 99.0867 77.8367 98.7377 78.06 98.31C78.2998 97.847 78.4201 97.3314 78.41 96.81C78.4235 96.2851 78.3031 95.7654 78.06 95.3C77.8378 94.8715 77.4885 94.5222 77.06 94.3C76.6416 94.0672 76.1687 93.9498 75.69 93.96C75.2113 93.9498 74.7384 94.0672 74.32 94.3C73.8938 94.5253 73.5453 94.8738 73.32 95.3C73.0696 95.763 72.9454 96.2838 72.96 96.81C72.9472 97.3328 73.0713 97.8499 73.32 98.31C73.5468 98.7351 73.8949 99.0832 74.32 99.31C74.7367 99.5381 75.205 99.6552 75.68 99.65Z" fill="white"/>
<path d="M87.62 92.22C88.288 92.2118 88.9487 92.359 89.55 92.65C90.1186 92.9322 90.5864 93.3826 90.89 93.94C91.2441 94.6282 91.4129 95.3968 91.38 96.17V101.33H89.27V96.44C89.3185 95.7937 89.1182 95.1534 88.71 94.65C88.5014 94.4483 88.2534 94.2918 87.9815 94.1903C87.7097 94.0888 87.4198 94.0444 87.13 94.06C86.6708 94.0498 86.2166 94.1565 85.81 94.37C85.4304 94.5714 85.1228 94.8859 84.93 95.27C84.7059 95.7408 84.5996 96.259 84.62 96.78V101.33H82.51V92.33H84.51V94.72L84.15 93.98C84.4691 93.435 84.9423 92.9966 85.51 92.72C86.1615 92.3823 86.8863 92.2106 87.62 92.22Z" fill="white"/>
</svg>
