<svg width="150" height="74" viewBox="0 0 150 74" fill="none" xmlns="http://www.w3.org/2000/svg">
<path d="M22.8474 41.3937C22.3861 41.9427 21.8104 42.3844 21.1607 42.6878C20.5109 42.9912 19.8027 43.149 19.0856 43.1501C18.5487 43.1487 18.0175 43.0405 17.5228 42.832C16.9491 42.5791 16.421 42.2334 15.9599 41.8086C15.7633 41.6516 15.5826 41.4755 15.4206 41.283C15.798 41.1856 16.1678 41.0608 16.527 40.9096C17.923 40.3866 19.2015 39.5923 20.2888 38.5724C21.3516 37.5613 22.1944 36.3419 22.7644 34.9903C23.9078 32.0933 23.9078 28.87 22.7644 25.973C22.1977 24.6237 21.3543 23.4081 20.2888 22.4049C19.1986 21.3854 17.9211 20.587 16.527 20.0537C15.0238 19.4704 13.4232 19.1793 11.8109 19.1962C10.2035 19.1841 8.60828 19.475 7.10865 20.0537C5.7112 20.5866 4.43279 21.3903 3.34685 22.4187C2.29033 23.4297 1.44837 24.6432 0.871246 25.9869C-0.29019 28.8709 -0.29019 32.0925 0.871246 34.9765C1.44473 36.3261 2.28704 37.5449 3.34685 38.5585C4.43356 39.5825 5.71201 40.3815 7.10865 40.9096C8.21565 41.3449 9.38061 41.6152 10.5662 41.7117C11.2439 42.4033 11.8524 42.9979 12.4333 43.5096C13.1093 44.1083 13.841 44.6409 14.6184 45.1001C15.2868 45.4966 16.0087 45.7947 16.7621 45.9853C17.4906 46.1645 18.2385 46.2527 18.9888 46.2481C20.0803 46.2808 21.165 46.0635 22.1597 45.6129C23.1545 45.1622 24.033 44.4902 24.7283 43.648L22.8474 41.3937ZM6.25118 36.0137C5.5537 35.3087 5.00363 34.4719 4.63305 33.552C3.8767 31.5702 3.8767 29.3793 4.63305 27.3976C5.00422 26.4861 5.55445 25.6584 6.25118 24.9634C6.96859 24.245 7.83159 23.6885 8.7821 23.3315C10.7577 22.5935 12.9333 22.5935 14.9089 23.3315C15.8297 23.6988 16.6635 24.2547 17.3568 24.9634C18.0535 25.6584 18.6038 26.4861 18.9749 27.3976C19.7313 29.3793 19.7313 31.5702 18.9749 33.552C18.6043 34.4719 18.0543 35.3087 17.3568 36.0137C16.666 36.722 15.8312 37.2738 14.9089 37.6318C12.9365 38.3876 10.7544 38.3876 8.7821 37.6318C7.84986 37.2773 7.00535 36.7253 6.3065 36.0137H6.25118Z" fill="#332E2B"/>
<path d="M43.7863 24.7145V41.4489H40.0522V39.2914C39.565 39.9233 38.947 40.4423 38.2404 40.8128C37.1389 41.3872 35.9145 41.6862 34.6722 41.6841C33.3673 41.7098 32.0744 41.4304 30.8966 40.8681C29.8157 40.3398 28.9297 39.4829 28.3657 38.4201C27.713 37.1374 27.3989 35.7093 27.4529 34.2711V24.7145H31.3668V33.6902C31.2751 34.8991 31.6403 36.0984 32.3902 37.051C32.7626 37.4353 33.2138 37.7344 33.7128 37.9278C34.2117 38.1211 34.7466 38.2042 35.2807 38.1712C36.1181 38.1906 36.9466 37.9954 37.6872 37.6042C38.3801 37.2104 38.939 36.6178 39.2915 35.903C39.703 35.0406 39.9022 34.0922 39.8724 33.137V24.673L43.7863 24.7145Z" fill="#332E2B"/>
<path d="M50.8949 21.9622C50.5642 21.973 50.2348 21.9173 49.926 21.7986C49.6172 21.6798 49.3353 21.5003 49.097 21.2707C48.8741 21.0542 48.6969 20.7951 48.5759 20.5089C48.4549 20.2226 48.3926 19.915 48.3926 19.6042C48.3926 19.2934 48.4549 18.9858 48.5759 18.6996C48.6969 18.4133 48.8741 18.1542 49.097 17.9377C49.336 17.7099 49.6183 17.5326 49.9271 17.4162C50.236 17.2998 50.5651 17.2467 50.8949 17.26C51.5557 17.2362 52.2001 17.4692 52.6929 17.91C52.9204 18.1098 53.1014 18.3569 53.2233 18.634C53.3451 18.9112 53.4048 19.2116 53.3982 19.5143C53.4086 19.8367 53.3526 20.1578 53.2336 20.4575C53.1147 20.7573 52.9353 21.0294 52.7067 21.2569C52.4699 21.4934 52.1866 21.6781 51.8748 21.7995C51.5629 21.9209 51.2293 21.9763 50.8949 21.9622ZM48.8896 41.4489V24.7145H52.8035V41.4489H48.8896Z" fill="#332E2B"/>
<path d="M68.0305 40.6053C67.5333 41.0045 66.9588 41.2965 66.3432 41.4628C65.6677 41.6511 64.97 41.7488 64.2687 41.7533C62.7232 41.862 61.1959 41.3661 60.009 40.3702C59.4889 39.818 59.0879 39.1647 58.8309 38.4509C58.574 37.7372 58.4666 36.9782 58.5154 36.2212V28.1582H55.8047V24.8389H58.5707V21.0218H62.4846V24.8389H66.8688V27.9645H62.4293V35.9307C62.3825 36.6042 62.6009 37.2694 63.0378 37.784C63.2611 38.0079 63.5296 38.1817 63.8253 38.2938C64.121 38.4059 64.4372 38.4536 64.7528 38.434C65.5373 38.4648 66.3086 38.2256 66.9379 37.7563L68.0305 40.6053Z" fill="#332E2B"/>
<path d="M106.271 41.6703C104.676 41.6982 103.1 41.3172 101.693 40.5638C99.7026 39.3969 98.2531 37.4914 97.66 35.2615C97.0669 33.0316 97.3782 30.6577 98.5261 28.6561C99.2913 27.3809 100.385 26.3348 101.693 25.6273C103.101 24.8781 104.677 24.502 106.271 24.5347C107.878 24.504 109.467 24.8798 110.89 25.6273C112.195 26.3272 113.288 27.3635 114.057 28.6285C114.802 29.9898 115.192 31.5163 115.192 33.0679C115.192 34.6195 114.802 36.1461 114.057 37.5074C113.292 38.7894 112.199 39.8443 110.89 40.5638C109.468 41.3161 107.879 41.6967 106.271 41.6703ZM106.271 38.3233C107.165 38.3417 108.048 38.1222 108.83 37.6872C109.585 37.2706 110.201 36.6404 110.6 35.8755C111.043 35.0217 111.266 34.0711 111.25 33.1094C111.27 32.1474 111.046 31.1959 110.6 30.3434C110.201 29.5785 109.585 28.9482 108.83 28.5317C108.043 28.1243 107.17 27.9116 106.285 27.9116C105.399 27.9116 104.526 28.1243 103.74 28.5317C102.994 28.96 102.381 29.5872 101.97 30.3434C101.516 31.1931 101.292 32.1466 101.32 33.1094C101.297 34.0718 101.521 35.024 101.97 35.8755C102.381 36.6317 102.994 37.2589 103.74 37.6872C104.512 38.1199 105.386 38.3394 106.271 38.3233Z" fill="#332E2B"/>
<path d="M135.148 24.7145V41.4489H131.428V39.2914C130.941 39.9233 130.323 40.4423 129.616 40.8128C128.511 41.3904 127.281 41.6895 126.034 41.6841C124.738 41.7086 123.455 41.4291 122.286 40.8681C121.197 40.3414 120.302 39.4848 119.728 38.4201C119.087 37.1337 118.778 35.7074 118.829 34.2711V24.7145H122.743V33.6902C122.651 34.8991 123.016 36.0984 123.766 37.051C124.138 37.4353 124.59 37.7344 125.089 37.9278C125.588 38.1211 126.122 38.2042 126.657 38.1712C127.494 38.1887 128.322 37.9937 129.063 37.6042C129.759 37.2139 130.318 36.6203 130.667 35.903C131.067 35.0371 131.261 34.0904 131.234 33.137V24.673L135.148 24.7145Z" fill="#332E2B"/>
<path d="M149.988 24.5347V28.255C149.829 28.2194 149.667 28.1963 149.504 28.1859H149.061C148.414 28.1531 147.767 28.2512 147.159 28.4746C146.55 28.698 145.993 29.042 145.521 29.4859C145.043 30.0062 144.675 30.6169 144.437 31.2821C144.2 31.9472 144.098 32.6532 144.138 33.3584V41.4628H140.224V24.7284H143.958V27.1762C144.441 26.438 145.102 25.8338 145.881 25.4199C147.153 24.7814 148.566 24.4768 149.988 24.5347Z" fill="#332E2B"/>
<path d="M13.3876 52.0982H9.51515L0 73.2445H4.05224L6.15442 68.3625H16.7345L18.8228 73.2445H22.9719L13.3876 52.0982ZM7.39913 65.2784L11.3684 56.026L15.3515 65.2784H7.39913Z" fill="#332E2B"/>
<path d="M37.1202 50.8534V59.1515C36.684 58.6162 36.1487 58.1702 35.5435 57.8377C34.4354 57.2398 33.1929 56.9351 31.9339 56.9526C30.484 56.9299 29.0534 57.2875 27.7848 57.9898C26.5681 58.6538 25.5619 59.6457 24.8805 60.8527C24.172 62.1931 23.8016 63.6861 23.8016 65.2022C23.8016 66.7183 24.172 68.2115 24.8805 69.5518C25.5726 70.7578 26.5756 71.756 27.7848 72.4424C29.0578 73.1336 30.4854 73.4905 31.9339 73.4796C33.2233 73.503 34.4964 73.1883 35.6265 72.5668C36.2621 72.2206 36.8218 71.7503 37.2723 71.1838V73.2998H40.8681V50.8534H37.1202ZM36.5393 67.8784C36.1359 68.6155 35.5379 69.2279 34.8105 69.6487C34.0616 70.0458 33.2239 70.2457 32.3764 70.2295C31.5292 70.2427 30.6923 70.043 29.9423 69.6487C29.2205 69.2314 28.6273 68.6237 28.2274 67.8922C27.7874 67.0672 27.5638 66.1441 27.5774 65.2091C27.5409 64.2454 27.7655 63.2897 28.2274 62.4431C28.6282 61.7158 29.2215 61.113 29.9423 60.7006C30.6875 60.2909 31.5261 60.0813 32.3764 60.0921C33.2271 60.0781 34.0665 60.2879 34.8105 60.7006C35.5355 61.1121 36.1336 61.7148 36.5393 62.4431C36.9964 63.2911 37.2162 64.2467 37.1755 65.2091C37.191 66.1382 36.9722 67.0562 36.5393 67.8784Z" fill="#332E2B"/>
<path d="M57.8792 50.8534V59.1515C57.4431 58.6162 56.9078 58.1702 56.3026 57.8377C55.1884 57.2427 53.9421 56.9382 52.6791 56.9526C51.2292 56.9299 49.7987 57.2875 48.53 57.9898C47.3122 58.6571 46.3023 59.6478 45.6119 60.8527C44.9214 62.1986 44.5612 63.6895 44.5612 65.2022C44.5612 66.7149 44.9214 68.2059 45.6119 69.5518C46.3055 70.74 47.297 71.7268 48.4885 72.4147C49.7626 73.1031 51.1894 73.4598 52.6376 73.452C53.9228 73.4768 55.1919 73.162 56.3164 72.5392C56.9587 72.1971 57.5237 71.7263 57.976 71.1562V73.2722H61.5719V50.8534H57.8792ZM57.2845 67.8784C56.8866 68.615 56.2932 69.2276 55.5696 69.6487C54.819 70.0413 53.9825 70.2409 53.1355 70.2295C52.2879 70.2457 51.4503 70.0458 50.7014 69.6487C49.9758 69.2317 49.378 68.6243 48.9726 67.8922C48.5375 67.0659 48.3186 66.1429 48.3364 65.2091C48.2957 64.2467 48.5155 63.2911 48.9726 62.4431C49.3783 61.7148 49.9763 61.1121 50.7014 60.7006C51.4454 60.2879 52.2848 60.0781 53.1355 60.0921C53.9856 60.0832 54.8237 60.2927 55.5696 60.7006C56.2904 61.113 56.8837 61.7158 57.2845 62.4431C57.7464 63.2897 57.971 64.2454 57.9345 65.2091C57.9457 66.1394 57.7222 67.0574 57.2845 67.8784Z" fill="#332E2B"/>
<path d="M68.5008 54.4355C68.1808 54.4463 67.8618 54.3932 67.5626 54.2792C67.2633 54.1653 66.9899 53.9927 66.7582 53.7717C66.5436 53.5617 66.3732 53.3111 66.2568 53.0344C66.1405 52.7577 66.0805 52.4606 66.0805 52.1604C66.0805 51.8603 66.1405 51.5632 66.2568 51.2865C66.3732 51.0098 66.5436 50.7591 66.7582 50.5492C67.2309 50.1117 67.857 49.8781 68.5008 49.8992C69.14 49.875 69.7641 50.0979 70.2434 50.5215C70.4605 50.7192 70.6332 50.9608 70.75 51.2302C70.8668 51.4996 70.9251 51.7907 70.9211 52.0843C70.9281 52.3935 70.8729 52.7009 70.7589 52.9884C70.6449 53.2759 70.4743 53.5375 70.2572 53.7578C70.0269 53.9857 69.752 54.1636 69.4498 54.2802C69.1475 54.3968 68.8244 54.4496 68.5008 54.4355ZM66.5922 73.2445V57.1185H70.3678V73.2445H66.5922Z" fill="#332E2B"/>
<path d="M102.827 72.4147C102.344 72.7947 101.789 73.0724 101.195 73.2307C100.542 73.4135 99.8678 73.5065 99.1899 73.5072C98.4413 73.5613 97.6894 73.467 96.9774 73.2297C96.2654 72.9924 95.6073 72.6166 95.0408 72.1242C94.5406 71.5797 94.1593 70.9369 93.9212 70.2368C93.6831 69.5368 93.5934 68.7948 93.6578 68.0582V60.3133H91.0024V57.2015H93.6578V53.5089H97.4335V57.2015H101.748V60.2303H97.4335V67.8922C97.3923 68.5416 97.6056 69.1815 98.0282 69.6763C98.2423 69.8913 98.4999 70.0581 98.7838 70.1654C99.0676 70.2728 99.3711 70.3181 99.6739 70.2986C100.428 70.3273 101.17 70.098 101.776 69.6487L102.827 72.4147Z" fill="#332E2B"/>
<path d="M107.792 54.4355C107.472 54.4463 107.153 54.3932 106.854 54.2792C106.555 54.1652 106.281 53.9927 106.05 53.7717C105.835 53.5617 105.665 53.3111 105.548 53.0344C105.432 52.7577 105.372 52.4605 105.372 52.1604C105.372 51.8602 105.432 51.5631 105.548 51.2865C105.665 51.0098 105.835 50.7591 106.05 50.5492C106.535 50.1379 107.15 49.9122 107.785 49.9122C108.421 49.9122 109.036 50.1379 109.521 50.5492C109.743 50.7439 109.92 50.9845 110.039 51.2544C110.158 51.5243 110.218 51.817 110.213 52.112C110.22 52.4212 110.164 52.7286 110.05 53.0161C109.936 53.3035 109.766 53.5652 109.549 53.7855C109.316 54.0077 109.04 54.18 108.738 54.2917C108.436 54.4035 108.114 54.4524 107.792 54.4355ZM105.884 73.2169V57.1185H109.659V73.2445L105.884 73.2169Z" fill="#332E2B"/>
<path d="M121.858 73.4658C120.323 73.4937 118.807 73.1219 117.46 72.387C116.195 71.6974 115.139 70.6798 114.403 69.4412C113.669 68.1391 113.283 66.6696 113.283 65.1747C113.283 63.6797 113.669 62.2101 114.403 60.908C115.137 59.6781 116.194 58.6735 117.46 58.0037C118.811 57.2801 120.325 56.9135 121.858 56.9388C123.408 56.9102 124.941 57.2767 126.311 58.0037C127.579 58.6644 128.637 59.6653 129.367 60.8942C130.093 62.2017 130.473 63.6725 130.473 65.1677C130.473 66.663 130.093 68.1336 129.367 69.4412C128.647 70.6893 127.6 71.7174 126.339 72.4147C124.961 73.148 123.417 73.5102 121.858 73.4658ZM121.858 70.2295C122.721 70.2437 123.574 70.0341 124.333 69.621C125.063 69.2208 125.66 68.6148 126.048 67.8784C126.488 67.0246 126.702 66.0724 126.67 65.1124C126.695 64.1752 126.481 63.2472 126.048 62.4155C125.66 61.6791 125.063 61.0731 124.333 60.6729C123.576 60.2824 122.737 60.0786 121.885 60.0786C121.033 60.0786 120.194 60.2824 119.437 60.6729C118.713 61.0812 118.119 61.6852 117.722 62.4155C117.285 63.246 117.066 64.174 117.086 65.1124C117.058 66.0736 117.277 67.0259 117.722 67.8784C118.111 68.6171 118.701 69.2308 119.423 69.6487C120.17 70.0523 121.009 70.2526 121.858 70.2295Z" fill="#332E2B"/>
<path d="M149.988 64.0059V73.2445H146.199V64.49C146.288 63.3326 145.932 62.1848 145.203 61.2814C144.835 60.9303 144.401 60.6563 143.926 60.4758C143.451 60.2953 142.945 60.2118 142.437 60.2303C141.615 60.2132 140.801 60.4035 140.072 60.7836C139.388 61.1419 138.836 61.7086 138.495 62.4017C138.084 63.2633 137.893 64.214 137.942 65.1677V73.3137H134.166V57.1185H137.748V59.2484C138.245 58.635 138.868 58.1352 139.574 57.7824C140.736 57.1996 142.023 56.91 143.322 56.9388C144.516 56.9191 145.7 57.1746 146.779 57.6855C147.788 58.2075 148.621 59.0159 149.172 60.0091C149.782 61.2494 150.063 62.6257 149.988 64.0059Z" fill="#332E2B"/>
<path d="M90.3801 37.701H83.5756L83.7554 26.4847C83.9802 26.8713 84.3034 27.1914 84.6921 27.4125C85.0808 27.6336 85.5211 27.7477 85.9683 27.7433C86.5805 27.7449 87.1735 27.5293 87.6417 27.1348C87.616 27.1763 87.6024 27.2242 87.6024 27.273C87.6024 27.3219 87.616 27.3698 87.6417 27.4114L90.1173 36.7467C90.1173 36.7467 90.2003 37.1063 90.3801 37.701Z" fill="#8C8B8B"/>
<path d="M84.9172 55.4451L83.5342 48.53H91.1823C91.1314 48.8439 91.0574 49.1536 90.961 49.4567C88.9971 55.1823 84.9172 55.4451 84.9172 55.4451Z" fill="#8C8B8B"/>
<path d="M81.3352 37.701H74.5307C74.7105 37.1063 74.835 36.7467 74.835 36.7467L77.3106 27.4114C77.338 27.3704 77.3526 27.3223 77.3526 27.273C77.3526 27.2238 77.338 27.1757 77.3106 27.1348C77.596 27.3744 77.9299 27.5495 78.2893 27.6482C78.6487 27.7468 79.0252 27.7666 79.393 27.7062C79.7607 27.6457 80.1111 27.5065 80.4201 27.2981C80.729 27.0897 80.9893 26.8169 81.183 26.4985L81.3352 37.701Z" fill="#8C8B8B"/>
<path d="M81.5979 48.4747L81.0447 51.3928C80.4655 51.5276 79.9005 51.7175 79.3574 51.9599C78.4206 52.3658 77.5454 52.9012 76.7574 53.5503C75.596 52.3805 74.7163 50.9617 74.1849 49.4013C74.0885 49.103 74.0145 48.7979 73.9637 48.4885L81.5979 48.4747Z" fill="#8C8B8B"/>
<path d="M90.5461 63.3144C90.4683 64.6441 89.9857 65.9181 89.163 66.9656C88.2595 68.0941 87.084 68.9744 85.747 69.5242C84.3148 70.1804 82.7406 70.4658 81.1692 70.354C79.7248 70.2347 78.3393 69.7283 77.1585 68.888C75.9705 67.9834 75.0359 66.7877 74.4448 65.4165C73.8537 64.0454 73.6261 62.5449 73.7839 61.0601C73.9699 59.6477 74.539 58.3133 75.4297 57.2015C76.4157 55.9854 77.6897 55.0346 79.1362 54.4355C80.2276 53.9392 81.4088 53.671 82.6075 53.6472L83.2437 57.0632C83.0569 57.0221 82.8674 56.9944 82.6767 56.9803C81.8951 56.9332 81.1134 57.0705 80.3947 57.3813C79.5901 57.7255 78.8824 58.2622 78.334 58.9441C77.8096 59.6024 77.492 60.4013 77.4212 61.2399C77.3463 62.1894 77.5178 63.1422 77.9191 64.0059C78.2772 64.8754 78.8478 65.6411 79.5787 66.2327C80.2462 66.746 81.0488 67.0536 81.8884 67.1177C82.7562 67.1942 83.6289 67.0415 84.4193 66.6751C85.1411 66.3731 85.7775 65.8981 86.2725 65.2921C86.7797 64.637 87.1042 63.8591 87.213 63.0378L90.5461 63.3144Z" fill="#332E2B"/>
<path d="M81.183 24.4102C81.2694 24.1569 81.3024 23.8885 81.2798 23.6219C81.2846 23.5667 81.2846 23.5112 81.2798 23.4559C81.2296 23.2303 81.1407 23.0151 81.0171 22.8198L80.6713 22.2665C80.4915 21.9761 80.2841 21.6304 80.0628 21.2984C80.7977 21.8335 81.6846 22.1195 82.5937 22.1144C83.4993 22.1244 84.3833 21.8379 85.1108 21.2984C85.1846 21.2652 85.2542 21.2234 85.3183 21.174C85.097 21.5336 84.848 21.9484 84.6406 22.2665L84.2948 22.8198C84.1648 23.0117 84.0754 23.2282 84.0321 23.4559C84.0321 23.4559 84.0321 23.5804 84.0321 23.6219C83.9772 23.8818 83.9772 24.1503 84.0321 24.4102C84.1332 24.7667 84.3181 25.0939 84.5714 25.3645C84.889 25.6783 85.2847 25.9016 85.7175 26.011C86.1504 26.1204 86.6046 26.1121 87.0332 25.9868C87.5985 25.808 88.0862 25.4422 88.4162 24.9496C89.3428 23.5666 102.509 3.05645 102.509 3.05645C102.31 2.2019 101.832 1.43784 101.151 0.884517C100.47 0.331197 99.6246 0.0200439 98.7473 0L91.1269 10.8566C90.9294 10.8695 90.7394 10.9371 90.5781 11.0519C90.4169 11.1667 90.2908 11.3242 90.2141 11.5067C89.9928 11.8801 88.8311 11.5896 88.4992 11.5067C88.1673 11.4237 87.863 11.1748 87.4481 11.7833L87.1023 12.3641C87.0582 12.4346 87.0347 12.5161 87.0347 12.5993C87.0347 12.6824 87.0582 12.7639 87.1023 12.8344C87.187 12.9324 87.2336 13.0575 87.2336 13.187C87.2336 13.3165 87.187 13.4417 87.1023 13.5397L85.8853 15.2547C85.4873 14.745 84.9797 14.3312 84.4003 14.0441C83.8208 13.757 83.1842 13.6038 82.5376 13.5958C81.8909 13.5878 81.2507 13.7253 80.6644 13.9981C80.078 14.2708 79.5605 14.6719 79.15 15.1716C78.5415 14.328 78.0574 13.6503 78.0021 13.5397C77.92 13.4405 77.8751 13.3158 77.8751 13.187C77.8751 13.0583 77.92 12.9336 78.0021 12.8344C78.0448 12.7634 78.0673 12.6821 78.0673 12.5993C78.0673 12.5164 78.0448 12.4351 78.0021 12.3641C78.0021 12.3641 77.9191 12.2535 77.6425 11.7833C77.3659 11.3131 76.9787 11.3684 76.6053 11.5067C76.2318 11.645 75.1116 11.9216 74.8903 11.5067C74.8112 11.3231 74.6827 11.1651 74.5191 11.0504C74.3555 10.9356 74.1632 10.8685 73.9637 10.8566C73.9637 10.8566 66.4124 0.0138302 66.3433 0C65.4684 0.0230684 64.626 0.335574 63.9477 0.888654C63.2695 1.44173 62.7939 2.20415 62.5953 3.05645C62.5953 3.05645 75.7616 23.5527 76.6744 24.9496C77.0019 25.4445 77.4906 25.811 78.0574 25.9868C78.5082 26.1532 78.9974 26.1856 79.4661 26.08C79.9349 25.9745 80.363 25.7356 80.699 25.3922C80.9514 25.1182 81.1195 24.7772 81.183 24.4102ZM80.0628 17.7994C80.0628 17.2967 80.2117 16.8052 80.4907 16.3871C80.7697 15.9689 81.1664 15.6427 81.6305 15.4497C82.0947 15.2567 82.6057 15.2055 83.0989 15.3026C83.5922 15.3996 84.0456 15.6407 84.4021 15.9952C84.7585 16.3497 85.002 16.8018 85.1017 17.2945C85.2014 17.7872 85.153 18.2985 84.9625 18.7637C84.7721 19.2289 84.448 19.6273 84.0314 19.9086C83.6147 20.1899 83.1241 20.3414 82.6214 20.3442C82.286 20.346 81.9536 20.2815 81.6433 20.1544C81.333 20.0274 81.0508 19.8402 80.813 19.6037C80.5752 19.3672 80.3866 19.0861 80.2578 18.7764C80.1291 18.4668 80.0628 18.1348 80.0628 17.7994Z" fill="#E27022"/>
<path d="M73.0094 47.2715L72.8711 46.9672C72.3241 45.7738 72.041 44.4766 72.041 43.1639C72.041 41.8512 72.3241 40.5539 72.8711 39.3606L73.0094 39.0564H92.0535L92.1918 39.333C92.8451 40.618 93.1817 42.0405 93.1738 43.482C93.1716 44.6776 92.9368 45.8613 92.4823 46.9672L92.3578 47.2992L73.0094 47.2715ZM89.0662 41.6149C88.7629 41.6126 88.4656 41.6995 88.2112 41.8647C87.9568 42.0298 87.7565 42.266 87.6351 42.5439C87.5137 42.8219 87.4766 43.1295 87.5284 43.4283C87.5801 43.7272 87.7185 44.0043 87.9264 44.2252C88.1342 44.4461 88.4023 44.6011 88.6974 44.6711C88.9926 44.741 89.3018 44.7228 89.5866 44.6186C89.8715 44.5145 90.1195 44.3289 90.2999 44.0851C90.4803 43.8412 90.5851 43.5497 90.6014 43.2468C90.6445 43.0603 90.6445 42.8664 90.6014 42.6798V42.583C90.4816 42.2794 90.2682 42.0219 89.9922 41.8478C89.7161 41.6737 89.3918 41.5921 89.0662 41.6149ZM76.1627 41.6149C75.8563 41.6149 75.5568 41.7058 75.3021 41.876C75.0474 42.0462 74.8488 42.2881 74.7316 42.5711C74.6144 42.8542 74.5837 43.1656 74.6435 43.4661C74.7032 43.7665 74.8507 44.0426 75.0674 44.2592C75.284 44.4758 75.56 44.6234 75.8605 44.6831C76.1609 44.7429 76.4724 44.7122 76.7554 44.595C77.0385 44.4778 77.2804 44.2792 77.4506 44.0245C77.6208 43.7697 77.7116 43.4702 77.7116 43.1639C77.708 42.7542 77.5437 42.3623 77.254 42.0726C76.9643 41.7829 76.5724 41.6185 76.1627 41.6149Z" fill="#8C8B8B"/>
<path d="M91.7631 39.5681C92.3694 40.7735 92.6821 42.1051 92.6759 43.4543C92.6786 44.5823 92.4625 45.7002 92.0397 46.7459H73.3413C72.8307 45.6184 72.5665 44.3948 72.5665 43.1569C72.5665 41.9191 72.8307 40.6956 73.3413 39.5681H91.7631ZM89.0939 45.2246C89.6218 45.2254 90.1298 45.0235 90.5132 44.6607C90.8967 44.2978 91.1262 43.8017 91.1546 43.2745C91.1613 43.238 91.1613 43.2004 91.1546 43.1639C91.1572 42.9321 91.1149 42.702 91.0301 42.4862C90.9032 42.1274 90.6801 41.8104 90.3852 41.5699C90.0902 41.3294 89.7348 41.1747 89.3578 41.1227C88.9808 41.0707 88.5967 41.1233 88.2477 41.275C87.8986 41.4266 87.598 41.6714 87.3787 41.9824C87.1594 42.2935 87.0299 42.6588 87.0044 43.0385C86.9788 43.4182 87.0583 43.7977 87.2339 44.1353C87.4096 44.4729 87.6747 44.7557 88.0003 44.9527C88.3259 45.1497 88.6995 45.2533 89.08 45.2522M76.1765 45.2522C76.5874 45.2522 76.989 45.1302 77.3305 44.9017C77.6719 44.6731 77.9378 44.3483 78.0944 43.9684C78.251 43.5885 78.2913 43.1707 78.2101 42.7679C78.1289 42.3651 77.93 41.9955 77.6385 41.7059C77.3469 41.4163 76.976 41.2199 76.5727 41.1414C76.1694 41.063 75.7518 41.106 75.373 41.2651C74.9942 41.4242 74.6711 41.6923 74.4449 42.0353C74.2186 42.3782 74.0993 42.7807 74.102 43.1916C74.102 43.4633 74.1557 43.7324 74.2602 43.9833C74.3646 44.2343 74.5176 44.462 74.7104 44.6536C74.9032 44.8451 75.1321 44.9966 75.3837 45.0994C75.6353 45.2021 75.9047 45.2541 76.1765 45.2522ZM92.3855 38.5585H72.6775L72.4009 39.167C71.8256 40.4283 71.5279 41.7984 71.5279 43.1846C71.5279 44.5709 71.8256 45.9411 72.4009 47.2023L72.6775 47.8109H92.7036L92.9663 47.1608C93.4923 45.8798 93.7372 44.5008 93.6848 43.117C93.6323 41.7332 93.2835 40.3768 92.6621 39.1393L92.3716 38.5585H92.3855ZM89.08 44.215C88.8073 44.215 88.5456 44.1076 88.3514 43.9161C88.1573 43.7245 88.0464 43.4643 88.0428 43.1916C88.0464 42.9176 88.1568 42.6558 88.3506 42.4621C88.5443 42.2683 88.8061 42.1579 89.08 42.1543C89.2701 42.1533 89.4567 42.206 89.6182 42.3063C89.7796 42.4066 89.9095 42.5505 89.9928 42.7214L90.062 42.9011C90.0714 42.9838 90.0714 43.0674 90.062 43.1501V43.2468C90.0478 43.5086 89.9338 43.7549 89.7434 43.9351C89.5529 44.1152 89.3007 44.2154 89.0386 44.215H89.08ZM76.1765 44.215C76.041 44.2168 75.9064 44.1917 75.7806 44.1411C75.6548 44.0905 75.5404 44.0154 75.4439 43.9202C75.3474 43.825 75.2707 43.7115 75.2185 43.5864C75.1662 43.4614 75.1392 43.3271 75.1393 43.1916C75.1224 43.0462 75.1365 42.899 75.1805 42.7595C75.2246 42.6199 75.2977 42.4914 75.395 42.3821C75.4923 42.2729 75.6117 42.1854 75.7451 42.1255C75.8786 42.0656 76.0233 42.0348 76.1696 42.0348C76.3159 42.0348 76.4606 42.0656 76.5941 42.1255C76.7275 42.1854 76.8469 42.2729 76.9442 42.3821C77.0415 42.4914 77.1146 42.6199 77.1587 42.7595C77.2027 42.899 77.2168 43.0462 77.1999 43.1916C77.1999 43.463 77.0921 43.7233 76.9002 43.9152C76.7083 44.1072 76.4479 44.215 76.1765 44.215Z" fill="white"/>
</svg>
