<svg viewBox="0 0 101 100" fill="none">
<path d="M58.24 22.95C58.33 22.78 58.43 22.6 58.51 22.42C58.44 22.57 58.33 22.78 58.24 22.95ZM58.24 22.95C58.33 22.78 58.43 22.6 58.51 22.42C58.44 22.57 58.33 22.78 58.24 22.95ZM58.24 22.95C58.33 22.78 58.43 22.6 58.51 22.42C58.44 22.57 58.33 22.78 58.24 22.95ZM58.24 22.95C58.33 22.78 58.43 22.6 58.51 22.42C58.44 22.57 58.33 22.78 58.24 22.95ZM58.24 22.95C58.33 22.78 58.43 22.6 58.51 22.42C58.44 22.57 58.33 22.78 58.24 22.95ZM58.24 22.95C58.33 22.78 58.43 22.6 58.51 22.42C58.44 22.57 58.33 22.78 58.24 22.95ZM58.24 22.95C58.33 22.78 58.43 22.6 58.51 22.42C58.44 22.57 58.33 22.78 58.24 22.95ZM58.24 22.95C58.33 22.78 58.43 22.6 58.51 22.42C58.44 22.57 58.33 22.78 58.24 22.95ZM58.24 22.95C58.33 22.78 58.43 22.6 58.51 22.42C58.44 22.57 58.33 22.78 58.24 22.95ZM58.24 22.95C58.33 22.78 58.43 22.6 58.51 22.42C58.44 22.57 58.33 22.78 58.24 22.95ZM58.24 22.95C58.33 22.78 58.43 22.6 58.51 22.42C58.44 22.57 58.33 22.78 58.24 22.95ZM58.24 22.95C58.33 22.78 58.43 22.6 58.51 22.42C58.44 22.57 58.33 22.78 58.24 22.95ZM58.24 22.95C58.33 22.78 58.43 22.6 58.51 22.42C58.44 22.57 58.33 22.78 58.24 22.95ZM58.24 22.95C58.33 22.78 58.43 22.6 58.51 22.42C58.44 22.57 58.33 22.78 58.24 22.95ZM58.24 22.95C58.33 22.78 58.43 22.6 58.51 22.42C58.44 22.57 58.33 22.78 58.24 22.95ZM58.24 22.95C58.33 22.78 58.43 22.6 58.51 22.42C58.44 22.57 58.33 22.78 58.24 22.95ZM58.24 22.95C58.33 22.78 58.43 22.6 58.51 22.42C58.44 22.57 58.33 22.78 58.24 22.95ZM58.24 22.95C58.33 22.78 58.43 22.6 58.51 22.42C58.44 22.57 58.33 22.78 58.24 22.95ZM58.24 22.95C58.33 22.78 58.43 22.6 58.51 22.42C58.44 22.57 58.33 22.78 58.24 22.95ZM58.24 22.95C58.33 22.78 58.43 22.6 58.51 22.42C58.44 22.57 58.33 22.78 58.24 22.95ZM58.24 22.95C58.33 22.78 58.43 22.6 58.51 22.42C58.44 22.57 58.33 22.78 58.24 22.95ZM58.24 22.95C58.33 22.78 58.43 22.6 58.51 22.42C58.44 22.57 58.33 22.78 58.24 22.95ZM58.24 22.95C58.33 22.78 58.43 22.6 58.51 22.42C58.44 22.57 58.33 22.78 58.24 22.95ZM58.24 22.95C58.33 22.78 58.43 22.6 58.51 22.42C58.44 22.57 58.33 22.78 58.24 22.95Z" fill="#332E2B"/>
<path d="M58.52 22.42C58.44 22.6 58.34 22.78 58.25 22.95C58.33 22.78 58.44 22.57 58.52 22.42Z" fill="url(#paint0_linear_97_203)"/>
<path d="M47.2 7.85C47.1613 7.91633 47.1178 7.97983 47.07 8.04C46.9 8.28 46.74 8.53 46.58 8.8V8.85999C46.48 9.01999 46.37 9.18999 46.28 9.35999C46.36 9.18999 46.47 9.02 46.56 8.85C46.5629 8.8301 46.5629 8.8099 46.56 8.79C46.73 8.52 46.88 8.27001 47.06 8.03001L47.2 7.85Z" fill="url(#paint1_linear_97_203)"/>
<path d="M73.56 39.13C74.3799 38.8792 75.0975 38.3716 75.6071 37.682C76.1166 36.9925 76.3911 36.1574 76.39 35.3V30.95C76.39 29.8891 75.9686 28.8717 75.2184 28.1216C74.4683 27.3714 73.4509 26.95 72.39 26.95H68.26C70.1528 25.5789 71.7486 23.8392 72.9516 21.8354C74.1545 19.8315 74.9398 17.6051 75.26 15.29V14.7L74.59 14.58L74.23 14.45C72.3149 13.7326 70.2721 13.4194 68.23 13.53C69.2531 10.5471 69.0883 7.28473 67.77 4.42001L67.57 4.04L67.13 4.21999L66.87 4.28001C65.94 4.48001 63.45 5.01 60.3 8.18C59.4735 5.34445 57.8531 2.80452 55.63 0.859993L55.31 0.57L54.87 -0.0100021L54.19 0.260002C50.9215 1.67708 48.0783 3.92065 45.94 6.77C42.38 2.77 39.55 2.18999 38.54 1.96999L38.26 1.91L37.82 1.73L37.63 2.10999C36.7303 4.05245 36.3611 6.19855 36.56 8.32999C34.8322 7.61347 32.9805 7.24314 31.11 7.24H30.71L30.06 7.10999L29.89 7.68C29.185 10.7444 29.3222 13.9425 30.2869 16.9353C31.2517 19.9281 33.0081 22.6042 35.37 24.68C36.2643 25.5061 37.2131 26.2712 38.21 26.97H30.92C29.8591 26.97 28.8417 27.3914 28.0916 28.1416C27.3414 28.8917 26.92 29.9091 26.92 30.97V35.32C26.9168 36.1791 27.1903 37.0164 27.7 37.708C28.2097 38.3996 28.9285 38.9087 29.75 39.16C29.7892 41.642 30.3602 44.0868 31.4246 46.3294C32.489 48.572 34.0219 50.5602 35.92 52.16H30.92C29.17 52.16 27.79 54.03 27.79 56.43V57.29H75.45V56.43C75.45 54.03 74.08 52.16 72.32 52.16H67.32C69.2352 50.5639 70.7839 48.5739 71.8607 46.3254C72.9375 44.0769 73.5171 41.6227 73.56 39.13ZM60.64 9.13C60.76 9 60.89 8.88 61.01 8.76L61.36 8.42001C62.5695 7.23365 64.0282 6.33178 65.63 5.78001L66.03 5.65C66.3063 5.55624 66.5909 5.48927 66.88 5.45C67.5775 6.9307 67.92 8.55372 67.88 10.19C67.88 10.36 67.88 10.53 67.88 10.7C67.8853 10.7565 67.8853 10.8135 67.88 10.87C67.88 11.06 67.88 11.26 67.8 11.47C67.7051 12.1871 67.5307 12.8915 67.28 13.57L66.46 13.65C64.7652 13.854 63.0919 14.2088 61.46 14.71C61.3721 13.0256 61.1345 11.3523 60.75 9.71C60.7127 9.52769 60.666 9.34745 60.61 9.17001L60.64 9.13ZM60.82 20.93C60.8838 20.7499 60.9372 20.5662 60.98 20.38C61.1859 19.654 61.3265 18.911 61.4 18.16C61.4781 17.5834 61.5148 17.0019 61.51 16.42C61.51 16.27 61.51 16.12 61.51 15.97L62.62 15.66L63.23 15.51L63.62 15.42C64.3884 15.2372 65.1662 15.097 65.95 15L66.7 14.92L67.7 14.86C69.1588 14.7945 70.6184 14.9702 72.02 15.38H72.09C72.5283 15.4862 72.9565 15.6301 73.37 15.81C73.3723 15.8266 73.3723 15.8434 73.37 15.86C73.0756 17.9962 72.3216 20.0432 71.16 21.86C71.1177 21.9128 71.0808 21.9697 71.05 22.03L70.7 22.54C70.6234 22.6669 70.5364 22.7873 70.44 22.9C70.4261 22.9279 70.4055 22.9519 70.38 22.97C70.3661 22.9979 70.3455 23.0219 70.32 23.04C70.2267 23.1686 70.1266 23.2921 70.02 23.41L69.82 23.64L69.61 23.89C69.5 24 69.41 24.1 69.31 24.22C68.9934 24.5538 68.6596 24.8709 68.31 25.17C68.14 25.32 67.95 25.46 67.76 25.61C67.5759 25.7685 67.3822 25.9154 67.18 26.05L66.84 26.29L66.55 26.5L65.94 26.87H60.14C61.19 26.32 61.89 25.87 62.01 25.81C60.5065 26.2592 58.9563 26.5344 57.39 26.63C58.6117 25.3428 59.5908 23.8454 60.28 22.21C60.4853 21.8013 60.6656 21.3805 60.82 20.95V20.93ZM45.65 10.6C45.65 10.49 45.74 10.39 45.8 10.28L46.01 9.82C46.0688 9.66782 46.1461 9.52342 46.24 9.39001C46.32 9.22001 46.43 9.05 46.52 8.88C46.5229 8.8601 46.5229 8.8399 46.52 8.82C46.69 8.55 46.84 8.30001 47.02 8.06001L47.15 7.88C47.23 7.76 47.33 7.64001 47.4 7.53001C47.4948 7.39659 47.5983 7.26963 47.71 7.15C47.7412 7.10229 47.7781 7.05862 47.82 7.02C47.845 6.9765 47.8753 6.93621 47.91 6.9C48.0287 6.75616 48.1556 6.61926 48.29 6.49L48.79 5.96C49.4131 5.33176 50.0816 4.75019 50.79 4.21999L51.27 3.88C51.834 3.48735 52.4218 3.13001 53.03 2.81001L53.37 2.63C53.71 2.46 53.97 2.34 54.14 2.27H54.22H54.29C54.7055 2.59049 55.0904 2.94869 55.44 3.34C55.44 3.34 55.51 3.41 55.54 3.45L55.74 3.67001C56.2748 4.22472 56.7445 4.83868 57.14 5.49999C57.2365 5.61912 57.3171 5.75022 57.38 5.89001C57.46 6.03001 57.55 6.17 57.63 6.32C57.71 6.47 57.79 6.61 57.86 6.77C57.93 6.93 58.01 7.06 58.07 7.21C58.13 7.36 58.24 7.58 58.31 7.77C58.38 7.96 58.4 8.01001 58.45 8.14001C58.4989 8.25003 58.539 8.3637 58.57 8.48C58.64 8.66 58.7 8.85 58.76 9.04L58.94 9.63C59.0433 9.95878 59.1301 10.2925 59.2 10.63C59.2259 10.6982 59.246 10.7684 59.26 10.84C59.32 11.1 59.37 11.36 59.42 11.63C59.47 11.9 59.48 12 59.51 12.19C59.54 12.38 59.56 12.57 59.58 12.77C59.6 12.97 59.64 13.29 59.68 13.56V14.19C59.6892 14.2193 59.6892 14.2507 59.68 14.28V14.34C59.68 14.52 59.68 14.68 59.68 14.86C59.68 15.04 59.68 15.12 59.68 15.26C59.68 15.4 59.68 15.57 59.68 15.73C59.6951 15.9898 59.6951 16.2502 59.68 16.51C59.69 16.5595 59.69 16.6105 59.68 16.66V16.74C59.6704 16.8899 59.6704 17.0401 59.68 17.19C59.6721 17.4047 59.6487 17.6186 59.61 17.83C59.5937 18.1057 59.5569 18.3798 59.5 18.65C59.4736 18.8869 59.4268 19.1211 59.36 19.35C59.3657 19.3764 59.3657 19.4036 59.36 19.43C59.3067 19.6833 59.2467 19.9233 59.18 20.15C59.1 20.42 59.01 20.68 58.92 20.94C58.83 21.2 58.77 21.31 58.69 21.49C58.6846 21.5555 58.6603 21.618 58.62 21.67C58.55 21.88 58.44 22.08 58.36 22.28C58.36 22.28 58.36 22.33 58.31 22.35C58.3007 22.3806 58.2835 22.4082 58.26 22.43C58.18 22.61 58.08 22.79 57.99 22.96C57.87 23.17 57.74 23.38 57.61 23.57C57.48 23.76 57.37 23.94 57.24 24.11C57.2235 24.1422 57.2034 24.1724 57.18 24.2L56.8 24.68C56.7 24.8 56.61 24.92 56.51 25.03L56.26 25.29C56.1377 25.4338 56.0075 25.5707 55.87 25.7C55.45 26.11 55.03 26.48 54.63 26.8L54.4 26.97H52.43C52.3467 26.8648 52.2699 26.7546 52.2 26.64C51.95 26.28 51.69 25.88 51.41 25.45C51.15 25.05 50.89 24.62 50.64 24.16C50.39 23.7 50.08 23.16 49.82 22.59C49.5249 22.0045 49.2612 21.4036 49.03 20.79C48.89 20.4 48.75 19.99 48.63 19.58C48.5963 19.5069 48.5727 19.4295 48.56 19.35C48.45 18.99 48.35 18.63 48.27 18.26C48.1608 17.7849 48.0773 17.3042 48.02 16.82C48.02 16.69 48.02 16.56 48.02 16.43C48.0068 16.5181 47.9868 16.605 47.96 16.69C47.96 16.95 47.82 17.4 47.74 17.99C47.7054 18.1279 47.682 18.2683 47.67 18.41C47.67 18.74 47.57 19.12 47.54 19.51C47.5092 19.7188 47.4891 19.9291 47.48 20.14C47.4648 20.3163 47.4648 20.4937 47.48 20.67C47.3424 22.3198 47.4707 23.9809 47.86 25.59L47.47 25.05C47.35 24.89 47.23 24.73 47.13 24.57C46.8864 24.1851 46.6628 23.7879 46.46 23.38C46.35 23.14 46.23 22.89 46.12 22.63C46.01 22.37 45.88 22.09 45.77 21.8C45.66 21.51 45.6 21.27 45.5 20.99C45.4 20.71 45.32 20.32 45.24 19.99C45.1861 19.7857 45.1427 19.5787 45.11 19.37L45.01 18.89C45.0046 18.8435 45.0046 18.7965 45.01 18.75L44.95 18.43C44.95 18.15 44.89 17.87 44.87 17.58C44.8548 17.4137 44.8548 17.2463 44.87 17.08C44.87 16.83 44.87 16.58 44.87 16.32C44.86 16.1602 44.86 15.9998 44.87 15.84C44.87 15.58 44.87 15.33 44.87 15.08C44.8597 14.8968 44.8597 14.7132 44.87 14.53C44.8596 14.4269 44.8596 14.3231 44.87 14.22C44.8796 14.0456 44.8996 13.872 44.93 13.7C44.9246 13.6669 44.9246 13.6331 44.93 13.6C44.93 13.6 44.93 13.6 44.93 13.52C44.93 13.44 44.99 13.2 45.03 13.05C45.1401 12.4737 45.3007 11.9082 45.51 11.36C45.5274 11.2707 45.5543 11.1836 45.59 11.1C45.6156 11.0184 45.6457 10.9383 45.68 10.86C45.695 10.7788 45.6845 10.695 45.65 10.62V10.6ZM37.73 5.9C37.73 5.77 37.73 5.65001 37.8 5.53001C37.8324 5.29982 37.8826 5.07247 37.95 4.85C37.95 4.74 38.01 4.64 38.03 4.54C38.0709 4.39038 38.121 4.24343 38.18 4.1C38.18 4.01 38.24 3.93 38.26 3.85C38.3388 3.60655 38.4427 3.37196 38.57 3.15H38.63C38.8502 3.18309 39.0676 3.23324 39.28 3.3C39.46 3.3 39.67 3.41 39.88 3.48C40.1842 3.57257 40.4816 3.68618 40.77 3.82H40.88L41.2 3.98C41.7838 4.25995 42.3396 4.59479 42.86 4.98L43.31 5.32C43.45 5.44 43.62 5.57 43.76 5.71L44.54 6.42001C44.6201 6.47916 44.6909 6.54994 44.75 6.63L44.85 6.73L45.18 7.07C45.1967 7.07765 45.2115 7.08873 45.2236 7.10252C45.2356 7.1163 45.2446 7.13249 45.25 7.15L45.48 7.39001C45.42 7.49001 45.35 7.59 45.29 7.7C44.4264 9.1066 43.8044 10.6479 43.45 12.26C41.9512 11.0584 40.3405 10.0036 38.64 9.10999C38.29 8.92999 37.95 8.76 37.64 8.62C37.635 8.56011 37.635 8.49989 37.64 8.43999C37.64 8.21999 37.64 7.99 37.64 7.76C37.6144 7.14521 37.6445 6.52936 37.73 5.92001V5.9ZM38.26 25.39L37.4 24.73C37.21 24.58 37.01 24.42 36.82 24.25C36.63 24.08 36.44 23.92 36.25 23.74C36.06 23.56 35.95 23.46 35.81 23.32C35.3897 22.9159 34.9924 22.4886 34.62 22.04C34.45 21.85 34.31 21.65 34.15 21.46C34.0534 21.3382 33.9633 21.2113 33.88 21.08C33.5925 20.6965 33.3287 20.2957 33.09 19.88C32.96 19.65 32.83 19.42 32.71 19.19C32.59 18.96 32.58 18.91 32.52 18.78C32.4169 18.5979 32.3299 18.4072 32.26 18.21C32.26 18.13 32.19 18.05 32.15 17.98C32.11 17.91 31.99 17.57 31.93 17.36C31.8967 17.3017 31.8762 17.2369 31.87 17.17C31.79 16.9633 31.72 16.7633 31.66 16.57C31.58 16.27 31.5 15.95 31.43 15.63C31.43 15.49 31.37 15.34 31.33 15.2C31.29 15.06 31.27 14.91 31.26 14.78C31.25 14.65 31.19 14.32 31.16 14.1C31.1145 13.7282 31.0878 13.3544 31.08 12.98C31.08 12.73 31.08 12.49 31.08 12.26C31.064 11.1108 31.1984 9.96434 31.48 8.85C32.0011 8.82443 32.5234 8.84788 33.04 8.92001H33.28H33.48L33.86 8.96999L34.36 9.06001L34.74 9.14001C35.08 9.22001 35.45 9.30999 35.84 9.43999L36.21 9.56001L36.89 9.81001L37.95 10.27C38.26 10.42 38.58 10.59 38.95 10.78C39.32 10.97 39.7 11.19 40.1 11.45C40.2311 11.5228 40.3579 11.6029 40.48 11.69C41.4521 12.2959 42.384 12.964 43.27 13.69V13.99C43.27 14.32 43.21 14.65 43.2 14.99C43.19 15.33 43.2 15.46 43.2 15.7C43.2 15.94 43.2 15.98 43.2 16.11C43.1944 16.5741 43.2144 17.0381 43.26 17.5V17.55C43.2649 17.5765 43.2649 17.6036 43.26 17.63C43.26 18.06 43.34 18.47 43.4 18.88C43.7339 21.4108 44.6476 23.8303 46.07 25.95C43.3715 25.1347 40.8342 23.8593 38.57 22.18C39.8873 23.8803 41.3677 25.4478 42.99 26.86H40.75L40.48 26.71L39.95 26.41C39.65 26.23 39.34 26.04 39.04 25.82C38.74 25.6 38.64 25.55 38.44 25.41L38.26 25.39ZM29.82 37.24C29.478 37.031 29.1959 36.7368 29.0014 36.3863C28.8069 36.0358 28.7065 35.6409 28.71 35.24V30.89C28.7051 30.7934 28.7051 30.6966 28.71 30.6V30.42C28.7174 30.3642 28.7343 30.3101 28.76 30.26C28.7901 30.0997 28.8512 29.9468 28.94 29.81C28.9914 29.7212 29.0554 29.6404 29.13 29.57L29.22 29.44L29.34 29.32C29.7685 28.8949 30.3464 28.6544 30.95 28.65H72.35C72.953 28.65 73.5314 28.8888 73.9587 29.3143C74.386 29.7397 74.6274 30.317 74.63 30.92V35.27C74.6313 35.5698 74.5733 35.8669 74.4592 36.1441C74.345 36.4213 74.1771 36.6732 73.9652 36.8852C73.7532 37.0971 73.5013 37.265 73.2241 37.3791C72.9469 37.4933 72.6498 37.5513 72.35 37.55H30.95C30.555 37.5494 30.1665 37.4497 29.82 37.26V37.24ZM72.39 53.88C72.93 53.88 73.51 54.54 73.73 55.57H29.67C29.88 54.57 30.45 53.88 30.99 53.88H72.39ZM67.44 49.76C67.21 49.99 67 50.21 66.76 50.43C66.2921 50.8573 65.7978 51.2547 65.28 51.62L64.5 52.16H38.88L38.09 51.62C37.5768 51.2571 37.089 50.8595 36.63 50.43C36.3888 50.2219 36.1616 49.9981 35.95 49.76C35.7461 49.5565 35.5525 49.3429 35.37 49.12L35.21 48.95C35.0325 48.7489 34.8656 48.5386 34.71 48.32C34.5744 48.1499 34.4476 47.973 34.33 47.79C34.336 47.7637 34.336 47.7363 34.33 47.71C34.26 47.62 34.2 47.52 34.14 47.43C34.1233 47.401 34.1031 47.3742 34.08 47.35V47.29C33.9592 47.1168 33.849 46.9365 33.75 46.75C33.63 46.55 33.52 46.36 33.41 46.15C33.417 46.117 33.417 46.083 33.41 46.05C33.36 45.92 33.28 45.79 33.22 45.66C33.16 45.53 33.22 45.6 33.22 45.57C33.1857 45.5185 33.1619 45.4607 33.15 45.4C33.0525 45.22 32.9689 45.0328 32.9 44.84C32.83 44.66 32.76 44.47 32.7 44.28C32.64 44.09 32.64 44.11 32.6 44.03V43.98V43.89C32.5912 43.837 32.5912 43.783 32.6 43.73C32.5297 43.5444 32.4728 43.3539 32.43 43.16C32.3695 42.9729 32.3194 42.7826 32.28 42.59C32.22 42.33 32.16 42.07 32.12 41.81C32.0654 41.5457 32.0253 41.2787 32 41.01C31.9552 40.762 31.9252 40.5116 31.91 40.26V40.21C31.8948 39.9336 31.8948 39.6565 31.91 39.38H72.16C72.1752 39.6565 72.1752 39.9336 72.16 40.21V40.26C72.16 40.51 72.16 40.76 72.08 41.01C72.0513 41.2788 72.0079 41.5459 71.95 41.81C71.91 42.07 71.86 42.33 71.8 42.59C71.8 42.78 71.7 42.98 71.64 43.16C71.6065 43.3562 71.5494 43.5475 71.47 43.73C71.4788 43.783 71.4788 43.837 71.47 43.89V43.98V44.03C71.47 44.11 71.41 44.2 71.37 44.28C71.33 44.36 71.24 44.66 71.17 44.84C71.09 45.03 71.01 45.22 70.92 45.4C70.894 45.4439 70.8739 45.4909 70.86 45.54C70.76 45.76 70.65 45.97 70.53 46.18C70.4209 46.416 70.2939 46.6434 70.15 46.86C69.9 47.28 69.63 47.7 69.34 48.1C69.34 48.1 69.34 48.1 69.28 48.17C69.101 48.4308 68.9074 48.6812 68.7 48.92C67.95 49.22 67.7 49.51 67.44 49.78V49.76Z" fill="#332E2B"/>
<path d="M45.32 7.84C44.4564 9.2466 43.8344 10.7879 43.48 12.4C41.9812 11.1984 40.3705 10.1436 38.67 9.24999C38.5409 7.57565 38.6555 5.89144 39.01 4.24999C39.01 4.24999 40.94 4.28 45.32 7.84Z" fill="#63B22F"/>
<path d="M66.49 13.67C64.7951 13.874 63.1218 14.2288 61.49 14.73C61.4021 13.0456 61.1645 11.3723 60.78 9.73C64.78 6.62 66.53 6.55 66.53 6.55C67.0516 8.89621 67.0379 11.3298 66.49 13.67Z" fill="#63B22F"/>
<path d="M72.13 16.79C72.13 16.79 70.13 22.89 65.8 25.95C65.26 26.33 64.75 26.66 64.24 26.95H60.19C61.24 26.4 61.94 25.95 62.06 25.89C60.5565 26.3393 59.0063 26.6144 57.44 26.71C58.6617 25.4228 59.6408 23.9254 60.33 22.29C60.5183 21.8506 60.6787 21.3997 60.81 20.94C60.8738 20.7599 60.9272 20.5762 60.97 20.39C61.1759 19.664 61.3164 18.921 61.39 18.17C61.468 17.5934 61.5048 17.0119 61.5 16.43C62.25 16.33 62.95 16.25 63.61 16.2H63.75C64.35 16.2 64.89 16.11 65.42 16.09H66.01C66.38 16.09 66.74 16.09 67.06 16.09C70.88 16.07 72.13 16.79 72.13 16.79Z" fill="#63B22F"/>
<path d="M59.99 15.68C60.0051 15.9398 60.0051 16.2002 59.99 16.46C59.9999 16.5095 59.9999 16.5605 59.99 16.61V16.69C59.9804 16.8398 59.9804 16.9902 59.99 17.14C59.982 17.3547 59.9586 17.5686 59.92 17.78C59.8995 18.0553 59.8628 18.3291 59.81 18.6C59.7836 18.8369 59.7368 19.0712 59.67 19.3C59.6757 19.3264 59.6757 19.3536 59.67 19.38C59.6166 19.6333 59.5566 19.8733 59.49 20.1C59.41 20.37 59.32 20.63 59.23 20.89C59.14 21.15 59.08 21.26 59 21.44C58.9945 21.5055 58.9702 21.568 58.93 21.62C58.86 21.83 58.75 22.03 58.67 22.23C58.6667 22.2532 58.6667 22.2768 58.67 22.3C58.6607 22.3306 58.6435 22.3583 58.62 22.38C58.54 22.56 58.43 22.74 58.34 22.91C58.25 23.08 58.09 23.33 57.96 23.52C57.83 23.71 57.72 23.89 57.59 24.06C57.5735 24.0922 57.5534 24.1224 57.53 24.15L57.15 24.63C57.05 24.75 56.96 24.87 56.86 24.98L56.61 25.24C56.4877 25.3838 56.3575 25.5207 56.22 25.65C55.8 26.06 55.38 26.43 54.98 26.75L54.75 26.92H52.43C52.3467 26.8148 52.2699 26.7046 52.2 26.59C51.95 26.23 51.69 25.83 51.41 25.4C51.15 25 50.89 24.57 50.64 24.11C50.39 23.65 50.08 23.11 49.82 22.54C49.5248 21.9545 49.2611 21.3536 49.03 20.74C48.89 20.35 48.75 19.94 48.63 19.53C48.5962 19.4569 48.5727 19.3795 48.56 19.3C48.45 18.94 48.35 18.58 48.27 18.21C48.1607 17.7349 48.0773 17.2542 48.02 16.77C48.02 16.64 48.02 16.51 48.02 16.38C48.0068 16.4681 47.9867 16.555 47.96 16.64C47.96 16.9 47.82 17.35 47.74 17.94C47.7053 18.0779 47.6819 18.2183 47.67 18.36C47.67 18.69 47.57 19.07 47.54 19.46C47.5091 19.6688 47.4891 19.8791 47.48 20.09C47.4647 20.2663 47.4647 20.4436 47.48 20.62C47.3424 22.2698 47.4707 23.9309 47.86 25.54L47.47 25C47.35 24.84 47.23 24.68 47.13 24.52C46.8864 24.1351 46.6627 23.7379 46.46 23.33C46.4647 23.2935 46.4647 23.2565 46.46 23.22C46.37 22.92 46.23 22.51 46.1 22.04C46.1 21.95 46.04 21.85 46.02 21.74C46 21.63 45.92 21.32 45.88 21.1C45.84 20.88 45.75 20.46 45.7 20.1C45.65 19.74 45.6 19.34 45.58 18.93C45.5199 18.1945 45.5199 17.4554 45.58 16.72C45.58 16.42 45.58 16.11 45.67 15.79C45.7336 15.3021 45.8237 14.8181 45.94 14.34C46.0342 13.8661 46.1577 13.3985 46.31 12.94C46.6345 11.9386 47.0884 10.9839 47.66 10.1C47.84 9.84 48.01 9.57999 48.2 9.32999C49.8549 7.14665 51.8425 5.23674 54.09 3.67001C54.09 3.67001 56.17 4.98 58.41 10.55C58.54 10.85 58.66 11.17 58.78 11.55C59.2 12.64 59.6 13.87 60.01 15.27C59.9 15.39 59.95 15.57 59.99 15.68Z" fill="#63B22F"/>
<path d="M42.93 26.96H41.13C38.6786 25.428 36.5903 23.3806 35.01 20.96C32.08 16.58 32.33 10.15 32.33 10.15C32.33 10.15 33.76 9.91999 37.26 11.22C37.6 11.36 37.99 11.5 38.39 11.67L39.32 12.07C40.45 12.58 41.75 13.22 43.2 14.07C43.2 14.4 43.14 14.73 43.13 15.07C43.12 15.41 43.13 15.54 43.13 15.78C43.13 16.02 43.13 16.06 43.13 16.19C43.1244 16.6541 43.1444 17.1181 43.19 17.58V17.63C43.1949 17.6564 43.1949 17.6836 43.19 17.71C43.19 18.14 43.27 18.55 43.33 18.96C43.6639 21.4908 44.5776 23.9103 46 26.03C43.3015 25.2147 40.7642 23.9393 38.5 22.26C39.8195 23.9677 41.3032 25.542 42.93 26.96Z" fill="#63B22F"/>
<path d="M71.82 39.3C71.8352 39.5765 71.8352 39.8535 71.82 40.13V40.18C71.82 40.43 71.82 40.68 71.74 40.93C71.7113 41.1988 71.6679 41.4659 71.61 41.73C71.56 41.99 71.52 42.25 71.46 42.51C71.4 42.77 71.36 42.9 71.3 43.08C71.24 43.26 71.19 43.46 71.13 43.65C71.1388 43.703 71.1388 43.757 71.13 43.81V43.9V43.95C71.13 44.03 71.07 44.12 71.03 44.2C70.99 44.28 70.9 44.58 70.83 44.76C70.75 44.95 70.67 45.14 70.58 45.32C70.5541 45.3639 70.5339 45.411 70.52 45.46C70.42 45.68 70.3 45.89 70.19 46.1C70.0809 46.336 69.9539 46.5634 69.81 46.78C69.56 47.2 69.29 47.62 69 48.02C69 48.02 69 48.02 68.94 48.09C68.7611 48.3508 68.5674 48.6012 68.36 48.84C68.11 49.13 67.86 49.42 67.6 49.69C67.34 49.96 67.16 50.14 66.92 50.36C66.4511 50.7861 65.9569 51.1835 65.44 51.55L64.66 52.08H38.88L38.09 51.55C37.5796 51.1834 37.092 50.786 36.63 50.36C36.39 50.14 36.17 49.92 35.95 49.69C35.7461 49.4865 35.5525 49.2729 35.37 49.05L35.21 48.88L34.71 48.25C34.58 48.08 34.45 47.9 34.33 47.72C34.336 47.6937 34.336 47.6663 34.33 47.64C34.26 47.55 34.2 47.45 34.14 47.36C34.1233 47.331 34.1031 47.3042 34.08 47.28V47.22C33.9592 47.0468 33.849 46.8665 33.75 46.68C33.63 46.48 33.52 46.29 33.41 46.08C33.417 46.047 33.417 46.013 33.41 45.98C33.36 45.85 33.28 45.72 33.22 45.59C33.16 45.46 33.22 45.53 33.22 45.5C33.1857 45.4485 33.1619 45.3907 33.15 45.33C33.0525 45.15 32.9689 44.9628 32.9 44.77C32.83 44.59 32.76 44.4 32.7 44.21C32.64 44.02 32.64 44.04 32.6 43.96V43.91V43.82C32.5913 43.767 32.5913 43.713 32.6 43.66C32.54 43.47 32.49 43.28 32.43 43.09C32.3695 42.9029 32.3194 42.7127 32.28 42.52C32.22 42.26 32.17 42 32.12 41.74C32.0654 41.4757 32.0253 41.2087 32 40.94C31.9553 40.692 31.9252 40.4416 31.91 40.19V40.14C31.8948 39.8635 31.8948 39.5864 31.91 39.31L71.82 39.3Z" fill="#E27022"/>
<path d="M74.67 30.95V35.3C74.6713 35.5998 74.6132 35.8969 74.4991 36.1741C74.385 36.4513 74.2171 36.7032 74.0051 36.9151C73.7932 37.1271 73.5413 37.295 73.2641 37.4091C72.9868 37.5232 72.6898 37.5813 72.39 37.58H30.99C30.5788 37.5771 30.1754 37.4668 29.82 37.26C29.4779 37.0509 29.1959 36.7568 29.0014 36.4063C28.8068 36.0558 28.7065 35.6608 28.71 35.26V30.91C28.7051 30.8134 28.7051 30.7166 28.71 30.62V30.44C28.7173 30.3842 28.7343 30.33 28.76 30.28C28.7901 30.1197 28.8512 29.9668 28.94 29.83C28.9897 29.7342 29.0538 29.6465 29.13 29.57L29.22 29.44L29.34 29.32C29.7685 28.8949 30.3464 28.6544 30.95 28.65H72.35C72.6544 28.6446 72.9569 28.7003 73.2395 28.8138C73.5221 28.9272 73.779 29.0961 73.9953 29.3105C74.2115 29.5248 74.3826 29.7804 74.4985 30.062C74.6144 30.3435 74.6727 30.6455 74.67 30.95Z" fill="#E27022"/>
<path d="M73.73 55.57H29.67C29.88 54.57 30.45 53.88 30.99 53.88H72.39C72.93 53.9 73.51 54.57 73.73 55.57Z" fill="#E27022"/>
<path d="M16.23 81.57C15.9194 81.9355 15.5333 82.2293 15.0983 82.4313C14.6632 82.6333 14.1896 82.7386 13.71 82.74C13.3662 82.7358 13.0265 82.6645 12.71 82.53C12.3441 82.3553 12.0069 82.126 11.71 81.85C11.5826 81.7412 11.4624 81.6243 11.35 81.5C11.6015 81.4317 11.8486 81.3482 12.09 81.25C13.0177 80.8993 13.8672 80.3692 14.59 79.69C15.266 78.9954 15.7904 78.1679 16.13 77.26C16.9011 75.3343 16.9011 73.1857 16.13 71.26C15.7516 70.358 15.1858 69.5467 14.47 68.88C13.7476 68.1979 12.8982 67.6644 11.97 67.31C9.94902 66.5503 7.72097 66.5503 5.7 67.31C4.76516 67.6616 3.91129 68.1991 3.19 68.89C2.4765 69.5587 1.91102 70.3695 1.53 71.27C0.767018 73.1973 0.767018 75.3428 1.53 77.27C1.90981 78.1742 2.47535 78.9884 3.19 79.66C3.91436 80.3445 4.76756 80.8782 5.7 81.23C6.43337 81.5175 7.20489 81.6961 7.99 81.76C8.45 82.22 8.85 82.62 9.24 82.96C9.68993 83.3614 10.1791 83.7165 10.7 84.02C11.1466 84.2735 11.6286 84.4589 12.13 84.57C12.6138 84.6919 13.1111 84.7524 13.61 84.75C14.3391 84.7736 15.0639 84.6289 15.7281 84.3271C16.3923 84.0254 16.9781 83.5747 17.44 83.01L16.23 81.57ZM5.23 77.98C4.75349 77.5002 4.37928 76.9286 4.13 76.3C3.62337 74.9803 3.62337 73.5197 4.13 72.2C4.37624 71.5917 4.73982 71.0379 5.2 70.57C5.65695 70.0988 6.20927 69.7306 6.82 69.49C8.14208 68.9963 9.59792 68.9963 10.92 69.49C11.5325 69.7328 12.0876 70.1006 12.55 70.57C13.0138 71.037 13.3808 71.5909 13.63 72.2C14.1366 73.5197 14.1366 74.9803 13.63 76.3C13.3819 76.9127 13.0149 77.4701 12.55 77.94C12.0876 78.4094 11.5325 78.7772 10.92 79.02C9.60028 79.5267 8.13972 79.5267 6.82 79.02C6.20927 78.7795 5.65695 78.4112 5.2 77.94L5.23 77.98Z" fill="#332E2B"/>
<path d="M30.19 70.41V81.57H27.7V80.13C27.3719 80.5452 26.9595 80.886 26.49 81.13C25.7555 81.5138 24.9387 81.7129 24.11 81.71C23.2394 81.7284 22.3766 81.5435 21.59 81.17C20.8769 80.8211 20.2873 80.2629 19.9 79.57C19.4704 78.7118 19.264 77.7591 19.3 76.8V70.43H21.9V76.43C21.8386 77.2354 22.0812 78.0346 22.58 78.67C22.829 78.9262 23.1303 79.1257 23.4633 79.2551C23.7963 79.3845 24.1533 79.4408 24.51 79.42C25.0703 79.433 25.6246 79.3021 26.12 79.04C26.5813 78.7784 26.9539 78.3849 27.19 77.91C27.4641 77.3295 27.5944 76.6915 27.57 76.05V70.41H30.19Z" fill="#332E2B"/>
<path d="M34.92 68.57C34.6994 68.5775 34.4795 68.5406 34.2734 68.4616C34.0673 68.3826 33.8791 68.263 33.72 68.11C33.5691 67.9675 33.4495 67.7954 33.3686 67.6043C33.2877 67.4132 33.2473 67.2074 33.25 67C33.2467 66.7924 33.2868 66.5865 33.3677 66.3953C33.4487 66.2042 33.5687 66.0321 33.72 65.89C34.0454 65.5883 34.4764 65.4266 34.92 65.44C35.3637 65.4217 35.7973 65.5758 36.13 65.87C36.2813 66.0035 36.4018 66.1684 36.4829 66.3532C36.5641 66.538 36.604 66.7382 36.6 66.94C36.6038 67.1541 36.5651 67.3669 36.4862 67.5661C36.4072 67.7652 36.2896 67.9466 36.14 68.1C35.9797 68.2578 35.7887 68.3809 35.5789 68.4618C35.369 68.5427 35.1447 68.5795 34.92 68.57ZM33.61 81.57V70.41H36.22V81.57H33.61Z" fill="#332E2B"/>
<path d="M46.36 80.96C46.0256 81.2243 45.6413 81.4181 45.23 81.53C44.777 81.6539 44.3097 81.7178 43.84 81.72C42.8017 81.7731 41.7844 81.4137 41.01 80.72C40.6543 80.3488 40.3813 79.9065 40.209 79.4221C40.0366 78.9378 39.9688 78.4224 40.01 77.91V72.57H38.13V70.48H39.97V67.94H42.58V70.48H45.58V72.57H42.58V77.88C42.5503 78.3262 42.6936 78.7666 42.98 79.11C43.1275 79.2647 43.3065 79.3858 43.5049 79.4651C43.7034 79.5445 43.9165 79.5803 44.13 79.57C44.6551 79.5895 45.1709 79.427 45.59 79.11L46.36 80.96Z" fill="#332E2B"/>
<path d="M66.56 66.94L60.84 76.41V81.57H58.12V76.44L52.38 66.94H55.28L59.57 74.05L63.89 66.94H66.56Z" fill="#332E2B"/>
<path d="M71.85 81.71C70.7831 81.7326 69.7287 81.4775 68.79 80.97C67.9217 80.5023 67.1935 79.812 66.68 78.97C66.1756 78.0668 65.9107 77.0495 65.9107 76.015C65.9107 74.9805 66.1756 73.9632 66.68 73.06C67.1916 72.2164 67.9203 71.5257 68.79 71.06C69.7305 70.5571 70.7837 70.3024 71.85 70.32C72.9227 70.3025 73.9823 70.5571 74.93 71.06C75.8045 71.5191 76.5348 72.2113 77.04 73.06C77.539 73.9668 77.8006 74.985 77.8006 76.02C77.8006 77.055 77.539 78.0732 77.04 78.98C76.5319 79.8264 75.8024 80.5179 74.93 80.98C73.9831 81.484 72.9224 81.7354 71.85 81.71ZM71.85 79.48C72.4468 79.4907 73.0361 79.346 73.56 79.06C74.0612 78.7781 74.4708 78.3581 74.74 77.85C75.034 77.2748 75.1817 76.6359 75.17 75.99C75.1855 75.3405 75.0376 74.6975 74.74 74.12C74.4692 73.6156 74.0598 73.1992 73.56 72.92C73.0358 72.6441 72.4524 72.4999 71.86 72.4999C71.2676 72.4999 70.6842 72.6441 70.16 72.92C69.6632 73.2031 69.2547 73.6185 68.98 74.12C68.6743 74.6949 68.5227 75.3391 68.54 75.99C68.5267 76.6373 68.6781 77.2773 68.98 77.85C69.2519 78.3561 69.6609 78.7754 70.16 79.06C70.6772 79.3448 71.2597 79.4895 71.85 79.48Z" fill="#332E2B"/>
<path d="M91.13 70.41V81.57H88.63V80.13C88.2998 80.5431 87.8879 80.8835 87.42 81.13C86.6791 81.5158 85.8553 81.715 85.02 81.71C84.156 81.7264 83.3001 81.5415 82.52 81.17C81.8 80.8132 81.2067 80.2443 80.82 79.54C80.3986 78.6792 80.196 77.7278 80.23 76.77V70.4H82.83V76.4C82.7734 77.2049 83.0155 78.0024 83.51 78.64C83.7602 78.8975 84.0631 79.0978 84.3979 79.2273C84.7328 79.3567 85.0917 79.4122 85.45 79.39C86.0069 79.4008 86.5574 79.2701 87.05 79.01C87.5113 78.7484 87.8839 78.3549 88.12 77.88C88.3894 77.2979 88.5195 76.6611 88.5 76.02V70.38L91.13 70.41Z" fill="#332E2B"/>
<path d="M101 70.29V72.77C100.895 72.7459 100.788 72.7291 100.68 72.72H100.38C99.9484 72.6998 99.5172 72.7664 99.1118 72.9159C98.7064 73.0653 98.3352 73.2945 98.02 73.59C97.7096 73.9402 97.472 74.3487 97.3209 74.7916C97.1698 75.2346 97.1083 75.7031 97.14 76.17V81.57H94.53V70.41H97.02V72.04C97.3435 71.5467 97.7875 71.144 98.31 70.87C99.1437 70.4539 100.069 70.2545 101 70.29Z" fill="#332E2B"/>
<path d="M16.13 87.92H13.93L8.62 99.73H10.88L12.05 97H17.95L19.13 99.73H21.42L16.13 87.92ZM12.82 95.28L15.05 90.11L17.26 95.28H12.82Z" fill="#332E2B"/>
<path d="M29.34 87.22V91.85C29.1015 91.5473 28.8016 91.2985 28.46 91.12C27.8485 90.7814 27.1589 90.609 26.46 90.62C25.6425 90.6038 24.8353 90.8039 24.12 91.2C23.4395 91.5692 22.8777 92.1241 22.5 92.8C22.0767 93.5384 21.8656 94.3793 21.89 95.23C21.8682 96.0804 22.0791 96.9207 22.5 97.66C22.8857 98.3358 23.4495 98.8927 24.13 99.27C24.8472 99.6614 25.6531 99.8611 26.47 99.85C27.1892 99.8605 27.8988 99.6848 28.53 99.34C28.8888 99.1442 29.2022 98.875 29.45 98.55V99.73H31.45V87.22H29.34ZM29.01 96.73C28.7908 97.144 28.4622 97.4899 28.06 97.73C27.6416 97.9525 27.1739 98.066 26.7 98.06C26.223 98.066 25.752 97.9525 25.33 97.73C24.9094 97.4972 24.5628 97.1506 24.33 96.73C24.0747 96.2721 23.9469 95.7541 23.96 95.23C23.9431 94.7023 24.0711 94.1801 24.33 93.72C24.5615 93.2984 24.9084 92.9515 25.33 92.72C25.7495 92.4898 26.2216 92.3727 26.7 92.38C27.1753 92.3726 27.6442 92.4898 28.06 92.72C28.4632 92.9589 28.7921 93.3051 29.01 93.72C29.269 94.1801 29.3969 94.7023 29.38 95.23C29.3931 95.7541 29.2653 96.2721 29.01 96.73Z" fill="#332E2B"/>
<path d="M40.94 87.22V91.85C40.6947 91.554 40.3962 91.3065 40.06 91.12C39.4456 90.789 38.758 90.6171 38.06 90.62C37.2459 90.6051 36.4422 90.8051 35.73 91.2C35.0464 91.5686 34.4813 92.1234 34.1 92.8C33.6926 93.5438 33.489 94.3822 33.51 95.23C33.4914 96.0776 33.6948 96.9153 34.1 97.66C34.4866 98.3351 35.0502 98.8918 35.73 99.27C36.444 99.6601 37.2465 99.8598 38.06 99.85C38.7598 99.8579 39.4495 99.682 40.06 99.34C40.4236 99.1472 40.7409 98.8776 40.99 98.55V99.73H42.99V87.22H40.94ZM40.61 96.73C40.3813 97.1537 40.0337 97.5013 39.61 97.73C39.1924 97.9546 38.7241 98.0682 38.25 98.06C37.7789 98.0697 37.3135 97.9559 36.9 97.73C36.4763 97.5013 36.1288 97.1537 35.9 96.73C35.6602 96.267 35.5399 95.7514 35.55 95.23C35.5365 94.7051 35.657 94.1854 35.9 93.72C36.1278 93.2956 36.4756 92.9478 36.9 92.72C37.3107 92.4861 37.7775 92.3685 38.25 92.38C38.7256 92.3702 39.1951 92.4875 39.61 92.72C40.0344 92.9478 40.3822 93.2956 40.61 93.72C40.8531 94.1854 40.9735 94.7051 40.96 95.23C40.9701 95.7514 40.8498 96.267 40.61 96.73Z" fill="#332E2B"/>
<path d="M46.87 89.24C46.6868 89.2501 46.5036 89.2224 46.3316 89.1588C46.1596 89.0951 46.0025 88.9968 45.87 88.87C45.7485 88.7539 45.6522 88.6141 45.5868 88.4594C45.5214 88.3046 45.4885 88.138 45.49 87.97C45.4867 87.8017 45.5188 87.6346 45.5842 87.4796C45.6497 87.3245 45.7471 87.185 45.87 87.07C46.0033 86.945 46.1608 86.8485 46.3328 86.7866C46.5047 86.7247 46.6876 86.6987 46.87 86.71C47.0508 86.6983 47.2322 86.7222 47.4038 86.7806C47.5754 86.8389 47.7338 86.9305 47.87 87.05C47.9921 87.1592 48.0893 87.2934 48.1549 87.4436C48.2204 87.5937 48.2529 87.7562 48.25 87.92C48.2558 88.0975 48.2246 88.2742 48.1584 88.439C48.0923 88.6038 47.9925 88.753 47.8655 88.8772C47.7386 89.0013 47.5872 89.0977 47.4209 89.1602C47.2547 89.2226 47.0773 89.2498 46.9 89.24H46.87ZM45.81 99.73V90.73H47.91V99.73H45.81Z" fill="#332E2B"/>
<path d="M54.81 99.85C53.9329 99.8653 53.0661 99.659 52.29 99.25C51.5731 98.8689 50.9746 98.2981 50.56 97.6C50.1537 96.8726 49.9403 96.0532 49.9403 95.22C49.9403 94.3868 50.1537 93.5674 50.56 92.84C50.9754 92.1476 51.5741 91.5835 52.29 91.21C53.0687 90.8089 53.9343 90.6062 54.81 90.62C55.615 90.6045 56.4116 90.7865 57.13 91.15C57.7893 91.4989 58.324 92.044 58.66 92.71L57.04 93.66C56.7999 93.2578 56.454 92.9292 56.04 92.71C55.6539 92.5101 55.2249 92.4071 54.79 92.41C54.3018 92.4002 53.8194 92.5173 53.39 92.75C52.9595 92.9695 52.6095 93.3195 52.39 93.75C52.1396 94.213 52.0155 94.7338 52.03 95.26C52.0155 95.7862 52.1396 96.307 52.39 96.77C52.6117 97.1989 52.9611 97.5483 53.39 97.77C53.8194 98.0026 54.3018 98.1198 54.79 98.11C55.2249 98.1129 55.6539 98.0099 56.04 97.81C56.454 97.5908 56.7999 97.2622 57.04 96.86L58.66 97.81C58.3182 98.4718 57.7851 99.0154 57.13 99.37C56.4087 99.7205 55.6112 99.8855 54.81 99.85Z" fill="#332E2B"/>
<path d="M66.01 99.24C65.7437 99.4519 65.4377 99.6083 65.11 99.7C64.7453 99.8008 64.3684 99.8513 63.99 99.85C63.1554 99.9024 62.3334 99.626 61.7 99.08C61.4136 98.779 61.1928 98.4218 61.0517 98.0311C60.9105 97.6403 60.8521 97.2245 60.88 96.81V92.48H59.4V90.79H60.88V88.73H63V90.79H65.4V92.48H63V96.76C62.979 97.1215 63.093 97.4779 63.32 97.76C63.4422 97.8798 63.588 97.9728 63.7481 98.0331C63.9082 98.0934 64.0792 98.1196 64.25 98.11C64.6739 98.1241 65.09 97.9936 65.43 97.74L66.01 99.24Z" fill="#332E2B"/>
<path d="M68.81 89.24C68.627 89.2489 68.444 89.2207 68.2722 89.1571C68.1004 89.0935 67.9431 88.9959 67.81 88.87C67.6885 88.7539 67.5922 88.6141 67.5268 88.4594C67.4614 88.3046 67.4285 88.138 67.43 87.97C67.4267 87.8017 67.4588 87.6346 67.5243 87.4796C67.5897 87.3245 67.6871 87.185 67.81 87.07C67.9436 86.9455 68.1012 86.8493 68.2731 86.7875C68.4449 86.7256 68.6276 86.6992 68.81 86.71C68.9908 86.6983 69.1722 86.7222 69.3438 86.7806C69.5154 86.8389 69.6738 86.9305 69.81 87.05C69.9321 87.1592 70.0293 87.2934 70.0949 87.4436C70.1604 87.5937 70.1929 87.7562 70.19 87.92C70.1953 88.0936 70.1652 88.2664 70.1016 88.428C70.038 88.5896 69.9422 88.7366 69.82 88.86C69.6879 88.9909 69.5296 89.0924 69.3556 89.1579C69.1815 89.2234 68.9956 89.2514 68.81 89.24ZM67.75 99.73V90.73H69.86V99.73H67.75Z" fill="#332E2B"/>
<path d="M76.67 99.85C75.8121 99.8644 74.965 99.6578 74.21 99.25C73.5038 98.8649 72.916 98.2944 72.51 97.6C72.0971 96.8748 71.8799 96.0546 71.8799 95.22C71.8799 94.3854 72.0971 93.5652 72.51 92.84C72.9168 92.1513 73.5049 91.5875 74.21 91.21C74.9672 90.8091 75.8134 90.6061 76.67 90.62C77.5362 90.6062 78.3921 90.809 79.16 91.21C79.8645 91.584 80.4526 92.1444 80.86 92.83C81.2663 93.5592 81.4796 94.3802 81.4796 95.215C81.4796 96.0498 81.2663 96.8708 80.86 97.6C80.454 98.2944 79.8663 98.8649 79.16 99.25C78.3946 99.6585 77.5375 99.8651 76.67 99.85ZM76.67 98.04C77.152 98.051 77.6283 97.9336 78.05 97.7C78.4777 97.4767 78.8267 97.1277 79.05 96.7C79.2863 96.2361 79.4032 95.7205 79.39 95.2C79.4066 94.676 79.2896 94.1563 79.05 93.69C78.83 93.2599 78.4801 92.91 78.05 92.69C77.6279 92.4667 77.1576 92.35 76.68 92.35C76.2025 92.35 75.7321 92.4667 75.31 92.69C74.8838 92.9153 74.5353 93.2638 74.31 93.69C74.0631 94.154 73.9424 94.6747 73.96 95.2C73.9442 95.7219 74.0648 96.239 74.31 96.7C74.5383 97.124 74.886 97.4717 75.31 97.7C75.7253 97.9315 76.1946 98.0489 76.67 98.04Z" fill="#332E2B"/>
<path d="M92.38 94.57V99.73H90.26V94.84C90.3085 94.1937 90.1082 93.5534 89.7 93.05C89.4933 92.8486 89.247 92.6921 88.9768 92.5906C88.7066 92.4891 88.4183 92.4446 88.13 92.46C87.6707 92.4485 87.2162 92.5552 86.81 92.77C86.4274 92.9675 86.1188 93.2831 85.93 93.67C85.7012 94.1392 85.5946 94.6586 85.62 95.18V99.73H83.51V90.73H85.51V91.92C85.7798 91.5772 86.121 91.2974 86.51 91.1C87.1622 90.7773 87.8824 90.6161 88.61 90.63C89.2771 90.6198 89.9375 90.7635 90.54 91.05C91.1063 91.3365 91.5707 91.7904 91.87 92.35C92.2259 93.0346 92.4014 93.7987 92.38 94.57Z" fill="#332E2B"/>
<defs>
<linearGradient id="paint0_linear_97_203" x1="58.31" y1="22.5" x2="58.45" y2="22.87" gradientUnits="userSpaceOnUse">
<stop stop-color="#63B22F"/>
<stop offset="0.68" stop-color="#046C5B"/>
<stop offset="1" stop-color="#13302C"/>
</linearGradient>
<linearGradient id="paint1_linear_97_203" x1="46.54" y1="8.09" x2="46.91" y2="9.11999" gradientUnits="userSpaceOnUse">
<stop stop-color="#63B22F"/>
<stop offset="0.68" stop-color="#046C5B"/>
<stop offset="1" stop-color="#13302C"/>
</linearGradient>
</defs>
</svg>
