<svg width="20" height="20" viewBox="0 0 20 20" fill="none" xmlns="http://www.w3.org/2000/svg">
<g id="search_icon">
<path id="search_icon_2" d="M8.89605 2.00628e-08C10.5665 -0.000112141 12.2033 0.470054 13.619 1.35669C15.0347 2.24333 16.1722 3.51061 16.9013 5.01352C17.6304 6.51642 17.9216 8.19422 17.7417 9.8549C17.5617 11.5156 16.9178 13.0921 15.8837 14.4039L19.7062 18.2262C19.8968 18.4236 20.0023 18.688 20 18.9625C19.9976 19.2369 19.8875 19.4994 19.6934 19.6934C19.4994 19.8875 19.2368 19.9976 18.9624 20C18.688 20.0023 18.4236 19.8968 18.2262 19.7062L14.4037 15.8839C13.2894 16.7619 11.9813 17.3609 10.5886 17.6306C9.19575 17.9004 7.75864 17.8331 6.3971 17.4346C5.03557 17.036 3.7891 16.3176 2.76169 15.3393C1.73427 14.361 0.955709 13.1513 0.490952 11.8109C0.0261946 10.4706 -0.111279 9.03854 0.0899992 7.63426C0.291278 6.22998 0.825473 4.8942 1.64802 3.73835C2.47056 2.5825 3.5576 1.64011 4.81844 0.989804C6.07928 0.339494 7.47736 0.000120879 8.89605 2.00628e-08ZM8.89605 2.09329C7.09166 2.09329 5.36118 2.81005 4.08529 4.08589C2.8094 5.36173 2.09261 7.09215 2.09261 8.89647C2.09261 10.7008 2.8094 12.4312 4.08529 13.707C5.36118 14.9829 7.09166 15.6996 8.89605 15.6996C10.7004 15.6996 12.4309 14.9829 13.7068 13.707C14.9827 12.4312 15.6995 10.7008 15.6995 8.89647C15.6995 7.09215 14.9827 5.36173 13.7068 4.08589C12.4309 2.81005 10.7004 2.09329 8.89605 2.09329ZM8.89605 3.13993C10.4228 3.13993 11.8871 3.74642 12.9667 4.82598C14.0463 5.90554 14.6528 7.36974 14.6528 8.89647C14.6528 10.4232 14.0463 11.8874 12.9667 12.967C11.8871 14.0465 10.4228 14.653 8.89605 14.653C7.36926 14.653 5.90501 14.0465 4.82541 12.967C3.7458 11.8874 3.13929 10.4232 3.13929 8.89647C3.13929 7.36974 3.7458 5.90554 4.82541 4.82598C5.90501 3.74642 7.36926 3.13993 8.89605 3.13993Z" fill="white"/>
</g>
</svg>
