<svg width="20" height="20" viewBox="0 0 20 20" fill="none" xmlns="http://www.w3.org/2000/svg">
<path d="M6.84653 4.95123L14.432 14.9819H13.254L5.58372 4.95123H6.84653Z" fill="#E27023"/>
<path d="M6.84653 4.95123H5.58372L13.254 14.9819H14.432L6.84653 4.95123Z" fill="black"/>
<path d="M19.9984 4.24702C19.979 3.11427 19.5155 2.03445 18.7077 1.24009C17.9 0.445737 16.8125 0.000404177 15.6796 0H4.32092C3.17494 0 2.0759 0.45524 1.26557 1.26557C0.455238 2.0759 0 3.17494 0 4.32092V15.6775C0 16.8234 0.455238 17.9225 1.26557 18.7328C2.0759 19.5431 3.17494 19.9984 4.32092 19.9984H15.6796C16.8125 19.998 17.9 19.5526 18.7077 18.7583C19.5155 17.9639 19.979 16.8841 19.9984 15.7514C19.9984 15.7275 19.9984 15.7014 19.9984 15.6775V4.32092C20.0005 4.29701 20.0005 4.27093 19.9984 4.24702ZM19.3463 15.6927V15.7427C19.3232 16.7022 18.9276 17.6151 18.2432 18.2881C17.5588 18.9611 16.6394 19.3414 15.6796 19.3485H4.32092C3.34785 19.3473 2.415 18.9601 1.72714 18.2719C1.03928 17.5836 0.652625 16.6505 0.65205 15.6775V4.32092C0.6532 3.34823 1.04011 2.41571 1.72791 1.72791C2.4157 1.04011 3.34823 0.6532 4.32092 0.65205H15.6796C16.6394 0.659111 17.5588 1.0394 18.2432 1.71241C18.9276 2.38542 19.3232 3.29832 19.3463 4.25789V15.6927ZM12.3237 9.07219L16.6099 4.17747L17.5554 3.09072H13.7039L13.5083 3.30807L10.5458 6.7009L8.005 3.34502L7.80938 3.08637H1.78227L2.58429 4.134L7.48553 10.5458L2.89293 15.8187L1.94746 16.9055H5.7989L5.99451 16.6881L9.29388 12.9193L12.152 16.6555L12.3477 16.912H18.2465L17.4554 15.8665L12.3237 9.07219ZM12.6693 16.2447L9.32866 11.876L5.5033 16.2447H3.38414L8.33755 10.5806L3.12115 3.74494H7.4964L10.5197 7.74201L14.0104 3.74494H16.1274L11.4935 9.03959L16.9446 16.2447H12.6693Z" fill="#E27023"/>
<path d="M19.9984 4.24702C19.979 3.11427 19.5155 2.03445 18.7077 1.24009C17.9 0.445737 16.8125 0.000404177 15.6796 0H4.32092C3.17494 0 2.0759 0.45524 1.26557 1.26557C0.455238 2.0759 0 3.17494 0 4.32092V15.6775C0 16.8234 0.455238 17.9225 1.26557 18.7328C2.0759 19.5431 3.17494 19.9984 4.32092 19.9984H15.6796C16.8125 19.998 17.9 19.5526 18.7077 18.7583C19.5155 17.9639 19.979 16.8841 19.9984 15.7514C19.9984 15.7275 19.9984 15.7014 19.9984 15.6775V4.32092C20.0005 4.29701 20.0005 4.27093 19.9984 4.24702ZM19.3463 15.6927V15.7427C19.3232 16.7022 18.9276 17.6151 18.2432 18.2881C17.5588 18.9611 16.6394 19.3414 15.6796 19.3485H4.32092C3.34785 19.3473 2.415 18.9601 1.72714 18.2719C1.03928 17.5836 0.652625 16.6505 0.65205 15.6775V4.32092C0.6532 3.34823 1.04011 2.41571 1.72791 1.72791C2.4157 1.04011 3.34823 0.6532 4.32092 0.65205H15.6796C16.6394 0.659111 17.5588 1.0394 18.2432 1.71241C18.9276 2.38542 19.3232 3.29832 19.3463 4.25789V15.6927ZM12.3237 9.07219L16.6099 4.17747L17.5554 3.09072H13.7039L13.5083 3.30807L10.5458 6.7009L8.005 3.34502L7.80938 3.08637H1.78227L2.58429 4.134L7.48553 10.5458L2.89293 15.8187L1.94746 16.9055H5.7989L5.99451 16.6881L9.29388 12.9193L12.152 16.6555L12.3477 16.912H18.2465L17.4554 15.8665L12.3237 9.07219ZM12.6693 16.2447L9.32866 11.876L5.5033 16.2447H3.38414L8.33755 10.5806L3.12115 3.74494H7.4964L10.5197 7.74201L14.0104 3.74494H16.1274L11.4935 9.03959L16.9446 16.2447H12.6693ZM17.451 15.8513L12.3237 9.07219L16.6099 4.17747L17.5554 3.09072H13.7039L13.5083 3.30807L10.5458 6.7009L8.005 3.34502L7.80938 3.08637H1.78227L2.58429 4.134L7.48553 10.5458L2.89293 15.8187L1.94746 16.9055H5.7989L5.99451 16.6881L9.29388 12.9193L12.152 16.6555L12.3477 16.912H18.2465L17.451 15.8513ZM12.6693 16.2447L9.32866 11.876L5.5033 16.2447H3.38414L8.33755 10.5806L3.12115 3.74494H7.4964L10.5197 7.74201L14.0104 3.74494H16.1274L11.4935 9.03959L16.9446 16.2447H12.6693ZM17.451 15.8513L12.3237 9.07219L16.6099 4.17747L17.5554 3.09072H13.7039L13.5083 3.30807L10.5458 6.7009L8.005 3.34502L7.80938 3.08637H1.78227L2.58429 4.134L7.48553 10.5458L2.89293 15.8187L1.94746 16.9055H5.7989L5.99451 16.6881L9.29388 12.9193L12.152 16.6555L12.3477 16.912H18.2465L17.451 15.8513ZM12.6693 16.2447L9.32866 11.876L5.5033 16.2447H3.38414L8.33755 10.5806L3.12115 3.74494H7.4964L10.5197 7.74201L14.0104 3.74494H16.1274L11.4935 9.03959L16.9446 16.2447H12.6693Z" fill="black"/>
<path d="M19.3463 4.27091V4.25787C19.3232 3.29831 18.9276 2.3854 18.2432 1.7124C17.5588 1.03939 16.6394 0.6591 15.6796 0.652039H4.32092C3.34823 0.653189 2.41571 1.0401 1.72791 1.7279C1.04011 2.41569 0.653204 3.34822 0.652054 4.32091V15.6774C0.653204 16.6501 1.04011 17.5827 1.72791 18.2705C2.41571 18.9583 3.34823 19.3452 4.32092 19.3463H15.6796C16.6394 19.3393 17.5588 18.959 18.2432 18.286C18.9276 17.613 19.3232 16.7 19.3463 15.7405V4.27091ZM12.3477 16.9011L12.152 16.6447L9.29389 12.9084L5.99451 16.6772L5.7989 16.8946H1.94746L2.89293 15.8078L7.49423 10.5458L2.59299 4.13399L1.78227 3.09723H7.80069L7.99631 3.35587L10.5371 6.71176L13.5192 3.31893L13.7148 3.10158H17.5662L16.6208 4.18833L12.3237 9.07218L17.4554 15.8557L18.2465 16.9011H12.3477Z" fill="#E27023"/>
</svg>
